<?xml version="1.0" encoding="UTF-8"?>
<!DOCTYPE svg PUBLIC "-//W3C//DTD SVG 1.1//EN" "http://www.w3.org/Graphics/SVG/1.1/DTD/svg11.dtd">
<svg xmlns="http://www.w3.org/2000/svg" version="1.1" width="512px" height="512px" style="shape-rendering:geometricPrecision; text-rendering:geometricPrecision; image-rendering:optimizeQuality; fill-rule:evenodd; clip-rule:evenodd" xmlns:xlink="http://www.w3.org/1999/xlink">
<g><path style="opacity:0.974" fill="#272727" d="M 328.5,211.5 C 328.47,212.497 328.97,213.164 330,213.5C 331.728,213.101 333.228,212.434 334.5,211.5C 340.155,210.751 345.822,210.085 351.5,209.5C 351.808,207.076 351.474,204.743 350.5,202.5C 329.648,193.811 316.481,178.478 311,156.5C 309.559,150.581 308.726,144.581 308.5,138.5C 299.932,137.464 294.432,132.797 292,124.5C 287.483,97.2961 291.15,71.2961 303,46.5C 310.888,33.2784 321.388,22.7784 334.5,15C 337.756,13.5263 341.089,12.3597 344.5,11.5C 348.431,10.6109 352.098,9.27755 355.5,7.5C 385.837,-0.200067 414.503,3.63327 441.5,19C 462.691,33.5427 473.857,53.7094 475,79.5C 476.443,91.4682 476.777,103.468 476,115.5C 475.034,120.574 473.201,125.241 470.5,129.5C 466.883,132.315 462.883,134.648 458.5,136.5C 457.218,137.958 457.218,139.292 458.5,140.5C 454.97,168.173 440.803,188.173 416,200.5C 415.502,203.482 415.335,206.482 415.5,209.5C 453.626,209.316 482.459,225.649 502,258.5C 506.511,267.864 509.678,277.53 511.5,287.5C 511.5,291.833 511.5,296.167 511.5,300.5C 510.477,306.584 508.81,312.584 506.5,318.5C 504.992,320.181 503.992,322.181 503.5,324.5C 502.758,326.426 501.758,328.259 500.5,330C 496.969,331.406 493.302,332.24 489.5,332.5C 485.295,332.717 481.295,333.383 477.5,334.5C 463.694,335.882 449.861,336.882 436,337.5C 414.368,336.358 392.868,335.691 371.5,335.5C 368.713,334.523 365.713,334.19 362.5,334.5C 356.167,334.5 349.833,334.5 343.5,334.5C 340.287,334.19 337.287,334.523 334.5,335.5C 331.833,335.5 329.167,335.5 326.5,335.5C 320.608,356.226 307.775,370.893 288,379.5C 287.333,382.5 287.333,385.5 288,388.5C 327.894,388.454 357.227,406.12 376,441.5C 382.8,454.494 384.8,468.161 382,482.5C 380.663,486.507 378.83,490.173 376.5,493.5C 370.786,499.353 364.12,503.687 356.5,506.5C 342.991,509.85 329.325,510.35 315.5,508C 259.833,507.667 204.167,507.333 148.5,507C 140.777,506.232 135.277,502.398 132,495.5C 124.986,463.537 133.153,436.037 156.5,413C 165.473,405.679 175.473,400.179 186.5,396.5C 189.018,395.736 191.351,394.736 193.5,393.5C 196.763,392.518 200.097,391.851 203.5,391.5C 205.786,391.405 207.786,390.738 209.5,389.5C 214.152,389.002 218.819,388.669 223.5,388.5C 223.808,386.076 223.474,383.743 222.5,381.5C 201.535,372.872 188.535,357.538 183.5,335.5C 182.5,335.5 181.5,335.5 180.5,335.5C 178.052,334.527 175.385,334.194 172.5,334.5C 164.5,334.5 156.5,334.5 148.5,334.5C 145.5,333.167 142.5,333.167 139.5,334.5C 116.752,335.622 93.9183,336.622 71,337.5C 60.4576,337.227 49.9576,336.56 39.5,335.5C 37.3926,334.532 35.0593,334.198 32.5,334.5C 29.7628,334.599 27.0961,334.265 24.5,333.5C 21.2722,332.454 17.9389,331.788 14.5,331.5C 7.69078,331.358 3.52412,328.025 2,321.5C -0.333589,301.498 2.33308,282.165 10,263.5C 14.22,255.452 19.72,248.452 26.5,242.5C 28.3885,241.396 30.0552,240.063 31.5,238.5C 31.9528,237.542 32.6195,236.708 33.5,236C 25.2467,232.914 17.2467,229.248 9.5,225C 2.39169,219.298 0.558357,212.131 4,203.5C 11.6405,191.887 17.9738,179.553 23,166.5C 23.6289,163.689 24.1289,160.856 24.5,158C 19.7236,124.142 23.557,91.3089 36,59.5C 42.7497,48.0945 50.2497,37.2612 58.5,27C 69.9752,17.9272 82.6419,10.9272 96.5,6C 156.776,-3.7444 194.276,21.0889 209,80.5C 210.078,103.484 211.078,126.484 212,149.5C 213.393,162.68 217.393,175.013 224,186.5C 249.263,180.208 274.43,181.375 299.5,190C 311.017,194.75 320.684,201.916 328.5,211.5 Z M 369.5,11.5 C 361.836,16.668 353.836,21.3347 345.5,25.5C 349.806,21.8604 353.806,17.8604 357.5,13.5C 361.5,12.8333 365.5,12.1667 369.5,11.5 Z M 111.5,14.5 C 100.998,21.588 89.9978,27.9214 78.5,33.5C 84.4737,27.8612 90.4737,22.1945 96.5,16.5C 101.343,14.961 106.343,14.2943 111.5,14.5 Z M 130.5,15.5 C 133.833,16.1667 137.167,16.8333 140.5,17.5C 127.501,25.6688 114.168,33.3354 100.5,40.5C 110.5,32.1667 120.5,23.8333 130.5,15.5 Z M 162.5,28.5 C 164.341,29.4023 165.674,30.7356 166.5,32.5C 153.816,39.5282 141.15,46.5282 128.5,53.5C 139.833,45.1667 151.167,36.8333 162.5,28.5 Z M 436.5,31.5 C 438.167,32.5 439.5,33.8333 440.5,35.5C 427.14,42.8456 413.806,50.1789 400.5,57.5C 412.109,48.3556 424.109,39.6889 436.5,31.5 Z M 175.5,39.5 C 176.167,39.5 176.5,39.8333 176.5,40.5C 172.423,43.2272 168.09,45.5606 163.5,47.5C 167.148,44.3401 171.148,41.6735 175.5,39.5 Z M 100.5,40.5 C 100.027,41.9063 99.0269,42.573 97.5,42.5C 97.9731,41.0937 98.9731,40.427 100.5,40.5 Z M 448.5,42.5 C 449.11,43.391 449.443,44.391 449.5,45.5C 443.127,49.6866 436.461,53.3533 429.5,56.5C 435.617,51.6011 441.951,46.9344 448.5,42.5 Z M 163.5,47.5 C 163.027,48.9063 162.027,49.573 160.5,49.5C 160.973,48.0937 161.973,47.427 163.5,47.5 Z M 183.5,48.5 C 183.5,48.8333 183.5,49.1667 183.5,49.5C 183.158,50.3382 182.492,50.6716 181.5,50.5C 181.833,49.5 182.5,48.8333 183.5,48.5 Z M 181.5,50.5 C 181.027,51.9063 180.027,52.573 178.5,52.5C 178.973,51.0937 179.973,50.427 181.5,50.5 Z M 67.5,52.5 C 59.5391,58.8224 51.5391,65.1557 43.5,71.5C 44.0147,69.1055 44.6814,66.7722 45.5,64.5C 52.5972,60.0699 59.9306,56.0699 67.5,52.5 Z M 455.5,54.5 C 456.931,55.7804 457.598,57.4471 457.5,59.5C 449.082,64.7077 440.415,69.3743 431.5,73.5C 439.5,67.1667 447.5,60.8333 455.5,54.5 Z M 400.5,57.5 C 400.027,58.9063 399.027,59.573 397.5,59.5C 397.973,58.0937 398.973,57.427 400.5,57.5 Z M 196.5,78.5 C 196.629,80.2161 196.962,81.8828 197.5,83.5C 194.661,85.4203 191.661,87.0869 188.5,88.5C 187.599,87.7095 186.932,86.7095 186.5,85.5C 189.796,83.1792 193.129,80.8458 196.5,78.5 Z M 463.5,81.5 C 463.5,81.8333 463.5,82.1667 463.5,82.5C 463.158,83.3382 462.492,83.6716 461.5,83.5C 461.833,82.5 462.5,81.8333 463.5,81.5 Z M 51.5,94.5 C 49.457,95.5794 48.1237,97.246 47.5,99.5C 44.5251,100.655 41.8584,102.322 39.5,104.5C 39.5,102.5 39.5,100.5 39.5,98.5C 43.673,97.1626 47.5063,95.1626 51,92.5C 51.4643,93.0944 51.631,93.7611 51.5,94.5 Z M 198.5,95.5 C 198.5,96.5 198.5,97.5 198.5,98.5C 196.716,98.8925 195.05,99.5592 193.5,100.5C 192.833,100.5 192.5,100.167 192.5,99.5C 194.147,97.6736 196.147,96.3403 198.5,95.5 Z M 455.5,113.5 C 454.85,115.435 454.517,117.435 454.5,119.5C 445.806,124.179 437.14,128.846 428.5,133.5C 437.284,126.601 446.284,119.935 455.5,113.5 Z M 189.5,115.5 C 190.833,116.167 191.833,117.167 192.5,118.5C 190.77,119.026 189.436,120.026 188.5,121.5C 182.5,124.5 176.5,127.5 170.5,130.5C 176.652,125.259 182.985,120.259 189.5,115.5 Z M 320.5,117.5 C 320.027,118.906 319.027,119.573 317.5,119.5C 317.973,118.094 318.973,117.427 320.5,117.5 Z M 317.5,119.5 C 314.81,122.185 311.81,124.518 308.5,126.5C 307.662,126.158 307.328,125.492 307.5,124.5C 310.55,122.308 313.883,120.642 317.5,119.5 Z M 339.5,121.5 C 339.027,122.906 338.027,123.573 336.5,123.5C 336.973,122.094 337.973,121.427 339.5,121.5 Z M 336.5,123.5 C 332.087,128.21 327.087,132.21 321.5,135.5C 321.027,134.094 320.027,133.427 318.5,133.5C 324.17,129.663 330.17,126.33 336.5,123.5 Z M 197.5,129.5 C 197.5,129.833 197.5,130.167 197.5,130.5C 196.395,131.6 195.062,132.267 193.5,132.5C 194.262,130.738 195.596,129.738 197.5,129.5 Z M 336.5,140.5 C 332.386,144.064 328.052,147.397 323.5,150.5C 323.5,149.5 323.5,148.5 323.5,147.5C 327.701,144.9 332.034,142.566 336.5,140.5 Z M 198.5,154.5 C 199.234,155.708 199.567,157.041 199.5,158.5C 194.167,161.5 188.833,164.5 183.5,167.5C 183.75,165.326 184.75,163.659 186.5,162.5C 190.228,159.441 194.228,156.774 198.5,154.5 Z M 355.5,154.5 C 355.027,155.906 354.027,156.573 352.5,156.5C 352.973,155.094 353.973,154.427 355.5,154.5 Z M 352.5,156.5 C 345.872,161.488 339.205,166.488 332.5,171.5C 331.599,170.71 330.932,169.71 330.5,168.5C 337.597,164.07 344.931,160.07 352.5,156.5 Z M 371.5,161.5 C 361.804,169.188 351.804,176.521 341.5,183.5C 340.833,182.167 339.833,181.167 338.5,180.5C 349.237,173.775 360.237,167.442 371.5,161.5 Z M 50.5,162.5 C 51.3382,162.842 51.6716,163.508 51.5,164.5C 44.8333,168.833 38.1667,173.167 31.5,177.5C 31.9752,175.216 32.9752,173.216 34.5,171.5C 39.8333,168.5 45.1667,165.5 50.5,162.5 Z M 202.5,169.5 C 202.629,171.216 202.962,172.883 203.5,174.5C 195.336,179.417 187.003,184.083 178.5,188.5C 186.461,182.178 194.461,175.844 202.5,169.5 Z M 381.5,183.5 C 381.027,184.906 380.027,185.573 378.5,185.5C 378.973,184.094 379.973,183.427 381.5,183.5 Z M 378.5,185.5 C 374.751,188.888 370.751,192.055 366.5,195C 364.602,195.93 362.602,196.43 360.5,196.5C 359.833,196.5 359.5,196.167 359.5,195.5C 365.702,191.899 372.036,188.566 378.5,185.5 Z M 39.5,186.5 C 39.0269,187.906 38.0269,188.573 36.5,188.5C 36.9731,187.094 37.9731,186.427 39.5,186.5 Z M 65.5,186.5 C 50.7982,197.191 35.7982,207.524 20.5,217.5C 19.3995,216.395 18.7329,215.062 18.5,213.5C 33.9038,204.108 49.5705,195.108 65.5,186.5 Z M 178.5,188.5 C 178.027,189.906 177.027,190.573 175.5,190.5C 175.973,189.094 176.973,188.427 178.5,188.5 Z M 34.5,189.5 C 30.0244,193.575 25.0244,196.908 19.5,199.5C 19.5569,198.391 19.8902,197.391 20.5,196.5C 25.1667,194.167 29.8333,191.833 34.5,189.5 Z M 397.5,189.5 C 394.496,193.496 390.496,195.83 385.5,196.5C 389.164,193.665 393.164,191.332 397.5,189.5 Z M 244.5,190.5 C 236.659,195.923 228.326,200.59 219.5,204.5C 222.122,200.543 225.122,196.876 228.5,193.5C 233.728,191.988 239.062,190.988 244.5,190.5 Z M 264.5,190.5 C 267.833,190.833 271.167,191.167 274.5,191.5C 261.67,199.083 248.67,206.416 235.5,213.5C 244.854,205.483 254.521,197.817 264.5,190.5 Z M 383.5,197.5 C 383.027,198.906 382.027,199.573 380.5,199.5C 380.973,198.094 381.973,197.427 383.5,197.5 Z M 60.5,206.5 C 52.132,212.857 43.4654,218.857 34.5,224.5C 33.1667,224.167 31.8333,223.833 30.5,223.5C 40.1675,217.331 50.1675,211.664 60.5,206.5 Z M 365.5,206.5 C 366.5,206.5 367.5,206.5 368.5,206.5C 366.957,208.557 365.957,208.557 365.5,206.5 Z M 313.5,214.5 C 315.262,215.262 316.262,216.596 316.5,218.5C 303.501,226.669 290.168,234.335 276.5,241.5C 288.529,232.145 300.863,223.145 313.5,214.5 Z M 336.5,217.5 C 337.833,217.5 339.167,217.5 340.5,217.5C 339.486,218.674 338.153,219.34 336.5,219.5C 336.5,218.833 336.5,218.167 336.5,217.5 Z M 424.5,217.5 C 427.518,217.704 430.518,218.037 433.5,218.5C 425.168,224.002 416.501,229.002 407.5,233.5C 409.555,231.445 411.221,229.112 412.5,226.5C 416.5,223.5 420.5,220.5 424.5,217.5 Z M 455.5,228.5 C 457.153,228.66 458.486,229.326 459.5,230.5C 447.836,238.001 435.836,245.001 423.5,251.5C 433.776,243.355 444.443,235.689 455.5,228.5 Z M 317.5,231.5 C 318.002,229.915 319.002,229.415 320.5,230C 319.756,231.039 318.756,231.539 317.5,231.5 Z M 185.5,239.5 C 185.5,238.5 185.5,237.5 185.5,236.5C 188.687,234.65 191.853,232.65 195,230.5C 195.167,230.833 195.333,231.167 195.5,231.5C 192.136,234.175 188.803,236.842 185.5,239.5 Z M 148.5,234.5 C 148.5,235.833 148.5,237.167 148.5,238.5C 146.95,239.441 145.284,240.107 143.5,240.5C 144.248,238.668 145.248,237.001 146.5,235.5C 147.167,235.167 147.833,234.833 148.5,234.5 Z M 127.5,248.5 C 128.167,248.5 128.833,248.5 129.5,248.5C 129.027,249.906 128.027,250.573 126.5,250.5C 126.833,249.833 127.167,249.167 127.5,248.5 Z M 483.5,255.5 C 484.906,255.973 485.573,256.973 485.5,258.5C 477.483,262.862 469.483,267.195 461.5,271.5C 468.53,265.812 475.863,260.478 483.5,255.5 Z M 162.5,268.5 C 162.5,269.5 162.5,270.5 162.5,271.5C 159.45,273.692 156.117,275.358 152.5,276.5C 155.52,273.484 158.854,270.817 162.5,268.5 Z M 490.5,268.5 C 491.338,268.842 491.672,269.508 491.5,270.5C 486.632,273.434 481.632,276.1 476.5,278.5C 480.806,274.679 485.473,271.345 490.5,268.5 Z M 152.5,276.5 C 152.027,277.906 151.027,278.573 149.5,278.5C 149.973,277.094 150.973,276.427 152.5,276.5 Z M 354.5,286.5 C 352.909,288.633 350.909,290.299 348.5,291.5C 348.5,290.833 348.5,290.167 348.5,289.5C 350.517,288.471 352.517,287.471 354.5,286.5 Z M 41.5,295.5 C 32.8003,302.19 23.8003,308.523 14.5,314.5C 14.5,313.167 14.5,311.833 14.5,310.5C 23.366,305.234 32.366,300.234 41.5,295.5 Z M 309.5,299.5 C 309.557,300.609 309.89,301.609 310.5,302.5C 304.965,305.767 299.298,308.767 293.5,311.5C 298.527,307.147 303.86,303.147 309.5,299.5 Z M 97.5,303.5 C 86.1667,312.167 74.8333,320.833 63.5,329.5C 59.1186,329.372 54.7853,329.705 50.5,330.5C 65.6693,320.745 81.336,311.745 97.5,303.5 Z M 392.5,307.5 C 383.137,314.855 373.47,321.855 363.5,328.5C 360.833,328.5 358.167,328.5 355.5,328.5C 367.572,321.108 379.905,314.108 392.5,307.5 Z M 293.5,311.5 C 293.027,312.906 292.027,313.573 290.5,313.5C 290.973,312.094 291.973,311.427 293.5,311.5 Z M 413.5,311.5 C 413.027,312.906 412.027,313.573 410.5,313.5C 410.973,312.094 411.973,311.427 413.5,311.5 Z M 410.5,313.5 C 403.833,318.833 397.167,324.167 390.5,329.5C 388.5,329.167 386.5,328.833 384.5,328.5C 392.832,322.998 401.499,317.998 410.5,313.5 Z M 125.5,316.5 C 120.687,321.07 115.687,325.403 110.5,329.5C 107.833,329.5 105.167,329.5 102.5,329.5C 109.905,324.774 117.572,320.441 125.5,316.5 Z M 150.5,317.5 C 146.833,321.5 143.167,325.5 139.5,329.5C 136.167,329.5 132.833,329.5 129.5,329.5C 136.329,325.251 143.329,321.251 150.5,317.5 Z M 172.5,329.5 C 167.833,329.5 163.167,329.5 158.5,329.5C 164.016,325.483 169.85,321.816 176,318.5C 174.895,322.079 173.728,325.746 172.5,329.5 Z M 484.5,318.5 C 482.735,321.709 480.735,324.709 478.5,327.5C 474.6,328.43 470.6,328.763 466.5,328.5C 472.17,324.663 478.17,321.33 484.5,318.5 Z M 199.5,319.5 C 198.055,321.063 196.389,322.396 194.5,323.5C 194.5,322.833 194.5,322.167 194.5,321.5C 196.05,320.559 197.716,319.893 199.5,319.5 Z M 337.5,326.5 C 337.167,327.5 336.5,328.167 335.5,328.5C 335.167,328.5 334.833,328.5 334.5,328.5C 334.973,327.094 335.973,326.427 337.5,326.5 Z M 316.5,328.5 C 315.89,329.391 315.557,330.391 315.5,331.5C 313.117,333.358 310.45,334.692 307.5,335.5C 309.949,332.444 312.949,330.111 316.5,328.5 Z M 242.5,335.5 C 232.14,343.853 221.473,351.853 210.5,359.5C 209.5,358.167 208.5,356.833 207.5,355.5C 218.996,348.584 230.663,341.917 242.5,335.5 Z M 307.5,335.5 C 307.027,336.906 306.027,337.573 304.5,337.5C 304.973,336.094 305.973,335.427 307.5,335.5 Z M 212.5,338.5 C 209.167,341.167 205.833,343.833 202.5,346.5C 201.662,346.158 201.328,345.492 201.5,344.5C 204.678,341.742 208.345,339.742 212.5,338.5 Z M 272.5,348.5 C 261.57,357.314 250.57,366.147 239.5,375C 237.19,375.497 234.857,375.663 232.5,375.5C 230.847,375.34 229.514,374.674 228.5,373.5C 243.184,365.139 257.85,356.805 272.5,348.5 Z M 273.5,367.5 C 270.764,372.521 266.764,374.854 261.5,374.5C 265.164,371.665 269.164,369.332 273.5,367.5 Z M 195.5,401.5 C 196.737,402.965 197.737,404.632 198.5,406.5C 192.473,409.845 186.473,413.179 180.5,416.5C 185.194,411.14 190.194,406.14 195.5,401.5 Z M 343.5,418.5 C 343.5,418.833 343.5,419.167 343.5,419.5C 343.158,420.338 342.492,420.672 341.5,420.5C 341.833,419.5 342.5,418.833 343.5,418.5 Z M 165.5,451.5 C 157.475,458.186 149.141,464.519 140.5,470.5C 141.15,468.565 141.483,466.565 141.5,464.5C 149.517,460.138 157.517,455.805 165.5,451.5 Z M 365.5,456.5 C 366.301,458.042 366.634,459.708 366.5,461.5C 361.632,464.434 356.632,467.1 351.5,469.5C 355.745,464.711 360.411,460.378 365.5,456.5 Z M 351.5,469.5 C 351.027,470.906 350.027,471.573 348.5,471.5C 348.973,470.094 349.973,469.427 351.5,469.5 Z M 180.5,474.5 C 180.027,475.906 179.027,476.573 177.5,476.5C 177.973,475.094 178.973,474.427 180.5,474.5 Z M 369.5,475.5 C 369.5,476.5 369.5,477.5 369.5,478.5C 368.167,478.833 366.833,479.167 365.5,479.5C 366.5,477.833 367.833,476.5 369.5,475.5 Z M 152.5,476.5 C 149.554,479.313 146.221,481.646 142.5,483.5C 141.662,483.158 141.328,482.492 141.5,481.5C 145.316,480.091 148.983,478.424 152.5,476.5 Z M 177.5,476.5 C 168.833,482.833 160.167,489.167 151.5,495.5C 150.167,494.833 149.167,493.833 148.5,492.5C 158.033,486.901 167.7,481.567 177.5,476.5 Z M 324.5,478.5 C 317.466,485.536 310.133,492.203 302.5,498.5C 298.167,498.5 293.833,498.5 289.5,498.5C 300.996,491.584 312.663,484.917 324.5,478.5 Z M 345.5,485.5 C 341.139,490.193 336.805,494.859 332.5,499.5C 328.833,499.5 325.167,499.5 321.5,499.5C 329.164,494.332 337.164,489.665 345.5,485.5 Z M 213.5,493.5 C 211.54,495.156 209.54,496.823 207.5,498.5C 206.5,498.5 205.5,498.5 204.5,498.5C 207.24,496.44 210.24,494.774 213.5,493.5 Z"/></g>
<g><path style="opacity:0.77" fill="#5a6174" d="M 355.5,7.5 C 352.098,9.27755 348.431,10.6109 344.5,11.5C 347.542,8.1332 351.209,6.79986 355.5,7.5 Z"/></g>
<g><path style="opacity:0.984" fill="#5f687e" d="M 414.5,18.5 C 419.086,19.4598 423.086,21.4598 426.5,24.5C 430.961,25.3833 434.295,27.7166 436.5,31.5C 424.109,39.6889 412.109,48.3556 400.5,57.5C 413.806,50.1789 427.14,42.8456 440.5,35.5C 443.764,37.0941 446.431,39.4275 448.5,42.5C 441.951,46.9344 435.617,51.6011 429.5,56.5C 436.461,53.3533 443.127,49.6866 449.5,45.5C 453.007,47.366 455.007,50.366 455.5,54.5C 447.5,60.8333 439.5,67.1667 431.5,73.5C 419.115,72.987 407.448,69.8204 396.5,64C 395.619,63.2917 394.953,62.4584 394.5,61.5C 392.078,60.9148 390.411,59.4148 389.5,57C 385.091,56.1954 381.091,57.1954 377.5,60C 373.967,64.7802 369.3,68.1135 363.5,70C 355.851,71.9958 348.184,73.8292 340.5,75.5C 339.626,74.4749 338.459,73.8082 337,73.5C 333.707,74.5565 330.874,76.2231 328.5,78.5C 318.665,81.9974 312.332,88.664 309.5,98.5C 309.565,98.0618 309.399,97.7284 309,97.5C 307.871,99.1412 306.371,100.141 304.5,100.5C 304.5,98.5 304.5,96.5 304.5,94.5C 305.833,94.1667 305.833,93.8333 304.5,93.5C 301.491,65.7184 310.491,42.8851 331.5,25C 339.331,19.2508 347.997,15.4175 357.5,13.5C 353.806,17.8604 349.806,21.8604 345.5,25.5C 353.836,21.3347 361.836,16.668 369.5,11.5C 385.281,9.40883 400.281,11.7422 414.5,18.5 Z M 400.5,57.5 C 400.027,58.9063 399.027,59.573 397.5,59.5C 397.973,58.0937 398.973,57.427 400.5,57.5 Z"/></g>
<g><path style="opacity:0.962" fill="#65524e" d="M 113.5,13.5 C 118.179,13.3342 122.845,13.5008 127.5,14C 128.737,14.2321 129.737,14.7321 130.5,15.5C 120.5,23.8333 110.5,32.1667 100.5,40.5C 114.168,33.3354 127.501,25.6688 140.5,17.5C 148.694,19.5972 156.028,23.2638 162.5,28.5C 151.167,36.8333 139.833,45.1667 128.5,53.5C 141.15,46.5282 153.816,39.5282 166.5,32.5C 167.117,32.3893 167.617,32.056 168,31.5C 170.333,33.5 172.667,35.5 175,37.5C 175.464,38.0944 175.631,38.7611 175.5,39.5C 171.148,41.6735 167.148,44.3401 163.5,47.5C 168.09,45.5606 172.423,43.2272 176.5,40.5C 177.496,40.4142 178.329,40.7476 179,41.5C 180.75,43.7343 182.25,46.0676 183.5,48.5C 182.5,48.8333 181.833,49.5 181.5,50.5C 182.492,50.6716 183.158,50.3382 183.5,49.5C 186.712,51.5624 188.712,54.5624 189.5,58.5C 190.892,60.2726 192.059,62.2726 193,64.5C 194.888,68.996 196.055,73.6626 196.5,78.5C 193.129,80.8458 189.796,83.1792 186.5,85.5C 182.274,80.7884 177.274,76.9551 171.5,74C 152.101,68.563 133.434,70.563 115.5,80C 102.159,81.1299 88.8255,82.2966 75.5,83.5C 74.1667,82.8333 72.8333,82.1667 71.5,81.5C 71.1667,81.5 70.8333,81.5 70.5,81.5C 69.8333,81.5 69.5,81.8333 69.5,82.5C 69.1667,82.5 68.8333,82.5 68.5,82.5C 67.8333,82.5 67.5,82.8333 67.5,83.5C 66.5084,83.3284 65.8417,83.6618 65.5,84.5C 64.8333,84.5 64.5,84.8333 64.5,85.5C 64.1667,85.5 63.8333,85.5 63.5,85.5C 62.8333,85.5 62.5,85.8333 62.5,86.5C 62.1667,86.5 61.8333,86.5 61.5,86.5C 60.8333,86.5 60.5,86.8333 60.5,87.5C 59.5084,87.3284 58.8417,87.6618 58.5,88.5C 57.2905,88.9321 56.2905,89.5987 55.5,90.5C 54.5084,90.3284 53.8417,90.6618 53.5,91.5C 52.1667,91.8333 52.1667,92.1667 53.5,92.5C 53.1667,93.5 52.5,94.1667 51.5,94.5C 51.631,93.7611 51.4643,93.0944 51,92.5C 47.5063,95.1626 43.673,97.1626 39.5,98.5C 39.3367,91.4527 39.8367,84.4527 41,77.5C 41.2359,75.1887 42.0693,73.1887 43.5,71.5C 51.5391,65.1557 59.5391,58.8224 67.5,52.5C 59.9306,56.0699 52.5972,60.0699 45.5,64.5C 53.7014,38.6176 70.7014,22.6176 96.5,16.5C 90.4737,22.1945 84.4737,27.8612 78.5,33.5C 89.9978,27.9214 100.998,21.588 111.5,14.5C 112.492,14.6716 113.158,14.3382 113.5,13.5 Z M 100.5,40.5 C 100.027,41.9063 99.0269,42.573 97.5,42.5C 97.9731,41.0937 98.9731,40.427 100.5,40.5 Z M 163.5,47.5 C 163.027,48.9063 162.027,49.573 160.5,49.5C 160.973,48.0937 161.973,47.427 163.5,47.5 Z M 181.5,50.5 C 181.027,51.9063 180.027,52.573 178.5,52.5C 178.973,51.0937 179.973,50.427 181.5,50.5 Z"/></g>
<g><path style="opacity:0.958" fill="#5f677c" d="M 457.5,59.5 C 459.284,60.5738 460.451,62.2404 461,64.5C 462.89,70.0095 463.723,75.6762 463.5,81.5C 462.5,81.8333 461.833,82.5 461.5,83.5C 462.492,83.6716 463.158,83.3382 463.5,82.5C 464.439,88.3352 464.439,94.3352 463.5,100.5C 461.533,100.739 459.699,100.406 458,99.5C 457.25,93.1696 454.75,87.6696 450.5,83C 444.48,78.9544 438.147,75.7877 431.5,73.5C 440.415,69.3743 449.082,64.7077 457.5,59.5 Z"/></g>
<g><path style="opacity:0.979" fill="#fdb291" d="M 384.5,68.5 C 381.06,70.0549 377.727,71.8882 374.5,74C 373.304,74.6543 373.304,75.1543 374.5,75.5C 378.401,73.3919 382.067,71.0585 385.5,68.5C 388.352,70.0909 391.352,71.4242 394.5,72.5C 394.586,73.4959 394.252,74.3292 393.5,75C 386.5,80 379.5,85 372.5,90C 371.304,90.6543 371.304,91.1543 372.5,91.5C 379.5,87.3333 386.5,83.1667 393.5,79C 396.309,77.2589 399.309,76.0922 402.5,75.5C 405.903,75.8511 409.237,76.5178 412.5,77.5C 401.686,86.1364 390.686,94.6364 379.5,103C 378.304,103.654 378.304,104.154 379.5,104.5C 393.894,96.6441 407.894,88.3108 421.5,79.5C 425.419,80.3873 429.085,81.7207 432.5,83.5C 422.588,91.4681 412.255,98.9681 401.5,106C 402.908,106.315 404.241,105.982 405.5,105C 416.031,98.569 426.697,92.4023 437.5,86.5C 442.805,90.4428 445.471,95.7761 445.5,102.5C 438.951,106.934 432.617,111.601 426.5,116.5C 425.833,116.5 425.5,116.833 425.5,117.5C 424.167,117.833 424.167,118.167 425.5,118.5C 433.836,114.335 441.836,109.668 449.5,104.5C 453.323,105.246 456.323,107.246 458.5,110.5C 457.272,111.306 456.272,112.306 455.5,113.5C 446.284,119.935 437.284,126.601 428.5,133.5C 437.14,128.846 445.806,124.179 454.5,119.5C 456.969,118.431 459.302,117.098 461.5,115.5C 462.907,120.144 462.573,124.811 460.5,129.5C 455.779,132.279 450.946,134.946 446,137.5C 445.244,148.808 442.41,159.475 437.5,169.5C 436.167,169.833 436.167,170.167 437.5,170.5C 433.262,179.731 426.929,187.064 418.5,192.5C 417.508,192.328 416.842,192.662 416.5,193.5C 415.833,193.5 415.5,193.833 415.5,194.5C 414.508,194.328 413.842,194.662 413.5,195.5C 409.483,195.594 406.15,197.094 403.5,200C 391.853,203.255 380.187,203.255 368.5,200C 365.524,199.295 362.858,198.129 360.5,196.5C 362.602,196.43 364.602,195.93 366.5,195C 370.751,192.055 374.751,188.888 378.5,185.5C 372.036,188.566 365.702,191.899 359.5,195.5C 352.163,193.495 346.163,189.495 341.5,183.5C 351.804,176.521 361.804,169.188 371.5,161.5C 360.237,167.442 349.237,173.775 338.5,180.5C 336.45,178.763 334.617,176.763 333,174.5C 332.517,173.552 332.351,172.552 332.5,171.5C 339.205,166.488 345.872,161.488 352.5,156.5C 344.931,160.07 337.597,164.07 330.5,168.5C 327.093,163.003 324.759,157.003 323.5,150.5C 328.052,147.397 332.386,144.064 336.5,140.5C 332.034,142.566 327.701,144.9 323.5,147.5C 322.673,143.561 322.006,139.561 321.5,135.5C 327.087,132.21 332.087,128.21 336.5,123.5C 330.17,126.33 324.17,129.663 318.5,133.5C 313.495,133.488 310.162,131.155 308.5,126.5C 311.81,124.518 314.81,122.185 317.5,119.5C 313.883,120.642 310.55,122.308 307.5,124.5C 305.073,122.492 304.073,119.826 304.5,116.5C 304.254,112.662 305.42,109.328 308,106.5C 311.872,104.255 316.038,102.755 320.5,102C 321.165,90.1433 327.165,82.6433 338.5,79.5C 339.376,79.3691 340.043,79.7025 340.5,80.5C 339.019,81.4803 337.685,82.647 336.5,84C 340.86,82.6505 344.86,80.4839 348.5,77.5C 358.001,75.2904 367.334,72.4571 376.5,69C 378.241,67.3804 380.075,65.8804 382,64.5C 383.481,65.4709 384.315,66.8042 384.5,68.5 Z M 320.5,117.5 C 320.027,118.906 319.027,119.573 317.5,119.5C 317.973,118.094 318.973,117.427 320.5,117.5 Z M 339.5,121.5 C 339.027,122.906 338.027,123.573 336.5,123.5C 336.973,122.094 337.973,121.427 339.5,121.5 Z M 355.5,154.5 C 355.027,155.906 354.027,156.573 352.5,156.5C 352.973,155.094 353.973,154.427 355.5,154.5 Z M 381.5,183.5 C 381.027,184.906 380.027,185.573 378.5,185.5C 378.973,184.094 379.973,183.427 381.5,183.5 Z M 397.5,189.5 C 394.496,193.496 390.496,195.83 385.5,196.5C 389.164,193.665 393.164,191.332 397.5,189.5 Z M 383.5,197.5 C 383.027,198.906 382.027,199.573 380.5,199.5C 380.973,198.094 381.973,197.427 383.5,197.5 Z"/></g>
<g><path style="opacity:1" fill="#907f85" d="M 384.5,68.5 C 384.833,68.5 385.167,68.5 385.5,68.5C 382.067,71.0585 378.401,73.3919 374.5,75.5C 373.304,75.1543 373.304,74.6543 374.5,74C 377.727,71.8882 381.06,70.0549 384.5,68.5 Z"/></g>
<g><path style="opacity:1" fill="#71707f" d="M 394.5,72.5 C 397.163,73.7521 399.83,74.7521 402.5,75.5C 399.309,76.0922 396.309,77.2589 393.5,79C 386.5,83.1667 379.5,87.3333 372.5,91.5C 371.304,91.1543 371.304,90.6543 372.5,90C 379.5,85 386.5,80 393.5,75C 394.252,74.3292 394.586,73.4959 394.5,72.5 Z"/></g>
<g><path style="opacity:1" fill="#e3a38a" d="M 340.5,75.5 C 336.416,76.1876 332.416,77.1876 328.5,78.5C 330.874,76.2231 333.707,74.5565 337,73.5C 338.459,73.8082 339.626,74.4749 340.5,75.5 Z"/></g>
<g><path style="opacity:1" fill="#68524d" d="M 138.5,77.5 C 144.167,76.1667 149.833,76.1667 155.5,77.5C 139.135,87.8356 122.468,97.8356 105.5,107.5C 104.304,107.154 104.304,106.654 105.5,106C 117.5,96.6667 129.5,87.3333 141.5,78C 140.552,77.5172 139.552,77.3505 138.5,77.5 Z"/></g>
<g><path style="opacity:0.998" fill="#9c5942" d="M 138.5,77.5 C 139.552,77.3505 140.552,77.5172 141.5,78C 129.5,87.3333 117.5,96.6667 105.5,106C 104.304,106.654 104.304,107.154 105.5,107.5C 122.468,97.8356 139.135,87.8356 155.5,77.5C 159.42,78.1266 162.753,79.7933 165.5,82.5C 152.684,92.4699 139.684,102.303 126.5,112C 127.908,112.315 129.241,111.982 130.5,111C 143.696,102.903 157.03,95.0696 170.5,87.5C 173.45,89.7275 175.116,92.7275 175.5,96.5C 167.358,101.407 159.358,106.574 151.5,112C 160.199,107.815 168.866,103.315 177.5,98.5C 179.31,101.145 180.31,104.145 180.5,107.5C 179.833,107.5 179.5,107.833 179.5,108.5C 178.833,108.5 178.5,108.833 178.5,109.5C 172.718,112.775 167.052,116.275 161.5,120C 160.304,120.654 160.304,121.154 161.5,121.5C 168.194,117.489 174.861,113.489 181.5,109.5C 182.391,110.261 183.058,111.261 183.5,112.5C 185.884,113.011 187.884,114.011 189.5,115.5C 182.985,120.259 176.652,125.259 170.5,130.5C 169.508,130.328 168.842,130.662 168.5,131.5C 167.833,131.5 167.5,131.833 167.5,132.5C 166.167,132.833 166.167,133.167 167.5,133.5C 174.996,130.255 181.996,126.255 188.5,121.5C 189.436,120.026 190.77,119.026 192.5,118.5C 194.888,119.219 196.388,120.885 197,123.5C 197.495,125.473 197.662,127.473 197.5,129.5C 195.596,129.738 194.262,130.738 193.5,132.5C 192.508,132.328 191.842,132.662 191.5,133.5C 190.833,133.5 190.5,133.833 190.5,134.5C 189.833,134.833 189.167,135.167 188.5,135.5C 187.833,135.5 187.5,135.833 187.5,136.5C 177.512,142.832 167.845,149.665 158.5,157C 165.64,153.757 172.64,149.923 179.5,145.5C 180.107,145.624 180.44,145.957 180.5,146.5C 173.55,170.273 159.883,189.106 139.5,203C 129.913,207.202 119.913,208.535 109.5,207C 107.509,206.626 105.842,205.793 104.5,204.5C 113.072,197.202 122.072,190.368 131.5,184C 120.625,189.775 109.625,195.608 98.5,201.5C 95.4669,199.984 92.8003,197.984 90.5,195.5C 105.666,185.745 120.333,175.245 134.5,164C 118.131,172.357 102.131,181.523 86.5,191.5C 84.1667,189.833 82.1667,187.833 80.5,185.5C 80.4142,184.504 80.7476,183.671 81.5,183C 92.6771,175.245 103.677,167.245 114.5,159C 101.631,165.106 89.2981,172.273 77.5,180.5C 75.4776,178.469 73.8109,176.135 72.5,173.5C 78.6522,167.87 85.3188,162.703 92.5,158C 84.8886,161.065 77.5553,164.899 70.5,169.5C 68.347,167.206 66.6803,164.54 65.5,161.5C 72.6197,156.887 79.6197,152.054 86.5,147C 78.8886,150.065 71.5553,153.899 64.5,158.5C 62.7962,155.744 61.4629,152.744 60.5,149.5C 73.27,140.577 85.9367,131.41 98.5,122C 84.6657,128.923 70.999,136.423 57.5,144.5C 54.7012,142.786 51.7012,141.453 48.5,140.5C 59.9801,131.197 71.6468,122.03 83.5,113C 69.8,119.688 56.4667,127.188 43.5,135.5C 42.0337,134.653 41.2004,133.32 41,131.5C 40.1743,126.411 40.5076,121.411 42,116.5C 43.214,114.951 44.714,113.785 46.5,113C 49.6272,112.608 52.6272,111.775 55.5,110.5C 56.5606,99.8523 61.894,92.3523 71.5,88C 73.1341,87.5065 74.8008,87.3398 76.5,87.5C 72.767,92.7405 68.4337,97.5738 63.5,102C 63.8333,102.167 64.1667,102.333 64.5,102.5C 73.135,97.8356 81.4683,92.8356 89.5,87.5C 106.132,85.4404 122.466,82.107 138.5,77.5 Z"/></g>
<g><path style="opacity:1" fill="#696c7f" d="M 412.5,77.5 C 415.583,77.916 418.583,78.5826 421.5,79.5C 407.894,88.3108 393.894,96.6441 379.5,104.5C 378.304,104.154 378.304,103.654 379.5,103C 390.686,94.6364 401.686,86.1364 412.5,77.5 Z"/></g>
<g><path style="opacity:1" fill="#905440" d="M 70.5,81.5 C 70.8333,81.5 71.1667,81.5 71.5,81.5C 72.8333,82.1667 74.1667,82.8333 75.5,83.5C 70.9598,84.9488 66.2932,86.2821 61.5,87.5C 61.5,87.1667 61.5,86.8333 61.5,86.5C 61.8333,86.5 62.1667,86.5 62.5,86.5C 63.1667,86.5 63.5,86.1667 63.5,85.5C 63.8333,85.5 64.1667,85.5 64.5,85.5C 65.1667,85.5 65.5,85.1667 65.5,84.5C 66.4916,84.6716 67.1583,84.3382 67.5,83.5C 68.1667,83.5 68.5,83.1667 68.5,82.5C 68.8333,82.5 69.1667,82.5 69.5,82.5C 70.1667,82.5 70.5,82.1667 70.5,81.5 Z"/></g>
<g><path style="opacity:1" fill="#83767e" d="M 348.5,77.5 C 344.86,80.4839 340.86,82.6505 336.5,84C 337.685,82.647 339.019,81.4803 340.5,80.5C 340.043,79.7025 339.376,79.3691 338.5,79.5C 341.544,77.9886 344.878,77.322 348.5,77.5 Z"/></g>
<g><path style="opacity:1" fill="#69534e" d="M 165.5,82.5 C 167.833,83.5 169.5,85.1667 170.5,87.5C 157.03,95.0696 143.696,102.903 130.5,111C 129.241,111.982 127.908,112.315 126.5,112C 139.684,102.303 152.684,92.4699 165.5,82.5 Z"/></g>
<g><path style="opacity:0.93" fill="#63514c" d="M 197.5,83.5 C 198.483,87.2984 198.817,91.2984 198.5,95.5C 196.147,96.3403 194.147,97.6736 192.5,99.5C 190.358,96.1996 189.025,92.533 188.5,88.5C 191.661,87.0869 194.661,85.4203 197.5,83.5 Z"/></g>
<g><path style="opacity:1" fill="#6f6f80" d="M 432.5,83.5 C 434.674,83.7497 436.341,84.7497 437.5,86.5C 426.697,92.4023 416.031,98.569 405.5,105C 404.241,105.982 402.908,106.315 401.5,106C 412.255,98.9681 422.588,91.4681 432.5,83.5 Z"/></g>
<g><path style="opacity:0.961" fill="#67524d" d="M 76.5,87.5 C 80.8333,87.5 85.1667,87.5 89.5,87.5C 81.4683,92.8356 73.135,97.8356 64.5,102.5C 64.1667,102.333 63.8333,102.167 63.5,102C 68.4337,97.5738 72.767,92.7405 76.5,87.5 Z"/></g>
<g><path style="opacity:0.865" fill="#6b534d" d="M 175.5,96.5 C 176.833,96.5 177.5,97.1667 177.5,98.5C 168.866,103.315 160.199,107.815 151.5,112C 159.358,106.574 167.358,101.407 175.5,96.5 Z"/></g>
<g><path style="opacity:0.955" fill="#63504d" d="M 198.5,98.5 C 198.5,102.167 198.5,105.833 198.5,109.5C 193.477,108.459 191.81,105.459 193.5,100.5C 195.05,99.5592 196.716,98.8925 198.5,98.5 Z"/></g>
<g><path style="opacity:1" fill="#f1ab8d" d="M 309.5,98.5 C 309.5,99.5 309.5,100.5 309.5,101.5C 308.07,101.421 306.736,101.754 305.5,102.5C 304.702,102.043 304.369,101.376 304.5,100.5C 306.371,100.141 307.871,99.1412 309,97.5C 309.399,97.7284 309.565,98.0618 309.5,98.5 Z"/></g>
<g><path style="opacity:0.93" fill="#64504c" d="M 47.5,99.5 C 46.2345,102.93 45.2345,106.43 44.5,110C 43.1279,110.402 41.7946,110.902 40.5,111.5C 39.5258,109.257 39.1924,106.924 39.5,104.5C 41.8584,102.322 44.5251,100.655 47.5,99.5 Z"/></g>
<g><path style="opacity:0.984" fill="#696c7e" d="M 445.5,102.5 C 446.833,103.167 448.167,103.833 449.5,104.5C 441.836,109.668 433.836,114.335 425.5,118.5C 425.5,118.167 425.5,117.833 425.5,117.5C 426.167,117.5 426.5,117.167 426.5,116.5C 432.617,111.601 438.951,106.934 445.5,102.5 Z"/></g>
<g><path style="opacity:0.914" fill="#64697d" d="M 458.5,110.5 C 460.25,111.659 461.25,113.326 461.5,115.5C 459.302,117.098 456.969,118.431 454.5,119.5C 454.517,117.435 454.85,115.435 455.5,113.5C 456.272,112.306 457.272,111.306 458.5,110.5 Z"/></g>
<g><path style="opacity:0.878" fill="#6e544d" d="M 180.5,107.5 C 181.338,107.842 181.672,108.508 181.5,109.5C 174.861,113.489 168.194,117.489 161.5,121.5C 160.304,121.154 160.304,120.654 161.5,120C 167.052,116.275 172.718,112.775 178.5,109.5C 179.167,109.5 179.5,109.167 179.5,108.5C 180.167,108.5 180.5,108.167 180.5,107.5 Z"/></g>
<g><path style="opacity:0.989" fill="#69534d" d="M 48.5,140.5 C 46.5,139.167 44.8333,137.5 43.5,135.5C 56.4667,127.188 69.8,119.688 83.5,113C 71.6468,122.03 59.9801,131.197 48.5,140.5 Z"/></g>
<g><path style="opacity:0.557" fill="#6f544d" d="M 188.5,121.5 C 181.996,126.255 174.996,130.255 167.5,133.5C 167.5,133.167 167.5,132.833 167.5,132.5C 168.167,132.5 168.5,132.167 168.5,131.5C 169.492,131.672 170.158,131.338 170.5,130.5C 176.5,127.5 182.5,124.5 188.5,121.5 Z"/></g>
<g><path style="opacity:1" fill="#6a534d" d="M 60.5,149.5 C 59.2632,148.035 58.2632,146.368 57.5,144.5C 70.999,136.423 84.6657,128.923 98.5,122C 85.9367,131.41 73.27,140.577 60.5,149.5 Z"/></g>
<g><path style="opacity:0.928" fill="#6f534c" d="M 197.5,130.5 C 196.684,138.814 192.017,143.314 183.5,144C 182.309,144.698 181.309,145.531 180.5,146.5C 180.44,145.957 180.107,145.624 179.5,145.5C 172.64,149.923 165.64,153.757 158.5,157C 167.845,149.665 177.512,142.832 187.5,136.5C 188.167,136.5 188.5,136.167 188.5,135.5C 189.167,135.167 189.833,134.833 190.5,134.5C 191.167,134.5 191.5,134.167 191.5,133.5C 192.492,133.672 193.158,133.338 193.5,132.5C 195.062,132.267 196.395,131.6 197.5,130.5 Z"/></g>
<g><path style="opacity:0.687" fill="#eaa588" d="M 470.5,129.5 C 469.972,130.721 469.305,131.887 468.5,133C 464.7,134.979 461.366,137.479 458.5,140.5C 457.218,139.292 457.218,137.958 458.5,136.5C 462.883,134.648 466.883,132.315 470.5,129.5 Z"/></g>
<g><path style="opacity:0.949" fill="#6d534c" d="M 198.5,154.5 C 194.228,156.774 190.228,159.441 186.5,162.5C 185.957,162.44 185.624,162.107 185.5,161.5C 187.782,155.77 190.449,150.27 193.5,145C 194.872,144.598 196.205,144.098 197.5,143.5C 198.489,147.107 198.823,150.774 198.5,154.5 Z"/></g>
<g><path style="opacity:0.936" fill="#63514d" d="M 50.5,162.5 C 45.1667,165.5 39.8333,168.5 34.5,171.5C 35.4932,166.687 36.9932,162.02 39,157.5C 39.3333,153.5 39.6667,149.5 40,145.5C 41.6667,146.167 43.3333,146.833 45,147.5C 47.4203,152.33 49.2536,157.33 50.5,162.5 Z"/></g>
<g><path style="opacity:1" fill="#6c534d" d="M 65.5,161.5 C 64.8902,160.609 64.5569,159.609 64.5,158.5C 71.5553,153.899 78.8886,150.065 86.5,147C 79.6197,152.054 72.6197,156.887 65.5,161.5 Z"/></g>
<g><path style="opacity:0.974" fill="#65524e" d="M 199.5,158.5 C 200.945,161.937 201.945,165.603 202.5,169.5C 194.461,175.844 186.461,182.178 178.5,188.5C 187.003,184.083 195.336,179.417 203.5,174.5C 206.057,179.975 208.723,185.475 211.5,191C 204.354,195.745 197.354,200.745 190.5,206C 185.694,210.626 181.361,215.626 177.5,221C 168.685,219.122 159.685,217.956 150.5,217.5C 150.665,214.15 150.498,210.817 150,207.5C 148.601,206.773 147.101,206.273 145.5,206C 160.43,195.238 173.097,182.404 183.5,167.5C 188.833,164.5 194.167,161.5 199.5,158.5 Z M 178.5,188.5 C 178.027,189.906 177.027,190.573 175.5,190.5C 175.973,189.094 176.973,188.427 178.5,188.5 Z"/></g>
<g><path style="opacity:1" fill="#6a524c" d="M 72.5,173.5 C 71.3263,172.486 70.6596,171.153 70.5,169.5C 77.5553,164.899 84.8886,161.065 92.5,158C 85.3188,162.703 78.6522,167.87 72.5,173.5 Z"/></g>
<g><path style="opacity:0.939" fill="#65524e" d="M 51.5,164.5 C 56.663,171.487 61.3297,178.82 65.5,186.5C 49.5705,195.108 33.9038,204.108 18.5,213.5C 17.8826,213.389 17.3826,213.056 17,212.5C 16.0805,208.269 16.5805,204.269 18.5,200.5C 19.1667,200.5 19.5,200.167 19.5,199.5C 25.0244,196.908 30.0244,193.575 34.5,189.5C 29.8333,191.833 25.1667,194.167 20.5,196.5C 22.8068,189.882 26.1402,183.882 30.5,178.5C 31.1667,178.5 31.5,178.167 31.5,177.5C 38.1667,173.167 44.8333,168.833 51.5,164.5 Z M 39.5,186.5 C 39.0269,187.906 38.0269,188.573 36.5,188.5C 36.9731,187.094 37.9731,186.427 39.5,186.5 Z"/></g>
<g><path style="opacity:0.997" fill="#6a534d" d="M 80.5,185.5 C 79.1103,184.101 78.1103,182.434 77.5,180.5C 89.2981,172.273 101.631,165.106 114.5,159C 103.677,167.245 92.6771,175.245 81.5,183C 80.7476,183.671 80.4142,184.504 80.5,185.5 Z"/></g>
<g><path style="opacity:1" fill="#69534e" d="M 90.5,195.5 C 88.8333,194.5 87.5,193.167 86.5,191.5C 102.131,181.523 118.131,172.357 134.5,164C 120.333,175.245 105.666,185.745 90.5,195.5 Z"/></g>
<g><path style="opacity:0.952" fill="#65524e" d="M 65.5,186.5 C 72.8617,194.353 80.8617,201.519 89.5,208C 87.9072,210.936 86.9072,214.102 86.5,217.5C 84.847,217.66 83.5137,218.326 82.5,219.5C 75.9399,219.911 69.6066,221.245 63.5,223.5C 59.4098,222.348 55.7432,223.348 52.5,226.5C 50.7103,227.997 48.5437,228.664 46,228.5C 41.5975,228.423 37.7642,227.09 34.5,224.5C 43.4654,218.857 52.132,212.857 60.5,206.5C 50.1675,211.664 40.1675,217.331 30.5,223.5C 26.827,222 23.4937,220 20.5,217.5C 35.7982,207.524 50.7982,197.191 65.5,186.5 Z"/></g>
<g><path style="opacity:0.984" fill="#5f687d" d="M 264.5,190.5 C 254.521,197.817 244.854,205.483 235.5,213.5C 248.67,206.416 261.67,199.083 274.5,191.5C 280.91,193.359 287.243,195.526 293.5,198C 298.094,200.118 302.094,202.952 305.5,206.5C 309.167,208.167 311.833,210.833 313.5,214.5C 300.863,223.145 288.529,232.145 276.5,241.5C 275.508,241.328 274.842,241.662 274.5,242.5C 273.833,242.5 273.5,242.833 273.5,243.5C 272.833,243.5 272.5,243.833 272.5,244.5C 271.448,244.649 270.448,244.483 269.5,244C 265.951,240.943 262.284,238.109 258.5,235.5C 256.058,236.036 253.725,236.869 251.5,238C 248.384,241.718 244.718,244.718 240.5,247C 231.409,250.439 222.075,252.939 212.5,254.5C 211.626,253.475 210.459,252.808 209,252.5C 206.007,254.014 203.174,255.681 200.5,257.5C 190.852,261.148 184.185,267.815 180.5,277.5C 178.95,278.441 177.284,279.107 175.5,279.5C 175.334,270.827 175.5,262.16 176,253.5C 176.542,250.708 177.376,248.042 178.5,245.5C 180.833,243.5 183.167,241.5 185.5,239.5C 188.803,236.842 192.136,234.175 195.5,231.5C 195.333,231.167 195.167,230.833 195,230.5C 191.853,232.65 188.687,234.65 185.5,236.5C 184.041,236.433 182.708,236.766 181.5,237.5C 190.716,215.951 206.382,201.285 228.5,193.5C 225.122,196.876 222.122,200.543 219.5,204.5C 228.326,200.59 236.659,195.923 244.5,190.5C 251.254,187.847 257.921,187.847 264.5,190.5 Z"/></g>
<g><path style="opacity:1" fill="#805041" d="M 104.5,204.5 C 102.181,204.008 100.181,203.008 98.5,201.5C 109.625,195.608 120.625,189.775 131.5,184C 122.072,190.368 113.072,197.202 104.5,204.5 Z"/></g>
<g><path style="opacity:0.995" fill="#f69f7d" d="M 365.5,206.5 C 365.957,208.557 366.957,208.557 368.5,206.5C 380.246,206.897 391.913,206.23 403.5,204.5C 404.262,214.971 401.262,224.138 394.5,232C 386.852,235.099 379.519,234.433 372.5,230C 376.523,226.347 376.189,225.847 371.5,228.5C 365.336,222.006 363.002,214.34 364.5,205.5C 365.107,205.624 365.44,205.957 365.5,206.5 Z M 365.5,206.5 C 366.5,206.5 367.5,206.5 368.5,206.5C 366.957,208.557 365.957,208.557 365.5,206.5 Z"/></g>
<g><path style="opacity:1" fill="#894d3b" d="M 138.5,220.5 C 136.734,222.771 134.734,224.937 132.5,227C 134.787,227.028 136.787,226.195 138.5,224.5C 137.602,229.535 135.935,234.201 133.5,238.5C 133.565,238.062 133.399,237.728 133,237.5C 129.186,239.984 125.353,242.318 121.5,244.5C 116.588,244.206 112.255,242.539 108.5,239.5C 109.239,239.631 109.906,239.464 110.5,239C 114.601,234.143 118.934,229.476 123.5,225C 117.29,228.105 110.957,231.272 104.5,234.5C 99.8398,227.945 98.3398,220.611 100,212.5C 113.06,216.967 125.727,215.967 138,209.5C 138.499,213.152 138.665,216.818 138.5,220.5 Z"/></g>
<g><path style="opacity:0.814" fill="#178dc7" d="M 334.5,211.5 C 333.228,212.434 331.728,213.101 330,213.5C 328.97,213.164 328.47,212.497 328.5,211.5C 330.612,210.725 332.612,210.725 334.5,211.5 Z"/></g>
<g><path style="opacity:0.981" fill="#159bdb" d="M 392.5,241.5 C 392.833,242.833 393.167,242.833 393.5,241.5C 394.492,241.672 395.158,241.338 395.5,240.5C 399.836,238.668 403.836,236.335 407.5,233.5C 416.501,229.002 425.168,224.002 433.5,218.5C 441.964,219.748 449.297,223.081 455.5,228.5C 444.443,235.689 433.776,243.355 423.5,251.5C 435.836,245.001 447.836,238.001 459.5,230.5C 462.516,231.343 465.183,232.843 467.5,235C 468.337,236.011 468.67,237.178 468.5,238.5C 471.959,239.436 474.793,241.436 477,244.5C 480.261,247.578 482.428,251.244 483.5,255.5C 475.863,260.478 468.53,265.812 461.5,271.5C 469.483,267.195 477.483,262.862 485.5,258.5C 488.71,260.918 490.376,264.252 490.5,268.5C 485.473,271.345 480.806,274.679 476.5,278.5C 481.632,276.1 486.632,273.434 491.5,270.5C 492.117,270.611 492.617,270.944 493,271.5C 499.017,290.105 498.85,308.605 492.5,327C 488.646,327.354 484.812,327.854 481,328.5C 479.93,328.472 479.097,328.139 478.5,327.5C 480.735,324.709 482.735,321.709 484.5,318.5C 478.17,321.33 472.17,324.663 466.5,328.5C 465.508,328.328 464.842,328.662 464.5,329.5C 439.925,330.177 415.258,330.177 390.5,329.5C 397.167,324.167 403.833,318.833 410.5,313.5C 401.499,317.998 392.832,322.998 384.5,328.5C 377.358,329.738 370.358,329.738 363.5,328.5C 373.47,321.855 383.137,314.855 392.5,307.5C 379.905,314.108 367.572,321.108 355.5,328.5C 348.704,329.774 342.037,329.774 335.5,328.5C 336.5,328.167 337.167,327.5 337.5,326.5C 335.973,326.427 334.973,327.094 334.5,328.5C 332.5,328.833 330.5,329.167 328.5,329.5C 328.892,325.418 329.558,321.418 330.5,317.5C 331.833,317.167 331.833,316.833 330.5,316.5C 330.973,315.094 331.973,314.427 333.5,314.5C 333.842,313.662 334.508,313.328 335.5,313.5C 342.331,307.663 346.664,300.33 348.5,291.5C 350.909,290.299 352.909,288.633 354.5,286.5C 352.517,287.471 350.517,288.471 348.5,289.5C 349.833,280.5 349.833,271.5 348.5,262.5C 345.926,248.415 341.593,234.415 335.5,220.5C 336.167,220.5 336.5,220.167 336.5,219.5C 338.153,219.34 339.486,218.674 340.5,217.5C 344.434,216.64 348.434,216.307 352.5,216.5C 353.593,230.766 361.259,239.266 375.5,242C 381.195,242.626 386.862,242.459 392.5,241.5 Z M 392.5,307.5 C 383.137,314.855 373.47,321.855 363.5,328.5C 360.833,328.5 358.167,328.5 355.5,328.5C 367.572,321.108 379.905,314.108 392.5,307.5 Z M 413.5,311.5 C 413.027,312.906 412.027,313.573 410.5,313.5C 410.973,312.094 411.973,311.427 413.5,311.5 Z M 410.5,313.5 C 403.833,318.833 397.167,324.167 390.5,329.5C 388.5,329.167 386.5,328.833 384.5,328.5C 392.832,322.998 401.499,317.998 410.5,313.5 Z M 484.5,318.5 C 482.735,321.709 480.735,324.709 478.5,327.5C 474.6,328.43 470.6,328.763 466.5,328.5C 472.17,324.663 478.17,321.33 484.5,318.5 Z M 337.5,326.5 C 337.167,327.5 336.5,328.167 335.5,328.5C 335.167,328.5 334.833,328.5 334.5,328.5C 334.973,327.094 335.973,326.427 337.5,326.5 Z"/></g>
<g><path style="opacity:0.927" fill="#189ad5" d="M 424.5,217.5 C 420.5,220.5 416.5,223.5 412.5,226.5C 413.374,223.211 414.041,219.877 414.5,216.5C 418.042,216.187 421.375,216.521 424.5,217.5 Z"/></g>
<g><path style="opacity:1" fill="#b94040" d="M 86.5,217.5 C 87.0431,217.56 87.3764,217.893 87.5,218.5C 85.9547,219.452 84.288,219.785 82.5,219.5C 83.5137,218.326 84.847,217.66 86.5,217.5 Z"/></g>
<g><path style="opacity:0.964" fill="#5f687e" d="M 316.5,218.5 C 317.496,218.414 318.329,218.748 319,219.5C 325.125,228.417 329.625,238.083 332.5,248.5C 327.281,251.046 322.948,254.713 319.5,259.5C 308.236,255.011 296.569,251.844 284.5,250C 281.5,249 278.5,248 275.5,247C 274.058,246.623 273.058,245.79 272.5,244.5C 273.167,244.5 273.5,244.167 273.5,243.5C 274.167,243.5 274.5,243.167 274.5,242.5C 275.492,242.672 276.158,242.338 276.5,241.5C 290.168,234.335 303.501,226.669 316.5,218.5 Z M 317.5,231.5 C 318.756,231.539 319.756,231.039 320.5,230C 319.002,229.415 318.002,229.915 317.5,231.5 Z"/></g>
<g><path style="opacity:0.755" fill="#188ec7" d="M 336.5,217.5 C 336.5,218.167 336.5,218.833 336.5,219.5C 335.833,219.5 335.5,219.833 335.5,220.5C 333.952,220.179 333.285,219.179 333.5,217.5C 334.5,217.5 335.5,217.5 336.5,217.5 Z"/></g>
<g><path style="opacity:1" fill="#d14442" d="M 138.5,220.5 C 138.5,221.833 138.5,223.167 138.5,224.5C 136.787,226.195 134.787,227.028 132.5,227C 134.734,224.937 136.734,222.771 138.5,220.5 Z"/></g>
<g><path style="opacity:1" fill="#be4140" d="M 63.5,223.5 C 59.7653,224.301 56.0986,225.301 52.5,226.5C 55.7432,223.348 59.4098,222.348 63.5,223.5 Z"/></g>
<g><path style="opacity:0.979" fill="#dc4343" d="M 87.5,227.5 C 83.0197,230.386 79.0197,233.719 75.5,237.5C 74.1667,237.833 74.1667,238.167 75.5,238.5C 79.8362,236.668 83.8362,234.335 87.5,231.5C 91.6318,240.593 98.6318,246.426 108.5,249C 114.845,249.444 121.178,249.277 127.5,248.5C 127.167,249.167 126.833,249.833 126.5,250.5C 128.027,250.573 129.027,249.906 129.5,248.5C 130.492,248.672 131.158,248.338 131.5,247.5C 132.492,247.672 133.158,247.338 133.5,246.5C 134.492,246.672 135.158,246.338 135.5,245.5C 136.71,245.068 137.71,244.401 138.5,243.5C 139.492,243.672 140.158,243.338 140.5,242.5C 141.492,242.672 142.158,242.338 142.5,241.5C 143.167,241.5 143.5,241.167 143.5,240.5C 145.284,240.107 146.95,239.441 148.5,238.5C 154.668,235.92 160.335,232.586 165.5,228.5C 167.96,228.699 170.293,229.365 172.5,230.5C 167.6,242.766 164.267,255.432 162.5,268.5C 158.854,270.817 155.52,273.484 152.5,276.5C 156.117,275.358 159.45,273.692 162.5,271.5C 162.334,279.174 162.5,286.841 163,294.5C 164.195,306.018 170.195,313.685 181,317.5C 181.392,321.528 181.892,325.528 182.5,329.5C 179.167,329.5 175.833,329.5 172.5,329.5C 173.728,325.746 174.895,322.079 176,318.5C 169.85,321.816 164.016,325.483 158.5,329.5C 152.167,329.5 145.833,329.5 139.5,329.5C 143.167,325.5 146.833,321.5 150.5,317.5C 143.329,321.251 136.329,325.251 129.5,329.5C 123.167,329.5 116.833,329.5 110.5,329.5C 115.687,325.403 120.687,321.07 125.5,316.5C 117.572,320.441 109.905,324.774 102.5,329.5C 89.5,328.167 76.5,328.167 63.5,329.5C 74.8333,320.833 86.1667,312.167 97.5,303.5C 81.336,311.745 65.6693,320.745 50.5,330.5C 44.31,330.823 38.31,330.49 32.5,329.5C 27.5896,329.759 23.5896,328.093 20.5,324.5C 17.7213,322.401 15.7213,319.068 14.5,314.5C 23.8003,308.523 32.8003,302.19 41.5,295.5C 32.366,300.234 23.366,305.234 14.5,310.5C 13.2641,306.299 13.2641,301.965 14.5,297.5C 13.9913,286.201 16.6579,275.534 22.5,265.5C 23.8333,265.167 23.8333,264.833 22.5,264.5C 36.3894,237.434 58.0561,224.101 87.5,224.5C 87.5,225.5 87.5,226.5 87.5,227.5 Z M 148.5,234.5 C 148.5,235.833 148.5,237.167 148.5,238.5C 146.95,239.441 145.284,240.107 143.5,240.5C 144.248,238.668 145.248,237.001 146.5,235.5C 147.167,235.167 147.833,234.833 148.5,234.5 Z M 127.5,248.5 C 128.167,248.5 128.833,248.5 129.5,248.5C 129.027,249.906 128.027,250.573 126.5,250.5C 126.833,249.833 127.167,249.167 127.5,248.5 Z M 152.5,276.5 C 152.027,277.906 151.027,278.573 149.5,278.5C 149.973,277.094 150.973,276.427 152.5,276.5 Z M 125.5,316.5 C 120.687,321.07 115.687,325.403 110.5,329.5C 107.833,329.5 105.167,329.5 102.5,329.5C 109.905,324.774 117.572,320.441 125.5,316.5 Z M 150.5,317.5 C 146.833,321.5 143.167,325.5 139.5,329.5C 136.167,329.5 132.833,329.5 129.5,329.5C 136.329,325.251 143.329,321.251 150.5,317.5 Z M 172.5,329.5 C 167.833,329.5 163.167,329.5 158.5,329.5C 164.016,325.483 169.85,321.816 176,318.5C 174.895,322.079 173.728,325.746 172.5,329.5 Z"/></g>
<g><path style="opacity:0.938" fill="#cd4242" d="M 158.5,226.5 C 155.48,229.516 152.146,232.183 148.5,234.5C 147.833,234.833 147.167,235.167 146.5,235.5C 148.292,232.454 149.292,229.121 149.5,225.5C 152.482,225.963 155.482,226.296 158.5,226.5 Z"/></g>
<g><path style="opacity:1" fill="#d54443" d="M 108.5,239.5 C 106.937,238.055 105.604,236.389 104.5,234.5C 110.957,231.272 117.29,228.105 123.5,225C 118.934,229.476 114.601,234.143 110.5,239C 109.906,239.464 109.239,239.631 108.5,239.5 Z"/></g>
<g><path style="opacity:0.961" fill="#69524e" d="M 158.5,226.5 C 160.833,227.167 163.167,227.833 165.5,228.5C 160.335,232.586 154.668,235.92 148.5,238.5C 148.5,237.167 148.5,235.833 148.5,234.5C 152.146,232.183 155.48,229.516 158.5,226.5 Z"/></g>
<g><path style="opacity:0.996" fill="#6e524e" d="M 87.5,227.5 C 87.5,228.833 87.5,230.167 87.5,231.5C 83.8362,234.335 79.8362,236.668 75.5,238.5C 75.5,238.167 75.5,237.833 75.5,237.5C 79.0197,233.719 83.0197,230.386 87.5,227.5 Z"/></g>
<g><path style="opacity:0.86" fill="#cf4444" d="M 185.5,236.5 C 185.5,237.5 185.5,238.5 185.5,239.5C 183.167,241.5 180.833,243.5 178.5,245.5C 178.94,242.62 179.94,239.954 181.5,237.5C 182.708,236.766 184.041,236.433 185.5,236.5 Z"/></g>
<g><path style="opacity:0.565" fill="#b63d3c" d="M 31.5,238.5 C 30.0552,240.063 28.3885,241.396 26.5,242.5C 27.1293,240.003 28.796,238.67 31.5,238.5 Z"/></g>
<g><path style="opacity:1" fill="#ca4241" d="M 133.5,238.5 C 130.611,242.611 126.611,244.611 121.5,244.5C 125.353,242.318 129.186,239.984 133,237.5C 133.399,237.728 133.565,238.062 133.5,238.5 Z"/></g>
<g><path style="opacity:0.98" fill="#fdb291" d="M 257.5,247.5 C 250.932,253.463 243.932,258.963 236.5,264C 245.199,259.815 253.866,255.315 262.5,250.5C 265.906,251.878 269.24,253.211 272.5,254.5C 261.762,261.466 262.095,261.966 273.5,256C 274.793,255.51 276.127,255.343 277.5,255.5C 284.557,256.578 291.557,257.911 298.5,259.5C 298.586,260.496 298.252,261.329 297.5,262C 290.441,267.391 283.107,272.391 275.5,277C 274.304,277.654 274.304,278.154 275.5,278.5C 285.06,272.888 294.727,267.555 304.5,262.5C 307.37,263.433 309.704,265.1 311.5,267.5C 307.68,270.47 303.68,273.304 299.5,276C 304.196,274.156 308.862,271.989 313.5,269.5C 315.312,271.461 316.312,273.794 316.5,276.5C 307.834,284.024 298.501,290.857 288.5,297C 289.908,297.315 291.241,296.982 292.5,296C 300.561,290.638 308.894,285.805 317.5,281.5C 320.409,283.356 323.409,285.023 326.5,286.5C 320.186,290.138 314.519,294.471 309.5,299.5C 303.86,303.147 298.527,307.147 293.5,311.5C 299.298,308.767 304.965,305.767 310.5,302.5C 317.992,299.257 324.992,295.257 331.5,290.5C 333.286,292.414 334.286,294.748 334.5,297.5C 334.078,300.369 333.911,303.369 334,306.5C 333.535,307.931 332.701,309.097 331.5,310C 326.81,311.785 322.31,313.951 318,316.5C 317.696,320.548 317.196,324.548 316.5,328.5C 312.949,330.111 309.949,332.444 307.5,335.5C 310.45,334.692 313.117,333.358 315.5,331.5C 312.468,349.385 303.468,363.552 288.5,374C 285.623,375.127 282.623,375.794 279.5,376C 277.5,377.333 275.5,378.667 273.5,380C 263.5,382 253.5,382 243.5,380C 239.381,379.356 235.715,377.856 232.5,375.5C 234.857,375.663 237.19,375.497 239.5,375C 250.57,366.147 261.57,357.314 272.5,348.5C 257.85,356.805 243.184,365.139 228.5,373.5C 224.402,372.728 221.069,370.728 218.5,367.5C 214.833,365.833 212.167,363.167 210.5,359.5C 221.473,351.853 232.14,343.853 242.5,335.5C 230.663,341.917 218.996,348.584 207.5,355.5C 204.595,353.244 202.928,350.244 202.5,346.5C 205.833,343.833 209.167,341.167 212.5,338.5C 208.345,339.742 204.678,341.742 201.5,344.5C 199.103,341.691 197.77,338.358 197.5,334.5C 195.63,331.191 194.63,327.525 194.5,323.5C 196.389,322.396 198.055,321.063 199.5,319.5C 197.716,319.893 196.05,320.559 194.5,321.5C 193.527,319.052 193.194,316.385 193.5,313.5C 189.148,313.154 185.481,311.488 182.5,308.5C 184.647,306.53 186.98,304.697 189.5,303C 186.466,303.812 183.466,304.979 180.5,306.5C 178.127,304.421 176.794,301.754 176.5,298.5C 181.022,295.406 185.356,292.073 189.5,288.5C 189.167,288.167 188.833,287.833 188.5,287.5C 184.472,289.845 180.472,292.178 176.5,294.5C 176.441,290.452 178.108,287.285 181.5,285C 185.531,283.568 189.364,281.734 193,279.5C 194.1,266.897 200.934,259.564 213.5,257.5C 211.067,261.768 207.734,265.268 203.5,268C 211.368,264.396 219.035,260.229 226.5,255.5C 232.449,253.677 238.449,251.843 244.5,250C 247.941,248.224 251.108,246.057 254,243.5C 255.376,244.705 256.542,246.038 257.5,247.5 Z M 309.5,299.5 C 309.557,300.609 309.89,301.609 310.5,302.5C 304.965,305.767 299.298,308.767 293.5,311.5C 298.527,307.147 303.86,303.147 309.5,299.5 Z M 293.5,311.5 C 293.027,312.906 292.027,313.573 290.5,313.5C 290.973,312.094 291.973,311.427 293.5,311.5 Z M 307.5,335.5 C 307.027,336.906 306.027,337.573 304.5,337.5C 304.973,336.094 305.973,335.427 307.5,335.5 Z M 273.5,367.5 C 270.764,372.521 266.764,374.854 261.5,374.5C 265.164,371.665 269.164,369.332 273.5,367.5 Z"/></g>
<g><path style="opacity:1" fill="#71707f" d="M 257.5,247.5 C 259.368,248.263 261.035,249.263 262.5,250.5C 253.866,255.315 245.199,259.815 236.5,264C 243.932,258.963 250.932,253.463 257.5,247.5 Z"/></g>
<g><path style="opacity:0.999" fill="#1b97d4" d="M 332.5,248.5 C 333.301,250.042 333.634,251.708 333.5,253.5C 329.772,256.559 325.772,259.226 321.5,261.5C 320.5,261.167 319.833,260.5 319.5,259.5C 322.948,254.713 327.281,251.046 332.5,248.5 Z"/></g>
<g><path style="opacity:1" fill="#e7a68b" d="M 212.5,254.5 C 208.499,255.5 204.499,256.5 200.5,257.5C 203.174,255.681 206.007,254.014 209,252.5C 210.459,252.808 211.626,253.475 212.5,254.5 Z"/></g>
<g><path style="opacity:1" fill="#84777f" d="M 272.5,254.5 C 274.415,254.216 276.081,254.549 277.5,255.5C 276.127,255.343 274.793,255.51 273.5,256C 262.095,261.966 261.762,261.466 272.5,254.5 Z"/></g>
<g><path style="opacity:1" fill="#5c667b" d="M 333.5,253.5 C 334.309,255.292 334.809,257.292 335,259.5C 335.667,266.5 335.667,273.5 335,280.5C 333.488,279.743 332.154,278.743 331,277.5C 329.094,271.345 325.928,266.012 321.5,261.5C 325.772,259.226 329.772,256.559 333.5,253.5 Z"/></g>
<g><path style="opacity:1" fill="#6a6c7e" d="M 226.5,255.5 C 219.035,260.229 211.368,264.396 203.5,268C 207.734,265.268 211.067,261.768 213.5,257.5C 217.704,256.09 222.037,255.423 226.5,255.5 Z"/></g>
<g><path style="opacity:1" fill="#737080" d="M 298.5,259.5 C 300.574,260.514 302.574,261.514 304.5,262.5C 294.727,267.555 285.06,272.888 275.5,278.5C 274.304,278.154 274.304,277.654 275.5,277C 283.107,272.391 290.441,267.391 297.5,262C 298.252,261.329 298.586,260.496 298.5,259.5 Z"/></g>
<g><path style="opacity:1" fill="#827882" d="M 311.5,267.5 C 312.5,267.833 313.167,268.5 313.5,269.5C 308.862,271.989 304.196,274.156 299.5,276C 303.68,273.304 307.68,270.47 311.5,267.5 Z"/></g>
<g><path style="opacity:1" fill="#767280" d="M 316.5,276.5 C 317.451,277.919 317.784,279.585 317.5,281.5C 308.894,285.805 300.561,290.638 292.5,296C 291.241,296.982 289.908,297.315 288.5,297C 298.501,290.857 307.834,284.024 316.5,276.5 Z"/></g>
<g><path style="opacity:1" fill="#bd7266" d="M 180.5,277.5 C 181.776,278.386 181.776,279.386 180.5,280.5C 177.866,283.278 176.199,282.945 175.5,279.5C 177.284,279.107 178.95,278.441 180.5,277.5 Z"/></g>
<g><path style="opacity:0.986" fill="#666b7f" d="M 326.5,286.5 C 328.749,287.08 330.415,288.413 331.5,290.5C 324.992,295.257 317.992,299.257 310.5,302.5C 309.89,301.609 309.557,300.609 309.5,299.5C 314.519,294.471 320.186,290.138 326.5,286.5 Z"/></g>
<g><path style="opacity:1" fill="#df504b" d="M 176.5,298.5 C 176.5,297.167 176.5,295.833 176.5,294.5C 180.472,292.178 184.472,289.845 188.5,287.5C 188.833,287.833 189.167,288.167 189.5,288.5C 185.356,292.073 181.022,295.406 176.5,298.5 Z"/></g>
<g><path style="opacity:1" fill="#e36158" d="M 182.5,308.5 C 181.167,308.5 180.5,307.833 180.5,306.5C 183.466,304.979 186.466,303.812 189.5,303C 186.98,304.697 184.647,306.53 182.5,308.5 Z"/></g>
<g><path style="opacity:0.039" fill="#1892d0" d="M 506.5,318.5 C 506.66,320.199 506.494,321.866 506,323.5C 505.329,324.252 504.496,324.586 503.5,324.5C 503.992,322.181 504.992,320.181 506.5,318.5 Z"/></g>
<g><path style="opacity:0.842" fill="#da4343" d="M 14.5,331.5 C 17.9389,331.788 21.2722,332.454 24.5,333.5C 22.2046,335.385 19.538,335.885 16.5,335C 15.695,333.887 15.0283,332.721 14.5,331.5 Z"/></g>
<g><path style="opacity:0.843" fill="#1892cf" d="M 489.5,332.5 C 486.626,335.927 482.959,337.094 478.5,336C 477.944,335.617 477.611,335.117 477.5,334.5C 481.295,333.383 485.295,332.717 489.5,332.5 Z"/></g>
<g><path style="opacity:0.765" fill="#c54040" d="M 148.5,334.5 C 145.383,337.09 142.383,337.09 139.5,334.5C 142.5,333.167 145.5,333.167 148.5,334.5 Z"/></g>
<g><path style="opacity:0.753" fill="#d8413f" d="M 172.5,334.5 C 175.385,334.194 178.052,334.527 180.5,335.5C 177.466,337.102 174.799,336.769 172.5,334.5 Z"/></g>
<g><path style="opacity:0.851" fill="#1698d9" d="M 334.5,335.5 C 337.287,334.523 340.287,334.19 343.5,334.5C 340.775,337.708 337.775,338.041 334.5,335.5 Z"/></g>
<g><path style="opacity:0.812" fill="#17a1df" d="M 362.5,334.5 C 365.713,334.19 368.713,334.523 371.5,335.5C 368.146,337.113 365.146,336.78 362.5,334.5 Z"/></g>
<g><path style="opacity:0.62" fill="#c7403f" d="M 32.5,334.5 C 35.0593,334.198 37.3926,334.532 39.5,335.5C 36.9882,336.867 34.6548,336.534 32.5,334.5 Z"/></g>
<g><path style="opacity:0.998" fill="#f8a17f" d="M 250.5,408.5 C 253.251,404.243 256.584,400.41 260.5,397C 255.804,398.844 251.138,401.011 246.5,403.5C 243.112,399.751 239.945,395.751 237,391.5C 236.505,389.527 236.338,387.527 236.5,385.5C 249.3,387.208 261.966,386.541 274.5,383.5C 274.665,386.85 274.498,390.183 274,393.5C 268.692,400.975 263.192,408.308 257.5,415.5C 256.998,416.521 256.332,416.688 255.5,416C 253.585,413.6 251.919,411.1 250.5,408.5 Z"/></g>
<g><path style="opacity:0.369" fill="#d3d7da" d="M 209.5,389.5 C 207.786,390.738 205.786,391.405 203.5,391.5C 205.102,389.926 207.102,389.259 209.5,389.5 Z"/></g>
<g><path style="opacity:0.467" fill="#c3cbcf" d="M 193.5,393.5 C 191.351,394.736 189.018,395.736 186.5,396.5C 188.176,394.166 190.509,393.166 193.5,393.5 Z"/></g>
<g><path style="opacity:0.998" fill="#dfe6e8" d="M 212.5,397.5 C 212.833,398.833 213.167,398.833 213.5,397.5C 217.31,395.69 221.31,395.19 225.5,396C 233.167,406.333 240.833,416.667 248.5,427C 242.796,430.846 237.13,434.68 231.5,438.5C 229.971,438.471 228.804,437.804 228,436.5C 221.51,423.72 215.01,410.886 208.5,398C 209.793,397.51 211.127,397.343 212.5,397.5 Z"/></g>
<g><path style="opacity:0.998" fill="#e1e7e9" d="M 292.5,397.5 C 296.308,397.163 299.974,397.663 303.5,399C 296.539,412.422 289.706,425.922 283,439.5C 276.026,434.693 269.193,429.693 262.5,424.5C 269.379,415.243 276.379,406.077 283.5,397C 286.696,396.195 289.696,396.362 292.5,397.5 Z"/></g>
<g><path style="opacity:1" fill="#e5e3e1" d="M 250.5,408.5 C 248.457,407.421 247.124,405.754 246.5,403.5C 251.138,401.011 255.804,398.844 260.5,397C 256.584,400.41 253.251,404.243 250.5,408.5 Z"/></g>
<g><path style="opacity:0.981" fill="#d2dce0" d="M 195.5,401.5 C 190.194,406.14 185.194,411.14 180.5,416.5C 186.473,413.179 192.473,409.845 198.5,406.5C 203.699,417.563 209.199,428.563 215,439.5C 218.594,443.547 223.094,445.881 228.5,446.5C 231.101,452.943 231.934,459.609 231,466.5C 229.278,477.608 227.112,488.608 224.5,499.5C 218.642,499.822 212.975,499.489 207.5,498.5C 209.54,496.823 211.54,495.156 213.5,493.5C 210.24,494.774 207.24,496.44 204.5,498.5C 197.081,499.816 190.081,499.816 183.5,498.5C 175.215,499.606 166.882,499.773 158.5,499C 155.826,498.33 153.493,497.163 151.5,495.5C 160.167,489.167 168.833,482.833 177.5,476.5C 167.7,481.567 158.033,486.901 148.5,492.5C 144.277,491.069 142.277,488.069 142.5,483.5C 146.221,481.646 149.554,479.313 152.5,476.5C 148.983,478.424 145.316,480.091 141.5,481.5C 140.518,478.038 140.185,474.371 140.5,470.5C 149.141,464.519 157.475,458.186 165.5,451.5C 157.517,455.805 149.517,460.138 141.5,464.5C 141.631,458.629 143.298,453.296 146.5,448.5C 147.833,448.167 147.833,447.833 146.5,447.5C 154.774,426.393 169.107,410.893 189.5,401C 191.712,400.211 193.712,400.378 195.5,401.5 Z M 180.5,474.5 C 180.027,475.906 179.027,476.573 177.5,476.5C 177.973,475.094 178.973,474.427 180.5,474.5 Z M 213.5,493.5 C 211.54,495.156 209.54,496.823 207.5,498.5C 206.5,498.5 205.5,498.5 204.5,498.5C 207.24,496.44 210.24,494.774 213.5,493.5 Z"/></g>
<g><path style="opacity:0.982" fill="#d2dce0" d="M 334.5,411.5 C 338.082,413.12 341.082,415.453 343.5,418.5C 342.5,418.833 341.833,419.5 341.5,420.5C 342.492,420.672 343.158,420.338 343.5,419.5C 346.394,420.882 348.894,422.882 351,425.5C 356.066,430.966 359.566,437.299 361.5,444.5C 360.933,445.42 361.599,445.754 363.5,445.5C 364.917,449.002 365.584,452.669 365.5,456.5C 360.411,460.378 355.745,464.711 351.5,469.5C 356.632,467.1 361.632,464.434 366.5,461.5C 368.698,465.797 369.698,470.464 369.5,475.5C 367.833,476.5 366.5,477.833 365.5,479.5C 366.833,479.167 368.167,478.833 369.5,478.5C 370.86,489.051 366.193,495.718 355.5,498.5C 355.167,497.167 354.833,497.167 354.5,498.5C 347.13,500.641 339.797,500.974 332.5,499.5C 336.805,494.859 341.139,490.193 345.5,485.5C 337.164,489.665 329.164,494.332 321.5,499.5C 315.137,499.593 308.804,499.26 302.5,498.5C 310.133,492.203 317.466,485.536 324.5,478.5C 312.663,484.917 300.996,491.584 289.5,498.5C 288.5,498.5 287.5,498.5 286.5,498.5C 284.446,487.831 282.28,477.165 280,466.5C 278.966,459.633 279.633,452.967 282,446.5C 287.512,444.405 292.179,441.072 296,436.5C 301.745,424.677 307.745,413.01 314,401.5C 321.482,403.658 328.315,406.992 334.5,411.5 Z M 351.5,469.5 C 351.027,470.906 350.027,471.573 348.5,471.5C 348.973,470.094 349.973,469.427 351.5,469.5 Z M 324.5,478.5 C 317.466,485.536 310.133,492.203 302.5,498.5C 298.167,498.5 293.833,498.5 289.5,498.5C 300.996,491.584 312.663,484.917 324.5,478.5 Z M 345.5,485.5 C 341.139,490.193 336.805,494.859 332.5,499.5C 328.833,499.5 325.167,499.5 321.5,499.5C 329.164,494.332 337.164,489.665 345.5,485.5 Z"/></g>
<g><path style="opacity:1" fill="#da4444" d="M 257.5,434.5 C 255.965,436.806 254.798,439.139 254,441.5C 256.475,440.014 258.975,438.681 261.5,437.5C 264.825,439.168 267.825,441.334 270.5,444C 269.261,448.123 268.261,452.29 267.5,456.5C 259.5,456.5 251.5,456.5 243.5,456.5C 243.236,452.607 242.569,448.774 241.5,445C 242.732,442.973 242.398,441.64 240.5,441C 245.263,438.202 249.763,435.036 254,431.5C 255.518,432.163 256.685,433.163 257.5,434.5 Z"/></g>
<g><path style="opacity:1" fill="#d2cace" d="M 257.5,434.5 C 259.23,435.026 260.564,436.026 261.5,437.5C 258.975,438.681 256.475,440.014 254,441.5C 254.798,439.139 255.965,436.806 257.5,434.5 Z"/></g>
<g><path style="opacity:1" fill="#c13e3d" d="M 266.5,464.5 C 265.118,467.394 263.118,469.894 260.5,472C 262.963,471.78 265.296,470.946 267.5,469.5C 270.368,479.174 272.368,489.174 273.5,499.5C 270.5,499.5 267.5,499.5 264.5,499.5C 265.614,498.115 266.614,496.615 267.5,495C 267.167,494.833 266.833,494.667 266.5,494.5C 263.923,495.943 261.59,497.61 259.5,499.5C 253.5,499.5 247.5,499.5 241.5,499.5C 244.629,495.869 247.963,492.369 251.5,489C 246.804,490.844 242.138,493.011 237.5,495.5C 239.115,485.424 241.115,475.424 243.5,465.5C 251.138,464.503 258.804,464.169 266.5,464.5 Z"/></g>
<g><path style="opacity:1" fill="#cdbabd" d="M 266.5,464.5 C 267.451,465.919 267.784,467.585 267.5,469.5C 265.296,470.946 262.963,471.78 260.5,472C 263.118,469.894 265.118,467.394 266.5,464.5 Z"/></g>
<g><path style="opacity:1" fill="#cdc8cb" d="M 241.5,499.5 C 239.833,499.5 238.167,499.5 236.5,499.5C 236.433,498.041 236.766,496.708 237.5,495.5C 242.138,493.011 246.804,490.844 251.5,489C 247.963,492.369 244.629,495.869 241.5,499.5 Z"/></g>
<g><path style="opacity:0.999" fill="#c9c1c4" d="M 264.5,499.5 C 262.833,499.5 261.167,499.5 259.5,499.5C 261.59,497.61 263.923,495.943 266.5,494.5C 266.833,494.667 267.167,494.833 267.5,495C 266.614,496.615 265.614,498.115 264.5,499.5 Z"/></g>
<g><path style="opacity:0.804" fill="#cad3d7" d="M 376.5,493.5 C 377.248,495.566 376.581,497.4 374.5,499C 369.833,501.667 365.167,504.333 360.5,507C 358.934,507.765 357.601,507.598 356.5,506.5C 364.12,503.687 370.786,499.353 376.5,493.5 Z"/></g>
</svg>
