<?xml version="1.0" encoding="UTF-8"?>
<!DOCTYPE svg PUBLIC "-//W3C//DTD SVG 1.1//EN" "http://www.w3.org/Graphics/SVG/1.1/DTD/svg11.dtd">
<svg xmlns="http://www.w3.org/2000/svg" version="1.1" width="512px" height="512px" style="shape-rendering:geometricPrecision; text-rendering:geometricPrecision; image-rendering:optimizeQuality; fill-rule:evenodd; clip-rule:evenodd" xmlns:xlink="http://www.w3.org/1999/xlink">
<g><path style="opacity:0.978" fill="#282726" d="M 239.5,205.5 C 237.412,207.336 236.079,209.669 235.5,212.5C 233.86,215.149 232.193,217.816 230.5,220.5C 239.717,226.589 244.55,235.256 245,246.5C 245.566,262.361 245.066,278.194 243.5,294C 244.958,318.661 246.291,343.327 247.5,368C 247.986,387.101 244.986,405.601 238.5,423.5C 236.259,424.3 235.259,425.966 235.5,428.5C 235.389,429.117 235.056,429.617 234.5,430C 248.167,430.667 261.833,430.667 275.5,430C 270.727,420.764 267.561,410.931 266,400.5C 264.791,389.865 263.958,379.198 263.5,368.5C 264.755,343.495 266.089,318.495 267.5,293.5C 265.921,277.862 265.421,262.195 266,246.5C 266.686,235.828 271.519,227.661 280.5,222C 278.28,219.287 276.28,216.454 274.5,213.5C 274.25,211.326 273.25,209.659 271.5,208.5C 267.027,197.641 264.527,186.308 264,174.5C 263.333,163.167 263.333,151.833 264,140.5C 265.344,119.677 266.51,98.8432 267.5,78C 266.365,63.8261 265.532,49.6594 265,35.5C 266.558,20.7837 274.392,11.4504 288.5,7.5C 291.557,6.36741 294.557,5.36741 297.5,4.5C 307.914,2.98907 318.414,2.32241 329,2.5C 351.517,2.90872 374.017,3.57539 396.5,4.5C 398.5,5.83333 400.5,5.83333 402.5,4.5C 418.643,3.19217 434.81,2.19217 451,1.5C 492.186,0.523554 508.352,20.1902 499.5,60.5C 501.055,89.8241 502.388,119.157 503.5,148.5C 504.45,167.284 502.117,185.617 496.5,203.5C 494.412,205.336 493.079,207.669 492.5,210.5C 490.786,214.082 488.453,217.248 485.5,220C 495.701,226.226 500.867,235.392 501,247.5C 501.47,263.025 500.97,278.525 499.5,294C 500.875,318.664 502.208,343.331 503.5,368C 503.546,383.076 501.713,397.909 498,412.5C 496.981,416.397 495.481,420.064 493.5,423.5C 492.263,424.965 491.263,426.632 490.5,428.5C 503.631,429.641 510.298,436.975 510.5,450.5C 510.536,458.08 507.87,464.413 502.5,469.5C 501.878,478.205 501.045,486.872 500,495.5C 498.066,501.767 493.9,505.601 487.5,507C 467.803,507.895 448.136,507.561 428.5,506C 424.216,502.712 421.05,498.545 419,493.5C 418.205,486.782 418.372,480.116 419.5,473.5C 378.485,472.974 337.485,472.64 296.5,472.5C 301.331,495.347 291.998,507.013 268.5,507.5C 258.671,506.18 248.837,506.18 239,507.5C 233.857,506.797 228.691,506.297 223.5,506C 218.799,503.622 215.966,499.788 215,494.5C 214.5,487.174 214.334,479.841 214.5,472.5C 173.448,472.813 132.448,472.813 91.5,472.5C 93.5383,482.252 92.3716,491.585 88,500.5C 85.5119,504.325 82.0119,506.492 77.5,507C 60.5,507.667 43.5,507.667 26.5,507C 16.8637,506.026 11.0304,500.859 9,491.5C 8.27967,485.639 8.44634,479.806 9.5,474C 7.71847,471.215 5.5518,468.715 3,466.5C 1.39574,463.541 0.229073,460.541 -0.5,457.5C -0.5,454.833 -0.5,452.167 -0.5,449.5C 0.699275,443.113 3.69928,437.613 8.5,433C 11.8984,431.084 15.5651,430.084 19.5,430C 14.7212,420.729 11.5545,410.896 10,400.5C 8.81432,389.696 7.98099,378.863 7.5,368C 8.77476,343.163 10.1081,318.329 11.5,293.5C 9.9211,277.862 9.4211,262.195 10,246.5C 10.7403,235.673 15.5736,227.34 24.5,221.5C 22.0908,219.098 20.0908,216.431 18.5,213.5C 18.9382,213.565 19.2716,213.399 19.5,213C 18.6006,211.348 17.6006,209.848 16.5,208.5C 15.596,207.791 15.2627,206.791 15.5,205.5C 15.2451,203.033 14.2451,201.033 12.5,199.5C 8.49165,182.583 6.82499,165.416 7.5,148C 8.52029,117.321 9.85362,86.6546 11.5,56C 11.0111,46.4937 10.8444,36.9937 11,27.5C 17.5441,11.7972 29.3774,3.29724 46.5,2C 68.3577,1.3803 90.191,1.8803 112,3.5C 122.71,2.51356 133.21,2.8469 143.5,4.5C 167.779,1.53106 192.112,1.03106 216.5,3C 232.844,6.84333 242.511,17.01 245.5,33.5C 244.057,42.6011 243.39,51.7678 243.5,61C 244.272,82.1871 245.439,103.354 247,124.5C 247.667,140.5 247.667,156.5 247,172.5C 246.087,183.901 243.587,194.901 239.5,205.5 Z M 198.5,11.5 C 200.833,11.5 203.167,11.5 205.5,11.5C 199.201,15.9885 192.534,19.9885 185.5,23.5C 185.5,22.5 185.5,21.5 185.5,20.5C 190.132,17.8573 194.465,14.8573 198.5,11.5 Z M 52.5,12.5 C 47.4984,16.0031 42.165,19.0031 36.5,21.5C 38.14,18.8508 39.8067,16.1841 41.5,13.5C 45.0991,12.6561 48.7657,12.3227 52.5,12.5 Z M 316.5,12.5 C 319.713,12.19 322.713,12.5233 325.5,13.5C 318.658,17.4216 311.658,21.0883 304.5,24.5C 308.194,20.1396 312.194,16.1396 316.5,12.5 Z M 425.5,12.5 C 427.048,12.8212 427.715,13.8212 427.5,15.5C 422.632,18.4338 417.632,21.1005 412.5,23.5C 417.019,20.0708 421.352,16.4041 425.5,12.5 Z M 470.5,14.5 C 472.403,14.7959 474.07,15.4625 475.5,16.5C 464.531,23.656 453.198,30.3227 441.5,36.5C 441.5,35.5 441.5,34.5 441.5,33.5C 451.442,27.5524 461.109,21.2191 470.5,14.5 Z M 69.5,16.5 C 69.5,18.5 69.5,20.5 69.5,22.5C 64.6318,25.4338 59.6318,28.1005 54.5,30.5C 58.8714,25.1275 63.8714,20.4608 69.5,16.5 Z M 217.5,16.5 C 218.167,16.5 218.5,16.8333 218.5,17.5C 216.664,19.588 214.331,20.9213 211.5,21.5C 213.5,19.8333 215.5,18.1667 217.5,16.5 Z M 209.5,22.5 C 209.027,23.9063 208.027,24.573 206.5,24.5C 206.973,23.0937 207.973,22.427 209.5,22.5 Z M 484.5,24.5 C 485.401,25.2905 486.068,26.2905 486.5,27.5C 471.663,36.4193 456.663,45.086 441.5,53.5C 441.5,52.8333 441.5,52.1667 441.5,51.5C 455.693,42.239 470.026,33.239 484.5,24.5 Z M 282.5,32.5 C 281.5,34.1667 280.167,35.5 278.5,36.5C 278.5,35.8333 278.5,35.1667 278.5,34.5C 279.605,33.3995 280.938,32.7329 282.5,32.5 Z M 230.5,34.5 C 230.5,35.5 230.5,36.5 230.5,37.5C 219.998,44.588 208.998,50.9214 197.5,56.5C 208.291,48.9317 219.291,41.5984 230.5,34.5 Z M 32.5,36.5 C 30.4309,39.5725 27.7642,41.9059 24.5,43.5C 24.5,42.5 24.5,41.5 24.5,40.5C 26.9384,38.7328 29.605,37.3994 32.5,36.5 Z M 291.5,44.5 C 291.027,45.9063 290.027,46.573 288.5,46.5C 288.973,45.0937 289.973,44.427 291.5,44.5 Z M 288.5,46.5 C 285.729,49.3918 282.729,52.0584 279.5,54.5C 279.5,53.1667 279.5,51.8333 279.5,50.5C 282.352,48.9091 285.352,47.5758 288.5,46.5 Z M 232.5,49.5 C 233.461,51.2646 233.795,53.2646 233.5,55.5C 216.5,64.8333 199.5,74.1667 182.5,83.5C 182.5,82.8333 182.5,82.1667 182.5,81.5C 199.138,70.844 215.805,60.1773 232.5,49.5 Z M 41.5,50.5 C 36.1233,55.2097 30.4566,59.543 24.5,63.5C 24.5,62.1667 24.5,60.8333 24.5,59.5C 30.0353,56.2326 35.7019,53.2326 41.5,50.5 Z M 197.5,56.5 C 197.027,57.9063 196.027,58.573 194.5,58.5C 194.973,57.0937 195.973,56.427 197.5,56.5 Z M 57.5,59.5 C 46.5307,68.319 35.1974,76.6524 23.5,84.5C 23.5,82.5 23.5,80.5 23.5,78.5C 34.5376,71.6476 45.8709,65.3143 57.5,59.5 Z M 192.5,59.5 C 192.027,60.9063 191.027,61.573 189.5,61.5C 189.973,60.0937 190.973,59.427 192.5,59.5 Z M 487.5,62.5 C 487.5,64.5 487.5,66.5 487.5,68.5C 469.5,78.5 451.5,88.5 433.5,98.5C 451.119,86.017 469.119,74.017 487.5,62.5 Z M 285.5,65.5 C 284.055,67.0627 282.389,68.396 280.5,69.5C 280.5,68.8333 280.5,68.1667 280.5,67.5C 282.05,66.5592 283.716,65.8925 285.5,65.5 Z M 233.5,67.5 C 233.5,68.8333 233.5,70.1667 233.5,71.5C 221.007,77.9124 208.674,84.5791 196.5,91.5C 208.314,82.7559 220.647,74.7559 233.5,67.5 Z M 317.5,72.5 C 305.223,81.9789 292.556,90.9789 279.5,99.5C 279.5,97.5 279.5,95.5 279.5,93.5C 292.184,86.4718 304.85,79.4718 317.5,72.5 Z M 487.5,80.5 C 487.5,80.8333 487.5,81.1667 487.5,81.5C 485.784,83.0248 483.784,84.0248 481.5,84.5C 483.147,82.6736 485.147,81.3403 487.5,80.5 Z M 481.5,84.5 C 481.027,85.9063 480.027,86.573 478.5,86.5C 478.973,85.0937 479.973,84.427 481.5,84.5 Z M 42.5,87.5 C 42.0269,88.9063 41.0269,89.573 39.5,89.5C 39.9731,88.0937 40.9731,87.427 42.5,87.5 Z M 39.5,89.5 C 34.5516,93.6477 29.2183,97.3144 23.5,100.5C 23.5,99.8333 23.5,99.1667 23.5,98.5C 28.5016,94.9969 33.835,91.9969 39.5,89.5 Z M 194.5,92.5 C 194.027,93.9063 193.027,94.573 191.5,94.5C 191.973,93.0937 192.973,92.427 194.5,92.5 Z M 231.5,94.5 C 231.5,95.8333 231.5,97.1667 231.5,98.5C 220.833,104.167 210.167,109.833 199.5,115.5C 209.816,108.006 220.483,101.006 231.5,94.5 Z M 433.5,98.5 C 433.027,99.9063 432.027,100.573 430.5,100.5C 430.973,99.0937 431.973,98.427 433.5,98.5 Z M 46.5,100.5 C 38.8523,106.327 30.8523,111.66 22.5,116.5C 22.5,115.5 22.5,114.5 22.5,113.5C 30.517,109.138 38.517,104.805 46.5,100.5 Z M 322.5,100.5 C 307.709,110.735 292.709,120.735 277.5,130.5C 278.038,128.883 278.371,127.216 278.5,125.5C 292.869,116.649 307.536,108.315 322.5,100.5 Z M 487.5,106.5 C 487.5,108.833 487.5,111.167 487.5,113.5C 468.635,124.432 449.635,135.099 430.5,145.5C 449.289,132.266 468.289,119.266 487.5,106.5 Z M 230.5,110.5 C 230.5,111.5 230.5,112.5 230.5,113.5C 222.301,118.432 213.968,123.099 205.5,127.5C 213.623,121.599 221.956,115.932 230.5,110.5 Z M 199.5,115.5 C 199.027,116.906 198.027,117.573 196.5,117.5C 196.973,116.094 197.973,115.427 199.5,115.5 Z M 325.5,115.5 C 325.027,116.906 324.027,117.573 322.5,117.5C 322.973,116.094 323.973,115.427 325.5,115.5 Z M 322.5,117.5 C 307.709,127.735 292.709,137.735 277.5,147.5C 277.5,145.833 277.5,144.167 277.5,142.5C 292.366,133.901 307.366,125.568 322.5,117.5 Z M 29.5,125.5 C 29.0269,126.906 28.0269,127.573 26.5,127.5C 26.9731,126.094 27.9731,125.427 29.5,125.5 Z M 487.5,125.5 C 487.5,126.5 487.5,127.5 487.5,128.5C 480.403,132.93 473.069,136.93 465.5,140.5C 472.449,135.018 479.783,130.018 487.5,125.5 Z M 26.5,127.5 C 25.3406,129.25 23.674,130.25 21.5,130.5C 21.5,130.167 21.5,129.833 21.5,129.5C 23.0495,128.559 24.7162,127.893 26.5,127.5 Z M 63.5,130.5 C 63.0269,131.906 62.0269,132.573 60.5,132.5C 60.9731,131.094 61.9731,130.427 63.5,130.5 Z M 87.5,132.5 C 87.0269,133.906 86.0269,134.573 84.5,134.5C 84.9731,133.094 85.9731,132.427 87.5,132.5 Z M 58.5,133.5 C 58.0269,134.906 57.0269,135.573 55.5,135.5C 55.9731,134.094 56.9731,133.427 58.5,133.5 Z M 84.5,134.5 C 77.7089,139.402 70.7089,144.068 63.5,148.5C 62.1667,148.5 60.8333,148.5 59.5,148.5C 67.6639,143.583 75.9972,138.917 84.5,134.5 Z M 55.5,135.5 C 44.2037,143.154 32.8703,150.82 21.5,158.5C 21.5,157.167 21.5,155.833 21.5,154.5C 32.5376,147.648 43.8709,141.314 55.5,135.5 Z M 231.5,139.5 C 230.659,141.379 230.325,143.379 230.5,145.5C 218.738,152.596 206.738,159.262 194.5,165.5C 206.3,156.098 218.633,147.431 231.5,139.5 Z M 487.5,152.5 C 487.5,153.833 487.5,155.167 487.5,156.5C 480.403,160.93 473.069,164.93 465.5,168.5C 472.53,162.812 479.863,157.478 487.5,152.5 Z M 45.5,156.5 C 45.3713,158.216 45.038,159.883 44.5,161.5C 37.004,166.749 29.3374,171.749 21.5,176.5C 21.5,174.5 21.5,172.5 21.5,170.5C 29.2184,165.47 37.2184,160.803 45.5,156.5 Z M 231.5,158.5 C 231.5,160.167 231.5,161.833 231.5,163.5C 222.634,168.766 213.634,173.766 204.5,178.5C 212.931,171.069 221.931,164.403 231.5,158.5 Z M 319.5,158.5 C 320.5,158.5 321.5,158.5 322.5,158.5C 322.167,159.167 321.833,159.833 321.5,160.5C 320.167,160.5 319.5,159.833 319.5,158.5 Z M 299.5,170.5 C 299.5,171.833 299.5,173.167 299.5,174.5C 293.167,178.5 286.833,182.5 280.5,186.5C 279.549,185.081 279.216,183.415 279.5,181.5C 286.184,177.805 292.85,174.138 299.5,170.5 Z M 43.5,176.5 C 43.5,177.167 43.5,177.833 43.5,178.5C 37.0781,182.925 30.4114,186.925 23.5,190.5C 23.5,189.5 23.5,188.5 23.5,187.5C 29.8727,183.313 36.5393,179.647 43.5,176.5 Z M 232.5,189.5 C 232.5,190.5 232.5,191.5 232.5,192.5C 230.02,193.242 227.687,194.242 225.5,195.5C 227.219,192.781 229.553,190.781 232.5,189.5 Z M 60.5,191.5 C 61.5,191.5 62.5,191.5 63.5,191.5C 54.7089,197.735 45.7089,203.735 36.5,209.5C 34.9731,209.573 33.9731,208.906 33.5,207.5C 42.7006,202.404 51.7006,197.07 60.5,191.5 Z M 137.5,192.5 C 126.167,200.833 114.833,209.167 103.5,217.5C 102.833,217.5 102.167,217.5 101.5,217.5C 99.6208,216.659 97.6208,216.325 95.5,216.5C 109.166,207.998 123.166,199.998 137.5,192.5 Z M 292.5,192.5 C 292.027,193.906 291.027,194.573 289.5,194.5C 289.973,193.094 290.973,192.427 292.5,192.5 Z M 336.5,192.5 C 338.167,192.5 339.833,192.5 341.5,192.5C 330.675,200.413 319.675,208.08 308.5,215.5C 305.545,214.841 302.545,214.508 299.5,214.5C 311.999,207.418 324.332,200.085 336.5,192.5 Z M 289.5,194.5 C 287.882,196.316 285.882,197.649 283.5,198.5C 282.833,198.5 282.5,198.167 282.5,197.5C 284.713,196.227 287.046,195.227 289.5,194.5 Z M 160.5,197.5 C 152.5,203.833 144.5,210.167 136.5,216.5C 133.5,216.5 130.5,216.5 127.5,216.5C 138.329,209.917 149.329,203.584 160.5,197.5 Z M 77.5,198.5 C 77.0269,199.906 76.0269,200.573 74.5,200.5C 74.9731,199.094 75.9731,198.427 77.5,198.5 Z M 72.5,201.5 C 66.1331,206.523 59.4665,211.19 52.5,215.5C 50.901,215.768 49.5676,215.434 48.5,214.5C 56.517,210.138 64.517,205.805 72.5,201.5 Z M 400.5,201.5 C 400.027,202.906 399.027,203.573 397.5,203.5C 397.973,202.094 398.973,201.427 400.5,201.5 Z M 351.5,203.5 C 351.027,204.906 350.027,205.573 348.5,205.5C 348.973,204.094 349.973,203.427 351.5,203.5 Z M 397.5,203.5 C 391.786,208.549 385.786,213.215 379.5,217.5C 377.167,217.5 374.833,217.5 372.5,217.5C 380.341,212.077 388.674,207.41 397.5,203.5 Z M 348.5,205.5 C 343.167,209.5 337.833,213.5 332.5,217.5C 331.167,217.167 329.833,216.833 328.5,216.5C 334.838,212.329 341.504,208.663 348.5,205.5 Z M 188.5,212.5 C 187.5,213.833 186.5,215.167 185.5,216.5C 184.167,216.5 182.833,216.5 181.5,216.5C 183.336,214.412 185.669,213.079 188.5,212.5 Z M 469.5,227.5 C 471.027,227.427 472.027,228.094 472.5,229.5C 462.366,235.737 452.033,241.737 441.5,247.5C 441.5,246.833 441.5,246.167 441.5,245.5C 451.102,239.894 460.435,233.894 469.5,227.5 Z M 185.5,235.5 C 185.5,234.5 185.5,233.5 185.5,232.5C 187.471,231.177 189.471,229.844 191.5,228.5C 191.833,229 192.167,229.5 192.5,230C 190.638,232.354 188.305,234.187 185.5,235.5 Z M 411.5,230.5 C 409.313,231.758 406.98,232.758 404.5,233.5C 406.481,231.697 408.648,230.03 411,228.5C 411.464,229.094 411.631,229.761 411.5,230.5 Z M 441.5,231.5 C 441.5,231.167 441.5,230.833 441.5,230.5C 442.721,229.972 443.887,229.305 445,228.5C 444.967,230.478 443.8,231.478 441.5,231.5 Z M 216.5,229.5 C 218.404,229.738 219.738,230.738 220.5,232.5C 208.996,239.42 197.329,246.086 185.5,252.5C 185.5,251.5 185.5,250.5 185.5,249.5C 195.833,242.833 206.167,236.167 216.5,229.5 Z M 427.5,234.5 C 427.5,236.167 427.5,237.833 427.5,239.5C 420.403,243.93 413.069,247.93 405.5,251.5C 412.238,245.099 419.571,239.432 427.5,234.5 Z M 227.5,240.5 C 228.363,242.421 229.029,244.421 229.5,246.5C 215.032,254.234 200.699,262.234 186.5,270.5C 186.5,269.5 186.5,268.5 186.5,267.5C 200.338,258.749 214.005,249.749 227.5,240.5 Z M 485.5,244.5 C 486.15,246.435 486.483,248.435 486.5,250.5C 471.634,259.099 456.634,267.432 441.5,275.5C 441.5,274.833 441.5,274.167 441.5,273.5C 456.167,263.833 470.833,254.167 485.5,244.5 Z M 37.5,233.5 C 37.6395,231.663 38.3061,231.33 39.5,232.5C 39.0431,233.298 38.3764,233.631 37.5,233.5 Z M 232.5,256.5 C 232.5,256.833 232.5,257.167 232.5,257.5C 231.609,258.11 230.609,258.443 229.5,258.5C 229.973,257.094 230.973,256.427 232.5,256.5 Z M 488.5,261.5 C 488.5,262.167 488.5,262.833 488.5,263.5C 478.666,270.254 468.333,276.254 457.5,281.5C 467.315,274.089 477.648,267.422 488.5,261.5 Z M 27.5,267.5 C 26.8333,268.833 25.8333,269.833 24.5,270.5C 24.5,269.833 24.5,269.167 24.5,268.5C 25.391,267.89 26.391,267.557 27.5,267.5 Z M 50.5,269.5 C 42.1425,276.519 33.4758,283.185 24.5,289.5C 24.5,287.5 24.5,285.5 24.5,283.5C 32.9318,278.403 41.5984,273.736 50.5,269.5 Z M 489.5,275.5 C 489.5,276.833 489.5,278.167 489.5,279.5C 476.635,287.099 463.635,294.432 450.5,301.5C 463.291,292.598 476.291,283.932 489.5,275.5 Z M 326.5,291.5 C 326.5,291.833 326.5,292.167 326.5,292.5C 325.609,293.11 324.609,293.443 323.5,293.5C 323.973,292.094 324.973,291.427 326.5,291.5 Z M 488.5,292.5 C 488.5,292.833 488.5,293.167 488.5,293.5C 487.609,294.11 486.609,294.443 485.5,294.5C 485.973,293.094 486.973,292.427 488.5,292.5 Z M 323.5,293.5 C 308.713,304.4 293.713,315.067 278.5,325.5C 278.5,323.167 278.5,320.833 278.5,318.5C 293.366,309.901 308.366,301.568 323.5,293.5 Z M 485.5,294.5 C 485.027,295.906 484.027,296.573 482.5,296.5C 482.973,295.094 483.973,294.427 485.5,294.5 Z M 286.5,300.5 C 284.469,302.522 282.135,304.189 279.5,305.5C 279.5,304.833 279.5,304.167 279.5,303.5C 281.687,302.242 284.02,301.242 286.5,300.5 Z M 44.5,313.5 C 37.5505,318.982 30.2172,323.982 22.5,328.5C 22.5,327.5 22.5,326.5 22.5,325.5C 29.8604,321.488 37.1937,317.488 44.5,313.5 Z M 67.5,315.5 C 52.549,326.316 37.2156,336.649 21.5,346.5C 21.5,344.833 21.5,343.167 21.5,341.5C 36.594,332.405 51.9273,323.738 67.5,315.5 Z M 231.5,315.5 C 231.5,316.167 231.5,316.833 231.5,317.5C 225.965,320.767 220.298,323.767 214.5,326.5C 219.648,322.089 225.314,318.422 231.5,315.5 Z M 487.5,318.5 C 486.659,320.379 486.325,322.379 486.5,324.5C 469.635,334.432 452.635,344.098 435.5,353.5C 452.282,341.057 469.616,329.391 487.5,318.5 Z M 307.5,321.5 C 297.881,328.65 287.881,335.316 277.5,341.5C 277.833,340.167 278.167,338.833 278.5,337.5C 288.033,331.901 297.7,326.567 307.5,321.5 Z M 83.5,323.5 C 63.1298,337.858 42.4632,351.858 21.5,365.5C 21.5,363.167 21.5,360.833 21.5,358.5C 42.194,346.821 62.8606,335.155 83.5,323.5 Z M 214.5,326.5 C 214.027,327.906 213.027,328.573 211.5,328.5C 211.973,327.094 212.973,326.427 214.5,326.5 Z M 230.5,330.5 C 230.5,331.5 230.5,332.5 230.5,333.5C 222.792,338.354 214.792,342.688 206.5,346.5C 214.205,340.808 222.205,335.474 230.5,330.5 Z M 336.5,330.5 C 336.027,331.906 335.027,332.573 333.5,332.5C 333.973,331.094 334.973,330.427 336.5,330.5 Z M 333.5,332.5 C 315.381,345.611 296.714,357.945 277.5,369.5C 277.5,367.833 277.5,366.167 277.5,364.5C 295.833,353.331 314.5,342.664 333.5,332.5 Z M 206.5,346.5 C 206.027,347.906 205.027,348.573 203.5,348.5C 203.973,347.094 204.973,346.427 206.5,346.5 Z M 230.5,356.5 C 230.5,357.833 230.5,359.167 230.5,360.5C 223.658,364.422 216.658,368.088 209.5,371.5C 216.286,366.267 223.286,361.267 230.5,356.5 Z M 310.5,363.5 C 310.5,363.833 310.5,364.167 310.5,364.5C 309.609,365.11 308.609,365.443 307.5,365.5C 307.973,364.094 308.973,363.427 310.5,363.5 Z M 302.5,368.5 C 302.5,368.833 302.5,369.167 302.5,369.5C 294.167,374.833 285.833,380.167 277.5,385.5C 277.5,384.5 277.5,383.5 277.5,382.5C 285.341,377.077 293.674,372.41 302.5,368.5 Z M 231.5,372.5 C 231.5,372.833 231.5,373.167 231.5,373.5C 230.609,374.11 229.609,374.443 228.5,374.5C 228.973,373.094 229.973,372.427 231.5,372.5 Z M 25.5,375.5 C 25.0269,376.906 24.0269,377.573 22.5,377.5C 22.9731,376.094 23.9731,375.427 25.5,375.5 Z M 488.5,381.5 C 488.5,383.833 488.5,386.167 488.5,388.5C 480.833,392.5 473.167,396.5 465.5,400.5C 472.851,393.819 480.517,387.486 488.5,381.5 Z M 299.5,384.5 C 299.5,385.5 299.5,386.5 299.5,387.5C 292.668,392.084 285.668,396.417 278.5,400.5C 278.5,399.167 278.5,397.833 278.5,396.5C 285.663,392.753 292.663,388.753 299.5,384.5 Z M 232.5,397.5 C 232.5,398.833 232.5,400.167 232.5,401.5C 228.5,403.5 224.5,405.5 220.5,407.5C 224.122,403.692 228.122,400.359 232.5,397.5 Z M 465.5,400.5 C 465.027,401.906 464.027,402.573 462.5,402.5C 462.973,401.094 463.973,400.427 465.5,400.5 Z M 488.5,401.5 C 488.5,402.5 488.5,403.5 488.5,404.5C 486.95,405.441 485.284,406.107 483.5,406.5C 484.833,404.5 486.5,402.833 488.5,401.5 Z M 334.5,405.5 C 335.833,405.5 337.167,405.5 338.5,405.5C 327.549,413.649 316.216,421.315 304.5,428.5C 302.214,428.405 300.214,427.738 298.5,426.5C 310.136,419.01 322.136,412.01 334.5,405.5 Z M 483.5,406.5 C 483.027,407.906 482.027,408.573 480.5,408.5C 480.973,407.094 481.973,406.427 483.5,406.5 Z M 288.5,407.5 C 287.341,409.25 285.674,410.25 283.5,410.5C 284.659,408.75 286.326,407.75 288.5,407.5 Z M 65.5,410.5 C 57.8333,415.833 50.1667,421.167 42.5,426.5C 41.391,426.443 40.391,426.11 39.5,425.5C 47.832,419.998 56.4986,414.998 65.5,410.5 Z M 432.5,412.5 C 425.5,418.5 418.5,424.5 411.5,430.5C 408.167,430.5 404.833,430.5 401.5,430.5C 411.334,423.746 421.667,417.746 432.5,412.5 Z M 85.5,413.5 C 85.0269,414.906 84.0269,415.573 82.5,415.5C 82.9731,414.094 83.9731,413.427 85.5,413.5 Z M 82.5,415.5 C 75.2038,420.487 67.8704,425.487 60.5,430.5C 59.209,430.737 58.209,430.404 57.5,429.5C 65.3405,424.077 73.6739,419.41 82.5,415.5 Z M 125.5,416.5 C 119.133,421.523 112.466,426.19 105.5,430.5C 103.5,430.833 101.5,431.167 99.5,431.5C 107.832,425.998 116.499,420.998 125.5,416.5 Z M 186.5,421.5 C 184.14,424.527 181.473,427.194 178.5,429.5C 176.5,429.5 174.5,429.5 172.5,429.5C 176.833,426.331 181.5,423.664 186.5,421.5 Z M 442.5,426.5 C 441.833,427.833 440.833,428.833 439.5,429.5C 438.5,429.5 437.5,429.5 436.5,429.5C 438.181,427.992 440.181,426.992 442.5,426.5 Z M 207.5,427.5 C 207.167,428.167 206.833,428.833 206.5,429.5C 205.5,429.5 204.5,429.5 203.5,429.5C 204.514,428.326 205.847,427.66 207.5,427.5 Z M 22.5,438.5 C 23.8333,438.5 25.1667,438.5 26.5,438.5C 25.1516,439.601 23.6516,440.601 22,441.5C 21.5304,440.423 21.6971,439.423 22.5,438.5 Z M 490.5,438.5 C 492.773,438.957 494.106,440.29 494.5,442.5C 490.611,444.697 486.778,447.03 483,449.5C 482.333,448.833 482.333,448.167 483,447.5C 485.985,444.838 488.485,441.838 490.5,438.5 Z M 160.5,439.5 C 162.167,439.5 163.833,439.5 165.5,439.5C 163.337,441.083 161.004,442.416 158.5,443.5C 159.6,442.395 160.267,441.062 160.5,439.5 Z M 236.5,439.5 C 239.5,439.5 242.5,439.5 245.5,439.5C 240.498,443.003 235.165,446.003 229.5,448.5C 231.451,445.214 233.785,442.214 236.5,439.5 Z M 266.5,439.5 C 270.5,439.5 274.5,439.5 278.5,439.5C 272.201,443.988 265.534,447.988 258.5,451.5C 260.749,447.246 263.415,443.246 266.5,439.5 Z M 325.5,439.5 C 325.833,439.5 326.167,439.5 326.5,439.5C 327.167,439.5 327.833,439.5 328.5,439.5C 326.819,441.008 324.819,442.008 322.5,442.5C 323.306,441.272 324.306,440.272 325.5,439.5 Z M 419.5,439.5 C 419.027,440.906 418.027,441.573 416.5,441.5C 416.973,440.094 417.973,439.427 419.5,439.5 Z M 45.5,440.5 C 45.5,442.167 45.5,443.833 45.5,445.5C 42.9795,447.019 40.4795,448.686 38,450.5C 37.8333,450.167 37.6667,449.833 37.5,449.5C 39.9491,446.239 42.6158,443.239 45.5,440.5 Z M 133.5,441.5 C 133.5,442.167 133.5,442.833 133.5,443.5C 129.836,446.335 125.836,448.668 121.5,450.5C 121.733,448.938 122.4,447.605 123.5,446.5C 126.807,444.847 130.14,443.18 133.5,441.5 Z M 322.5,442.5 C 320.664,444.588 318.331,445.921 315.5,446.5C 315.833,445.833 316.167,445.167 316.5,444.5C 318.5,443.833 320.5,443.167 322.5,442.5 Z M 412.5,443.5 C 412.027,444.906 411.027,445.573 409.5,445.5C 409.973,444.094 410.973,443.427 412.5,443.5 Z M 198.5,447.5 C 199.5,447.5 200.5,447.5 201.5,447.5C 200.486,448.674 199.153,449.34 197.5,449.5C 197.833,448.833 198.167,448.167 198.5,447.5 Z M 236.5,464.5 C 234.5,464.5 232.5,464.5 230.5,464.5C 230.261,462.533 230.594,460.699 231.5,459C 236.034,456.066 240.7,453.733 245.5,452C 242.123,455.931 239.123,460.098 236.5,464.5 Z M 106.5,452.5 C 103.488,456.538 100.488,460.538 97.5,464.5C 93.5,464.5 89.5,464.5 85.5,464.5C 92.3293,460.251 99.3293,456.251 106.5,452.5 Z M 21.5,453.5 C 20.1979,455.822 18.1979,457.155 15.5,457.5C 14.8333,457.5 14.5,457.167 14.5,456.5C 16.6869,455.242 19.0202,454.242 21.5,453.5 Z M 180.5,453.5 C 178.087,457.314 175.421,460.981 172.5,464.5C 168.833,464.5 165.167,464.5 161.5,464.5C 167.662,460.584 173.995,456.917 180.5,453.5 Z M 210.5,454.5 C 208.213,458.122 205.547,461.455 202.5,464.5C 199.5,464.5 196.5,464.5 193.5,464.5C 198.665,460.414 204.332,457.08 210.5,454.5 Z M 457.5,462.5 C 457.5,461.167 457.5,459.833 457.5,458.5C 459.331,456.251 461.664,455.085 464.5,455C 461.933,457.396 459.6,459.896 457.5,462.5 Z M 72.5,455.5 C 69.2542,459.461 65.2542,462.461 60.5,464.5C 59.1667,464.5 57.8333,464.5 56.5,464.5C 61.5016,460.997 66.835,457.997 72.5,455.5 Z M 383.5,456.5 C 381.909,459.431 379.909,462.098 377.5,464.5C 375.167,464.5 372.833,464.5 370.5,464.5C 374.63,461.597 378.963,458.93 383.5,456.5 Z M 127.5,459.5 C 126.167,461.5 124.5,463.167 122.5,464.5C 121.167,464.5 119.833,464.5 118.5,464.5C 121.008,462.076 124.008,460.41 127.5,459.5 Z M 313.5,460.5 C 312.5,461.833 311.5,463.167 310.5,464.5C 309.167,464.5 307.833,464.5 306.5,464.5C 308.336,462.412 310.669,461.079 313.5,460.5 Z M 37.5,462.5 C 37.1667,463.5 36.5,464.167 35.5,464.5C 34.8333,464.5 34.1667,464.5 33.5,464.5C 34.5137,463.326 35.847,462.66 37.5,462.5 Z M 421.5,462.5 C 421.5,463.167 421.5,463.833 421.5,464.5C 420.5,464.5 419.5,464.5 418.5,464.5C 419.29,463.599 420.29,462.932 421.5,462.5 Z M 71.5,472.5 C 72.8333,472.5 74.1667,472.5 75.5,472.5C 73.3374,474.083 71.0041,475.416 68.5,476.5C 69.5,475.167 70.5,473.833 71.5,472.5 Z M 254.5,472.5 C 255.833,472.5 257.167,472.5 258.5,472.5C 256.664,474.588 254.331,475.921 251.5,476.5C 252.5,475.167 253.5,473.833 254.5,472.5 Z M 466.5,472.5 C 467.5,472.5 468.5,472.5 469.5,472.5C 468.486,473.674 467.153,474.34 465.5,474.5C 465.833,473.833 466.167,473.167 466.5,472.5 Z M 230.5,483.5 C 229.5,484.833 228.5,486.167 227.5,487.5C 226.375,486.652 226.375,485.652 227.5,484.5C 228.391,483.89 229.391,483.557 230.5,483.5 Z M 41.5,487.5 C 38.5,491.167 35.1667,494.5 31.5,497.5C 29.6203,497.771 28.287,497.104 27.5,495.5C 31.833,492.331 36.4997,489.664 41.5,487.5 Z M 436.5,487.5 C 435.5,488.833 434.5,490.167 433.5,491.5C 432.596,490.791 432.263,489.791 432.5,488.5C 433.833,488.167 435.167,487.833 436.5,487.5 Z M 461.5,489.5 C 458.306,492.272 455.306,495.272 452.5,498.5C 450.059,499.756 447.726,499.756 445.5,498.5C 450.502,494.997 455.835,491.997 461.5,489.5 Z M 270.5,490.5 C 268.748,493.672 266.748,496.672 264.5,499.5C 260.881,500.244 257.215,500.577 253.5,500.5C 258.994,496.918 264.661,493.585 270.5,490.5 Z M 55.5,496.5 C 54.8333,497.5 54.1667,498.5 53.5,499.5C 52.1667,499.5 50.8333,499.5 49.5,499.5C 51.1815,497.992 53.1815,496.992 55.5,496.5 Z"/></g>
<g><path style="opacity:0.432" fill="#e27e41" d="M 297.5,4.5 C 294.557,5.36741 291.557,6.36741 288.5,7.5C 290.982,4.40223 293.982,3.40223 297.5,4.5 Z"/></g>
<g><path style="opacity:1" fill="#9b8162" d="M 402.5,4.5 C 400.5,5.83333 398.5,5.83333 396.5,4.5C 398.5,3.16667 400.5,3.16667 402.5,4.5 Z"/></g>
<g><path style="opacity:0.899" fill="#ee8640" d="M 198.5,11.5 C 194.465,14.8573 190.132,17.8573 185.5,20.5C 184.527,18.0521 184.194,15.3854 184.5,12.5C 189.13,11.7705 193.797,11.4372 198.5,11.5 Z"/></g>
<g><path style="opacity:0.975" fill="#f98b42" d="M 41.5,13.5 C 39.8067,16.1841 38.14,18.8508 36.5,21.5C 42.165,19.0031 47.4984,16.0031 52.5,12.5C 58.5368,12.1707 64.5368,12.5041 70.5,13.5C 69.8728,14.4168 69.5394,15.4168 69.5,16.5C 63.8714,20.4608 58.8714,25.1275 54.5,30.5C 59.6318,28.1005 64.6318,25.4338 69.5,22.5C 69.6786,39.326 69.8453,56.326 70,73.5C 70.1162,91.8102 78.9495,98.3102 96.5,93C 106.607,89.6958 116.107,85.1958 125,79.5C 136.273,86.8869 148.44,92.2202 161.5,95.5C 161.833,96.8333 162.167,96.8333 162.5,95.5C 171.391,96.1046 177.724,92.438 181.5,84.5C 182.167,84.5 182.5,84.1667 182.5,83.5C 199.5,74.1667 216.5,64.8333 233.5,55.5C 233.5,59.5 233.5,63.5 233.5,67.5C 220.647,74.7559 208.314,82.7559 196.5,91.5C 208.674,84.5791 221.007,77.9124 233.5,71.5C 233.867,79.3091 233.201,86.9758 231.5,94.5C 220.483,101.006 209.816,108.006 199.5,115.5C 210.167,109.833 220.833,104.167 231.5,98.5C 231.763,102.6 231.43,106.6 230.5,110.5C 221.956,115.932 213.623,121.599 205.5,127.5C 213.968,123.099 222.301,118.432 230.5,113.5C 231.736,117.701 231.736,122.035 230.5,126.5C 228.15,127.11 228.483,127.444 231.5,127.5C 232.45,131.542 232.45,135.542 231.5,139.5C 218.633,147.431 206.3,156.098 194.5,165.5C 206.738,159.262 218.738,152.596 230.5,145.5C 231.485,149.634 231.818,153.968 231.5,158.5C 221.931,164.403 212.931,171.069 204.5,178.5C 213.634,173.766 222.634,168.766 231.5,163.5C 233.26,172.009 233.594,180.676 232.5,189.5C 229.553,190.781 227.219,192.781 225.5,195.5C 227.687,194.242 230.02,193.242 232.5,192.5C 232.311,204.405 226.644,212.238 215.5,216C 205.506,216.5 195.506,216.666 185.5,216.5C 186.5,215.167 187.5,213.833 188.5,212.5C 185.669,213.079 183.336,214.412 181.5,216.5C 166.5,216.5 151.5,216.5 136.5,216.5C 144.5,210.167 152.5,203.833 160.5,197.5C 149.329,203.584 138.329,209.917 127.5,216.5C 119.555,217.437 111.555,217.77 103.5,217.5C 114.833,209.167 126.167,200.833 137.5,192.5C 123.166,199.998 109.166,207.998 95.5,216.5C 97.6208,216.325 99.6208,216.659 101.5,217.5C 91.3069,218.538 81.3069,218.538 71.5,217.5C 65.8236,217.666 60.1569,217.499 54.5,217C 53.5842,216.722 52.9175,216.222 52.5,215.5C 59.4665,211.19 66.1331,206.523 72.5,201.5C 64.517,205.805 56.517,210.138 48.5,214.5C 43.4495,214.965 39.4495,213.299 36.5,209.5C 45.7089,203.735 54.7089,197.735 63.5,191.5C 71.5,191.5 79.5,191.5 87.5,191.5C 87.8333,192.833 88.1667,192.833 88.5,191.5C 115.866,191.444 124.199,178.777 113.5,153.5C 106.145,150.529 98.4786,149.029 90.5,149C 81.4524,148.223 72.4524,148.389 63.5,149.5C 63.5,149.167 63.5,148.833 63.5,148.5C 70.7089,144.068 77.7089,139.402 84.5,134.5C 75.9972,138.917 67.6639,143.583 59.5,148.5C 58.8333,148.5 58.5,148.833 58.5,149.5C 58.1667,149.5 57.8333,149.5 57.5,149.5C 56.8333,149.5 56.5,149.833 56.5,150.5C 56.1667,150.5 55.8333,150.5 55.5,150.5C 54.8333,150.5 54.5,150.833 54.5,151.5C 51.3388,152.913 48.3388,154.58 45.5,156.5C 37.2184,160.803 29.2184,165.47 21.5,170.5C 20.2092,166.601 20.2092,162.601 21.5,158.5C 32.8703,150.82 44.2037,143.154 55.5,135.5C 43.8709,141.314 32.5376,147.648 21.5,154.5C 20.9086,146.677 20.9086,138.677 21.5,130.5C 23.674,130.25 25.3406,129.25 26.5,127.5C 24.7162,127.893 23.0495,128.559 21.5,129.5C 21.2307,125.069 21.564,120.735 22.5,116.5C 30.8523,111.66 38.8523,106.327 46.5,100.5C 38.517,104.805 30.517,109.138 22.5,113.5C 22.2307,109.069 22.564,104.735 23.5,100.5C 29.2183,97.3144 34.5516,93.6477 39.5,89.5C 33.835,91.9969 28.5016,94.9969 23.5,98.5C 22.256,93.9648 22.256,89.2981 23.5,84.5C 35.1974,76.6524 46.5307,68.319 57.5,59.5C 45.8709,65.3143 34.5376,71.6476 23.5,78.5C 23.2743,73.4376 23.6076,68.4376 24.5,63.5C 30.4566,59.543 36.1233,55.2097 41.5,50.5C 35.7019,53.2326 30.0353,56.2326 24.5,59.5C 24.5,54.1667 24.5,48.8333 24.5,43.5C 27.7642,41.9059 30.4309,39.5725 32.5,36.5C 29.605,37.3994 26.9384,38.7328 24.5,40.5C 20.6029,25.9491 25.7695,16.6158 40,12.5C 40.7648,12.5699 41.2648,12.9033 41.5,13.5 Z M 52.5,12.5 C 47.4984,16.0031 42.165,19.0031 36.5,21.5C 38.14,18.8508 39.8067,16.1841 41.5,13.5C 45.0991,12.6561 48.7657,12.3227 52.5,12.5 Z M 197.5,56.5 C 197.027,57.9063 196.027,58.573 194.5,58.5C 194.973,57.0937 195.973,56.427 197.5,56.5 Z M 192.5,59.5 C 192.027,60.9063 191.027,61.573 189.5,61.5C 189.973,60.0937 190.973,59.427 192.5,59.5 Z M 42.5,87.5 C 42.0269,88.9063 41.0269,89.573 39.5,89.5C 39.9731,88.0937 40.9731,87.427 42.5,87.5 Z M 194.5,92.5 C 194.027,93.9063 193.027,94.573 191.5,94.5C 191.973,93.0937 192.973,92.427 194.5,92.5 Z M 199.5,115.5 C 199.027,116.906 198.027,117.573 196.5,117.5C 196.973,116.094 197.973,115.427 199.5,115.5 Z M 29.5,125.5 C 29.0269,126.906 28.0269,127.573 26.5,127.5C 26.9731,126.094 27.9731,125.427 29.5,125.5 Z M 63.5,130.5 C 63.0269,131.906 62.0269,132.573 60.5,132.5C 60.9731,131.094 61.9731,130.427 63.5,130.5 Z M 87.5,132.5 C 87.0269,133.906 86.0269,134.573 84.5,134.5C 84.9731,133.094 85.9731,132.427 87.5,132.5 Z M 58.5,133.5 C 58.0269,134.906 57.0269,135.573 55.5,135.5C 55.9731,134.094 56.9731,133.427 58.5,133.5 Z M 84.5,134.5 C 77.7089,139.402 70.7089,144.068 63.5,148.5C 62.1667,148.5 60.8333,148.5 59.5,148.5C 67.6639,143.583 75.9972,138.917 84.5,134.5 Z M 137.5,192.5 C 126.167,200.833 114.833,209.167 103.5,217.5C 102.833,217.5 102.167,217.5 101.5,217.5C 99.6208,216.659 97.6208,216.325 95.5,216.5C 109.166,207.998 123.166,199.998 137.5,192.5 Z M 160.5,197.5 C 152.5,203.833 144.5,210.167 136.5,216.5C 133.5,216.5 130.5,216.5 127.5,216.5C 138.329,209.917 149.329,203.584 160.5,197.5 Z M 77.5,198.5 C 77.0269,199.906 76.0269,200.573 74.5,200.5C 74.9731,199.094 75.9731,198.427 77.5,198.5 Z M 188.5,212.5 C 187.5,213.833 186.5,215.167 185.5,216.5C 184.167,216.5 182.833,216.5 181.5,216.5C 183.336,214.412 185.669,213.079 188.5,212.5 Z"/></g>
<g><path style="opacity:0.961" fill="#f88b42" d="M 205.5,11.5 C 208.647,11.7366 211.647,12.5699 214.5,14C 215.942,14.3768 216.942,15.2101 217.5,16.5C 215.5,18.1667 213.5,19.8333 211.5,21.5C 214.331,20.9213 216.664,19.588 218.5,17.5C 225.166,21.1243 229.166,26.791 230.5,34.5C 219.291,41.5984 208.291,48.9317 197.5,56.5C 208.998,50.9214 219.998,44.588 230.5,37.5C 233.316,41.0599 233.982,45.0599 232.5,49.5C 215.805,60.1773 199.138,70.844 182.5,81.5C 183.47,76.2099 184.304,70.8765 185,65.5C 185.5,51.504 185.667,37.504 185.5,23.5C 192.534,19.9885 199.201,15.9885 205.5,11.5 Z M 209.5,22.5 C 209.027,23.9063 208.027,24.573 206.5,24.5C 206.973,23.0937 207.973,22.427 209.5,22.5 Z M 197.5,56.5 C 197.027,57.9063 196.027,58.573 194.5,58.5C 194.973,57.0937 195.973,56.427 197.5,56.5 Z M 192.5,59.5 C 192.027,60.9063 191.027,61.573 189.5,61.5C 189.973,60.0937 190.973,59.427 192.5,59.5 Z"/></g>
<g><path style="opacity:0.999" fill="#fadca5" d="M 358.5,12.5 C 357.04,14.4628 355.373,16.2962 353.5,18C 353.833,18.1667 354.167,18.3333 354.5,18.5C 357.738,16.7247 360.738,14.7247 363.5,12.5C 376.167,12.5 388.833,12.5 401.5,12.5C 396.353,16.803 391.02,20.9696 385.5,25C 385.833,25.1667 386.167,25.3333 386.5,25.5C 393.396,20.8909 400.396,16.5576 407.5,12.5C 413.5,12.5 419.5,12.5 425.5,12.5C 421.352,16.4041 417.019,20.0708 412.5,23.5C 411.833,23.5 411.5,23.8333 411.5,24.5C 410.508,24.3284 409.842,24.6618 409.5,25.5C 408.833,25.5 408.5,25.8333 408.5,26.5C 407.833,26.8333 407.167,27.1667 406.5,27.5C 405.167,27.8333 405.167,28.1667 406.5,28.5C 413.631,25.1011 420.631,21.4344 427.5,17.5C 428.666,36.1544 429.166,54.8211 429,73.5C 428.157,79.374 426.157,84.7073 423,89.5C 413.273,85.7206 404.106,81.0539 395.5,75.5C 397.962,72.5361 400.629,69.7028 403.5,67C 398.474,68.6816 393.808,71.1816 389.5,74.5C 374.13,78.1006 358.963,82.4339 344,87.5C 339.826,87.1981 337.993,84.8648 338.5,80.5C 342.484,78.5045 346.151,76.0045 349.5,73C 345.674,74.2462 342.007,76.0796 338.5,78.5C 338.5,74.5 338.5,70.5 338.5,66.5C 345.314,61.9208 351.981,57.0875 358.5,52C 351.804,55.1356 345.137,58.6356 338.5,62.5C 338.5,45.8333 338.5,29.1667 338.5,12.5C 345.167,12.5 351.833,12.5 358.5,12.5 Z"/></g>
<g><path style="opacity:1" fill="#fa9249" d="M 358.5,12.5 C 360.167,12.5 361.833,12.5 363.5,12.5C 360.738,14.7247 357.738,16.7247 354.5,18.5C 354.167,18.3333 353.833,18.1667 353.5,18C 355.373,16.2962 357.04,14.4628 358.5,12.5 Z"/></g>
<g><path style="opacity:0.998" fill="#fa954e" d="M 401.5,12.5 C 403.5,12.5 405.5,12.5 407.5,12.5C 400.396,16.5576 393.396,20.8909 386.5,25.5C 386.167,25.3333 385.833,25.1667 385.5,25C 391.02,20.9696 396.353,16.803 401.5,12.5 Z"/></g>
<g><path style="opacity:0.951" fill="#f58a42" d="M 452.5,12.5 C 451.817,13.6441 452.151,13.6441 453.5,12.5C 459.502,11.1214 465.168,11.788 470.5,14.5C 461.109,21.2191 451.442,27.5524 441.5,33.5C 440.956,26.1985 440.623,18.8651 440.5,11.5C 444.702,11.1832 448.702,11.5166 452.5,12.5 Z"/></g>
<g><path style="opacity:0.965" fill="#f29550" d="M 93.5,12.5 C 90.5063,14.9998 87.173,16.9998 83.5,18.5C 82.4808,16.4595 82.4808,14.4595 83.5,12.5C 86.7145,12.8197 90.0479,12.8197 93.5,12.5 Z"/></g>
<g><path style="opacity:0.999" fill="#fadca5" d="M 93.5,12.5 C 100.022,12.1765 106.355,12.5098 112.5,13.5C 126.451,12.5346 140.451,12.2013 154.5,12.5C 150.902,15.3133 147.235,18.1467 143.5,21C 143.833,21.1667 144.167,21.3333 144.5,21.5C 149.231,18.4758 153.898,15.4758 158.5,12.5C 163.167,12.5 167.833,12.5 172.5,12.5C 172.5,21.5 172.5,30.5 172.5,39.5C 167,44.1611 162.167,49.1611 158,54.5C 162.945,51.6143 167.779,48.6143 172.5,45.5C 174.446,60.2621 173.446,74.9287 169.5,89.5C 165.115,88.7873 161.115,87.1206 157.5,84.5C 158.854,80.9683 160.854,77.8016 163.5,75C 159.14,76.3495 155.14,78.5161 151.5,81.5C 147.341,80.3359 143.341,79.0026 139.5,77.5C 141.903,76.1648 143.236,74.4981 143.5,72.5C 140.78,73.8599 138.114,75.1932 135.5,76.5C 131.167,76.5 126.833,76.5 122.5,76.5C 130.222,68.276 138.222,60.1094 146.5,52C 126.492,62.8448 106.492,74.0115 86.5,85.5C 82.0638,77.6712 80.0638,69.1712 80.5,60C 82.063,46.2045 83.063,32.3712 83.5,18.5C 87.173,16.9998 90.5063,14.9998 93.5,12.5 Z"/></g>
<g><path style="opacity:1" fill="#f89a55" d="M 154.5,12.5 C 155.833,12.5 157.167,12.5 158.5,12.5C 153.898,15.4758 149.231,18.4758 144.5,21.5C 144.167,21.3333 143.833,21.1667 143.5,21C 147.235,18.1467 150.902,15.3133 154.5,12.5 Z"/></g>
<g><path style="opacity:0.947" fill="#f98b42" d="M 475.5,16.5 C 480.401,17.1051 483.401,19.7718 484.5,24.5C 470.026,33.239 455.693,42.239 441.5,51.5C 441.5,46.5 441.5,41.5 441.5,36.5C 453.198,30.3227 464.531,23.656 475.5,16.5 Z"/></g>
<g><path style="opacity:0.839" fill="#fb9850" d="M 427.5,15.5 C 427.5,16.1667 427.5,16.8333 427.5,17.5C 420.631,21.4344 413.631,25.1011 406.5,28.5C 406.5,28.1667 406.5,27.8333 406.5,27.5C 407.167,27.1667 407.833,26.8333 408.5,26.5C 409.167,26.5 409.5,26.1667 409.5,25.5C 410.492,25.6716 411.158,25.3382 411.5,24.5C 412.167,24.5 412.5,24.1667 412.5,23.5C 417.632,21.1005 422.632,18.4338 427.5,15.5 Z"/></g>
<g><path style="opacity:0.98" fill="#f88b41" d="M 316.5,12.5 C 312.194,16.1396 308.194,20.1396 304.5,24.5C 311.658,21.0883 318.658,17.4216 325.5,13.5C 326.802,18.7337 326.802,24.0671 325.5,29.5C 324.167,29.8333 324.167,30.1667 325.5,30.5C 325.333,44.1707 325.5,57.8374 326,71.5C 326.433,79.6358 328.933,86.9691 333.5,93.5C 335.315,94.6298 337.315,95.2964 339.5,95.5C 341.304,96.162 343.304,96.4954 345.5,96.5C 348.527,96.7135 351.193,96.0468 353.5,94.5C 362.799,91.1005 371.632,86.7671 380,81.5C 390.618,87.3725 401.785,91.8725 413.5,95C 427.7,98.6588 436.534,93.4922 440,79.5C 441.145,70.8701 441.645,62.2034 441.5,53.5C 456.663,45.086 471.663,36.4193 486.5,27.5C 488.058,31.4474 488.724,35.6141 488.5,40C 488.244,47.4415 487.911,54.9415 487.5,62.5C 469.119,74.017 451.119,86.017 433.5,98.5C 451.5,88.5 469.5,78.5 487.5,68.5C 488.791,72.3989 488.791,76.3989 487.5,80.5C 485.147,81.3403 483.147,82.6736 481.5,84.5C 483.784,84.0248 485.784,83.0248 487.5,81.5C 488.791,85.3989 488.791,89.3989 487.5,93.5C 488.694,97.4372 488.694,101.771 487.5,106.5C 468.289,119.266 449.289,132.266 430.5,145.5C 449.635,135.099 468.635,124.432 487.5,113.5C 488.791,117.399 488.791,121.399 487.5,125.5C 479.783,130.018 472.449,135.018 465.5,140.5C 473.069,136.93 480.403,132.93 487.5,128.5C 488.813,136.401 488.813,144.401 487.5,152.5C 479.863,157.478 472.53,162.812 465.5,168.5C 473.069,164.93 480.403,160.93 487.5,156.5C 488.183,164.596 488.183,172.929 487.5,181.5C 489.412,190.762 488.246,200.095 484,209.5C 479.504,215.233 473.504,217.899 466,217.5C 452.515,216.628 439.015,216.295 425.5,216.5C 425.167,215.167 424.833,215.167 424.5,216.5C 409.498,216.75 394.498,217.083 379.5,217.5C 385.786,213.215 391.786,208.549 397.5,203.5C 388.674,207.41 380.341,212.077 372.5,217.5C 359.167,217.5 345.833,217.5 332.5,217.5C 337.833,213.5 343.167,209.5 348.5,205.5C 341.504,208.663 334.838,212.329 328.5,216.5C 321.655,217.744 314.988,217.411 308.5,215.5C 319.675,208.08 330.675,200.413 341.5,192.5C 370.621,193.1 379.954,180.1 369.5,153.5C 360.301,150.2 350.968,147.867 341.5,146.5C 333.18,147.307 324.847,148.14 316.5,149C 312.271,150.115 308.271,151.781 304.5,154C 302.683,155.8 301.516,157.966 301,160.5C 300.661,163.88 300.161,167.213 299.5,170.5C 292.85,174.138 286.184,177.805 279.5,181.5C 278.71,180.391 278.21,179.058 278,177.5C 277.048,167.429 276.882,157.429 277.5,147.5C 292.709,137.735 307.709,127.735 322.5,117.5C 307.366,125.568 292.366,133.901 277.5,142.5C 276.274,138.633 276.274,134.633 277.5,130.5C 292.709,120.735 307.709,110.735 322.5,100.5C 307.536,108.315 292.869,116.649 278.5,125.5C 277.209,121.601 277.209,117.601 278.5,113.5C 279.833,113.167 279.833,112.833 278.5,112.5C 278.231,108.069 278.564,103.735 279.5,99.5C 292.556,90.9789 305.223,81.9789 317.5,72.5C 304.85,79.4718 292.184,86.4718 279.5,93.5C 279.199,85.4144 279.533,77.4144 280.5,69.5C 282.389,68.396 284.055,67.0627 285.5,65.5C 283.716,65.8925 282.05,66.5592 280.5,67.5C 279.515,63.3656 279.182,59.0323 279.5,54.5C 282.729,52.0584 285.729,49.3918 288.5,46.5C 285.352,47.5758 282.352,48.9091 279.5,50.5C 277.413,46.0302 277.08,41.3635 278.5,36.5C 280.167,35.5 281.5,34.1667 282.5,32.5C 280.938,32.7329 279.605,33.3995 278.5,34.5C 279.489,21.0084 286.823,13.5084 300.5,12C 306.016,11.1826 311.35,11.3493 316.5,12.5 Z M 291.5,44.5 C 291.027,45.9063 290.027,46.573 288.5,46.5C 288.973,45.0937 289.973,44.427 291.5,44.5 Z M 481.5,84.5 C 481.027,85.9063 480.027,86.573 478.5,86.5C 478.973,85.0937 479.973,84.427 481.5,84.5 Z M 433.5,98.5 C 433.027,99.9063 432.027,100.573 430.5,100.5C 430.973,99.0937 431.973,98.427 433.5,98.5 Z M 325.5,115.5 C 325.027,116.906 324.027,117.573 322.5,117.5C 322.973,116.094 323.973,115.427 325.5,115.5 Z M 319.5,158.5 C 320.5,158.5 321.5,158.5 322.5,158.5C 322.167,159.167 321.833,159.833 321.5,160.5C 320.167,160.5 319.5,159.833 319.5,158.5 Z M 400.5,201.5 C 400.027,202.906 399.027,203.573 397.5,203.5C 397.973,202.094 398.973,201.427 400.5,201.5 Z M 351.5,203.5 C 351.027,204.906 350.027,205.573 348.5,205.5C 348.973,204.094 349.973,203.427 351.5,203.5 Z M 397.5,203.5 C 391.786,208.549 385.786,213.215 379.5,217.5C 377.167,217.5 374.833,217.5 372.5,217.5C 380.341,212.077 388.674,207.41 397.5,203.5 Z M 348.5,205.5 C 343.167,209.5 337.833,213.5 332.5,217.5C 331.167,217.167 329.833,216.833 328.5,216.5C 334.838,212.329 341.504,208.663 348.5,205.5 Z"/></g>
<g><path style="opacity:0.993" fill="#fa934b" d="M 172.5,39.5 C 172.5,41.5 172.5,43.5 172.5,45.5C 167.779,48.6143 162.945,51.6143 158,54.5C 162.167,49.1611 167,44.1611 172.5,39.5 Z"/></g>
<g><path style="opacity:1" fill="#f88d44" d="M 122.5,76.5 C 111.651,79.6743 101.485,84.341 92,90.5C 89.6836,89.3496 87.8502,87.6829 86.5,85.5C 106.492,74.0115 126.492,62.8448 146.5,52C 138.222,60.1094 130.222,68.276 122.5,76.5 Z"/></g>
<g><path style="opacity:1" fill="#fa934b" d="M 338.5,66.5 C 338.5,65.1667 338.5,63.8333 338.5,62.5C 345.137,58.6356 351.804,55.1356 358.5,52C 351.981,57.0875 345.314,61.9208 338.5,66.5 Z"/></g>
<g><path style="opacity:1" fill="#f28d47" d="M 395.5,75.5 C 393.5,75.1667 391.5,74.8333 389.5,74.5C 393.808,71.1816 398.474,68.6816 403.5,67C 400.629,69.7028 397.962,72.5361 395.5,75.5 Z"/></g>
<g><path style="opacity:1" fill="#f18f4a" d="M 139.5,77.5 C 137.901,77.7678 136.568,77.4345 135.5,76.5C 138.114,75.1932 140.78,73.8599 143.5,72.5C 143.236,74.4981 141.903,76.1648 139.5,77.5 Z"/></g>
<g><path style="opacity:0.979" fill="#f58e47" d="M 157.5,84.5 C 155.426,83.4861 153.426,82.4861 151.5,81.5C 155.14,78.5161 159.14,76.3495 163.5,75C 160.854,77.8016 158.854,80.9683 157.5,84.5 Z"/></g>
<g><path style="opacity:1" fill="#fa9750" d="M 338.5,80.5 C 338.5,79.8333 338.5,79.1667 338.5,78.5C 342.007,76.0796 345.674,74.2462 349.5,73C 346.151,76.0045 342.484,78.5045 338.5,80.5 Z"/></g>
<g><path style="opacity:1" fill="#906442" d="M 353.5,94.5 C 351.193,96.0468 348.527,96.7135 345.5,96.5C 343.304,96.4954 341.304,96.162 339.5,95.5C 344.214,95.6469 348.881,95.3136 353.5,94.5 Z"/></g>
<g><path style="opacity:0.997" fill="#292827" d="M 341.5,146.5 C 350.968,147.867 360.301,150.2 369.5,153.5C 379.954,180.1 370.621,193.1 341.5,192.5C 339.833,192.5 338.167,192.5 336.5,192.5C 327.676,191.67 318.676,191.17 309.5,191C 307.266,189.25 304.932,187.75 302.5,186.5C 301.49,182.386 300.49,178.386 299.5,174.5C 299.5,173.167 299.5,171.833 299.5,170.5C 300.161,167.213 300.661,163.88 301,160.5C 301.516,157.966 302.683,155.8 304.5,154C 308.271,151.781 312.271,150.115 316.5,149C 324.847,148.14 333.18,147.307 341.5,146.5 Z M 319.5,158.5 C 320.5,158.5 321.5,158.5 322.5,158.5C 322.167,159.167 321.833,159.833 321.5,160.5C 320.167,160.5 319.5,159.833 319.5,158.5 Z"/></g>
<g><path style="opacity:0.223" fill="#e6e6e6" d="M 59.5,148.5 C 60.8333,148.5 62.1667,148.5 63.5,148.5C 63.5,148.833 63.5,149.167 63.5,149.5C 60.8333,150.167 58.1667,150.833 55.5,151.5C 55.5,151.167 55.5,150.833 55.5,150.5C 55.8333,150.5 56.1667,150.5 56.5,150.5C 57.1667,150.5 57.5,150.167 57.5,149.5C 57.8333,149.5 58.1667,149.5 58.5,149.5C 59.1667,149.5 59.5,149.167 59.5,148.5 Z"/></g>
<g><path style="opacity:0.994" fill="#2b2928" d="M 88.5,191.5 C 88.1667,191.5 87.8333,191.5 87.5,191.5C 79.5,191.5 71.5,191.5 63.5,191.5C 62.5,191.5 61.5,191.5 60.5,191.5C 51.6382,191.301 45.9716,186.968 43.5,178.5C 43.5,177.833 43.5,177.167 43.5,176.5C 43.4126,171.463 43.746,166.463 44.5,161.5C 45.038,159.883 45.3713,158.216 45.5,156.5C 48.3388,154.58 51.3388,152.913 54.5,151.5C 54.8333,151.5 55.1667,151.5 55.5,151.5C 58.1667,150.833 60.8333,150.167 63.5,149.5C 72.4524,148.389 81.4524,148.223 90.5,149C 98.4786,149.029 106.145,150.529 113.5,153.5C 124.199,178.777 115.866,191.444 88.5,191.5 Z"/></g>
<g><path style="opacity:1" fill="#faf8f8" d="M 84.5,156.5 C 83.3747,158.129 82.0414,159.629 80.5,161C 80.8333,161.167 81.1667,161.333 81.5,161.5C 84.0765,160.057 86.4099,158.39 88.5,156.5C 93.5693,155.859 97.9027,157.192 101.5,160.5C 97.468,164.832 98.1346,165.498 103.5,162.5C 106.193,169.43 105.859,176.264 102.5,183C 92.3273,183.384 82.1606,183.884 72,184.5C 69.3097,184.497 66.8097,184.164 64.5,183.5C 67.9378,181.241 71.2711,178.741 74.5,176C 70.1395,177.349 66.1395,179.516 62.5,182.5C 59.4821,181.647 57.6488,179.647 57,176.5C 56.3354,169.805 56.502,163.138 57.5,156.5C 66.5,156.5 75.5,156.5 84.5,156.5 Z"/></g>
<g><path style="opacity:0.997" fill="#fbf9f7" d="M 353.5,182.5 C 353.751,180.83 354.418,179.33 355.5,178C 352.206,178.765 349.206,180.265 346.5,182.5C 340.5,182.5 334.5,182.5 328.5,182.5C 329.96,180.537 331.627,178.704 333.5,177C 329.33,177.752 325.663,179.585 322.5,182.5C 317.648,183.723 314.481,182.056 313,177.5C 312.335,170.805 312.502,164.138 313.5,157.5C 315.735,157.205 317.735,157.539 319.5,158.5C 319.5,159.833 320.167,160.5 321.5,160.5C 323.819,160.008 325.819,159.008 327.5,157.5C 337.296,155.764 346.963,156.264 356.5,159C 358.617,160.731 360.117,162.898 361,165.5C 361.689,171.275 361.189,176.942 359.5,182.5C 357.5,182.5 355.5,182.5 353.5,182.5 Z M 319.5,158.5 C 320.5,158.5 321.5,158.5 322.5,158.5C 322.167,159.167 321.833,159.833 321.5,160.5C 320.167,160.5 319.5,159.833 319.5,158.5 Z"/></g>
<g><path style="opacity:1" fill="#fb9b5c" d="M 84.5,156.5 C 85.8333,156.5 87.1667,156.5 88.5,156.5C 86.4099,158.39 84.0765,160.057 81.5,161.5C 81.1667,161.333 80.8333,161.167 80.5,161C 82.0414,159.629 83.3747,158.129 84.5,156.5 Z"/></g>
<g><path style="opacity:0.343" fill="#e58a4d" d="M 327.5,157.5 C 325.819,159.008 323.819,160.008 321.5,160.5C 321.833,159.833 322.167,159.167 322.5,158.5C 324.117,157.962 325.784,157.629 327.5,157.5 Z"/></g>
<g><path style="opacity:1" fill="#ee985f" d="M 101.5,160.5 C 102.5,160.833 103.167,161.5 103.5,162.5C 98.1346,165.498 97.468,164.832 101.5,160.5 Z"/></g>
<g><path style="opacity:0.948" fill="#f98c41" d="M 44.5,161.5 C 43.746,166.463 43.4126,171.463 43.5,176.5C 36.5393,179.647 29.8727,183.313 23.5,187.5C 21.9177,184.124 21.2511,180.458 21.5,176.5C 29.3374,171.749 37.004,166.749 44.5,161.5 Z"/></g>
<g><path style="opacity:1" fill="#fa9755" d="M 64.5,183.5 C 63.5084,183.672 62.8417,183.338 62.5,182.5C 66.1395,179.516 70.1395,177.349 74.5,176C 71.2711,178.741 67.9378,181.241 64.5,183.5 Z"/></g>
<g><path style="opacity:0.968" fill="#f88b41" d="M 43.5,178.5 C 45.9716,186.968 51.6382,191.301 60.5,191.5C 51.7006,197.07 42.7006,202.404 33.5,207.5C 30.5722,206.409 28.4055,204.409 27,201.5C 25.3262,197.979 24.1596,194.313 23.5,190.5C 30.4114,186.925 37.0781,182.925 43.5,178.5 Z"/></g>
<g><path style="opacity:1" fill="#fa9551" d="M 328.5,182.5 C 326.5,182.5 324.5,182.5 322.5,182.5C 325.663,179.585 329.33,177.752 333.5,177C 331.627,178.704 329.96,180.537 328.5,182.5 Z"/></g>
<g><path style="opacity:1" fill="#fa924d" d="M 353.5,182.5 C 351.167,182.5 348.833,182.5 346.5,182.5C 349.206,180.265 352.206,178.765 355.5,178C 354.418,179.33 353.751,180.83 353.5,182.5 Z"/></g>
<g><path style="opacity:0.948" fill="#f58a41" d="M 299.5,174.5 C 300.49,178.386 301.49,182.386 302.5,186.5C 304.932,187.75 307.266,189.25 309.5,191C 318.676,191.17 327.676,191.67 336.5,192.5C 324.332,200.085 311.999,207.418 299.5,214.5C 296.116,214.66 292.783,214.327 289.5,213.5C 287.532,212.9 286.532,211.567 286.5,209.5C 287.239,209.631 287.906,209.464 288.5,209C 284.662,206.705 282.996,203.205 283.5,198.5C 285.882,197.649 287.882,196.316 289.5,194.5C 287.046,195.227 284.713,196.227 282.5,197.5C 281.694,194.722 280.694,191.888 279.5,189C 279.743,188.098 280.077,187.265 280.5,186.5C 286.833,182.5 293.167,178.5 299.5,174.5 Z M 292.5,192.5 C 292.027,193.906 291.027,194.573 289.5,194.5C 289.973,193.094 290.973,192.427 292.5,192.5 Z"/></g>
<g><path style="opacity:0.327" fill="#d37743" d="M 12.5,199.5 C 14.2451,201.033 15.2451,203.033 15.5,205.5C 13.0246,204.313 12.0246,202.313 12.5,199.5 Z"/></g>
<g><path style="opacity:0.729" fill="#ef8740" d="M 496.5,203.5 C 497.32,207.222 495.987,209.555 492.5,210.5C 493.079,207.669 494.412,205.336 496.5,203.5 Z"/></g>
<g><path style="opacity:0.743" fill="#ed8b3f" d="M 239.5,205.5 C 240.439,208.951 239.106,211.285 235.5,212.5C 236.079,209.669 237.412,207.336 239.5,205.5 Z"/></g>
<g><path style="opacity:0.82" fill="#d77b3d" d="M 16.5,208.5 C 17.6006,209.848 18.6006,211.348 19.5,213C 19.2716,213.399 18.9382,213.565 18.5,213.5C 16.7868,212.365 16.1201,210.698 16.5,208.5 Z"/></g>
<g><path style="opacity:0.035" fill="#dc7f3e" d="M 271.5,208.5 C 273.25,209.659 274.25,211.326 274.5,213.5C 272.75,212.341 271.75,210.674 271.5,208.5 Z"/></g>
<g><path style="opacity:0.959" fill="#eb7b3f" d="M 469.5,227.5 C 460.435,233.894 451.102,239.894 441.5,245.5C 440.203,240.934 440.203,236.267 441.5,231.5C 443.8,231.478 444.967,230.478 445,228.5C 443.887,229.305 442.721,229.972 441.5,230.5C 440.035,228.454 440.368,226.62 442.5,225C 449.833,224.333 457.167,224.333 464.5,225C 466.491,225.374 468.158,226.207 469.5,227.5 Z"/></g>
<g><path style="opacity:0.957" fill="#eb7b40" d="M 216.5,229.5 C 206.167,236.167 195.833,242.833 185.5,249.5C 185.5,244.833 185.5,240.167 185.5,235.5C 188.305,234.187 190.638,232.354 192.5,230C 192.167,229.5 191.833,229 191.5,228.5C 189.471,229.844 187.471,231.177 185.5,232.5C 184.532,230.393 184.198,228.059 184.5,225.5C 193.532,224.002 202.532,224.169 211.5,226C 213.584,226.697 215.251,227.864 216.5,229.5 Z"/></g>
<g><path style="opacity:0.982" fill="#eb7a3f" d="M 326.5,291.5 C 324.973,291.427 323.973,292.094 323.5,293.5C 308.366,301.568 293.366,309.901 278.5,318.5C 278.231,314.069 278.564,309.735 279.5,305.5C 282.135,304.189 284.469,302.522 286.5,300.5C 284.02,301.242 281.687,302.242 279.5,303.5C 279.5,299.5 279.5,295.5 279.5,291.5C 280.833,291.167 280.833,290.833 279.5,290.5C 279.822,271.748 280.655,253.082 282,234.5C 285.068,230.106 289.235,227.272 294.5,226C 305.161,225.5 315.828,225.333 326.5,225.5C 325.61,247.527 325.61,269.527 326.5,291.5 Z"/></g>
<g><path style="opacity:1" fill="#f9dba5" d="M 172.5,226.5 C 171.127,226.343 169.793,226.51 168.5,227C 160.5,233 152.5,239 144.5,245C 153.841,240.156 163.174,234.989 172.5,229.5C 172.5,237.167 172.5,244.833 172.5,252.5C 168.668,256.164 164.668,259.664 160.5,263C 164.528,261.49 168.528,259.657 172.5,257.5C 172.667,270.837 172.5,284.171 172,297.5C 171.722,298.416 171.222,299.082 170.5,299.5C 168.632,300.263 166.965,301.263 165.5,302.5C 161.345,301.258 157.678,299.258 154.5,296.5C 157.266,293.836 159.933,291.003 162.5,288C 158.14,289.349 154.14,291.516 150.5,294.5C 146.927,292.879 143.261,291.546 139.5,290.5C 141.628,287.87 143.961,285.37 146.5,283C 142.14,284.349 138.14,286.516 134.5,289.5C 128.441,289.254 122.441,289.587 116.5,290.5C 123.718,283.215 131.384,276.381 139.5,270C 121.799,279.022 104.465,288.855 87.5,299.5C 83.4838,294.294 81.3171,288.294 81,281.5C 80.812,267.277 81.6453,253.11 83.5,239C 83.3585,234.474 83.0252,229.974 82.5,225.5C 112.671,225.169 142.671,225.502 172.5,226.5 Z"/></g>
<g><path style="opacity:1" fill="#ef8145" d="M 100.5,226.5 C 104.846,226.334 109.179,226.501 113.5,227C 106.479,231.007 99.4793,234.673 92.5,238C 95.2997,234.225 97.9664,230.392 100.5,226.5 Z"/></g>
<g><path style="opacity:1" fill="#ee854a" d="M 172.5,226.5 C 172.5,227.5 172.5,228.5 172.5,229.5C 163.174,234.989 153.841,240.156 144.5,245C 152.5,239 160.5,233 168.5,227C 169.793,226.51 171.127,226.343 172.5,226.5 Z"/></g>
<g><path style="opacity:0.995" fill="#fadca5" d="M 360.5,225.5 C 358.372,228.13 356.039,230.63 353.5,233C 358.366,231.562 362.7,229.062 366.5,225.5C 372.5,225.5 378.5,225.5 384.5,225.5C 381.291,229.445 377.624,232.945 373.5,236C 380.068,233.047 386.402,229.547 392.5,225.5C 398.167,225.5 403.833,225.5 409.5,225.5C 404.277,230.789 398.61,235.623 392.5,240C 393.577,240.47 394.577,240.303 395.5,239.5C 396.167,239.5 396.5,239.167 396.5,238.5C 397.167,238.5 397.5,238.167 397.5,237.5C 397.833,237.5 398.167,237.5 398.5,237.5C 399.167,237.5 399.5,237.167 399.5,236.5C 400.492,236.672 401.158,236.338 401.5,235.5C 402.167,235.5 402.5,235.167 402.5,234.5C 403.492,234.672 404.158,234.338 404.5,233.5C 406.98,232.758 409.313,231.758 411.5,230.5C 414.54,229.32 417.206,227.653 419.5,225.5C 422.518,225.335 425.518,225.502 428.5,226C 427.556,228.719 427.223,231.552 427.5,234.5C 419.571,239.432 412.238,245.099 405.5,251.5C 413.069,247.93 420.403,243.93 427.5,239.5C 428.483,243.298 428.817,247.298 428.5,251.5C 424.798,253.024 421.464,255.19 418.5,258C 421.861,256.824 425.194,255.324 428.5,253.5C 429.645,265.758 429.812,278.091 429,290.5C 428.399,293.637 427.399,296.637 426,299.5C 423.757,301.282 421.257,301.782 418.5,301C 414.362,298.685 410.695,295.852 407.5,292.5C 408.906,289.586 410.906,287.086 413.5,285C 409.804,286.018 406.471,287.851 403.5,290.5C 397.32,288.43 390.987,287.597 384.5,288C 373.897,289.966 363.897,293.633 354.5,299C 351.28,300.352 347.947,301.186 344.5,301.5C 348.983,297.863 353.65,294.363 358.5,291C 352.674,293.246 347.007,296.08 341.5,299.5C 339.32,296.619 338.32,293.286 338.5,289.5C 349.604,281.575 360.604,273.408 371.5,265C 369.402,265.032 367.402,265.699 365.5,267C 356.799,272.684 347.799,277.851 338.5,282.5C 338.5,278.5 338.5,274.5 338.5,270.5C 344.271,266.576 349.937,262.409 355.5,258C 349.957,260.772 344.29,263.605 338.5,266.5C 338.5,252.833 338.5,239.167 338.5,225.5C 345.833,225.5 353.167,225.5 360.5,225.5 Z M 411.5,230.5 C 409.313,231.758 406.98,232.758 404.5,233.5C 406.481,231.697 408.648,230.03 411,228.5C 411.464,229.094 411.631,229.761 411.5,230.5 Z"/></g>
<g><path style="opacity:1" fill="#ea8349" d="M 360.5,225.5 C 362.5,225.5 364.5,225.5 366.5,225.5C 362.7,229.062 358.366,231.562 353.5,233C 356.039,230.63 358.372,228.13 360.5,225.5 Z"/></g>
<g><path style="opacity:0.991" fill="#ec8348" d="M 384.5,225.5 C 387.167,225.5 389.833,225.5 392.5,225.5C 386.402,229.547 380.068,233.047 373.5,236C 377.624,232.945 381.291,229.445 384.5,225.5 Z"/></g>
<g><path style="opacity:0.974" fill="#ec7a3f" d="M 472.5,229.5 C 479.263,232.271 483.596,237.271 485.5,244.5C 470.833,254.167 456.167,263.833 441.5,273.5C 441.5,264.833 441.5,256.167 441.5,247.5C 452.033,241.737 462.366,235.737 472.5,229.5 Z"/></g>
<g><path style="opacity:0.954" fill="#ec7a40" d="M 220.5,232.5 C 224.217,233.92 226.55,236.587 227.5,240.5C 214.005,249.749 200.338,258.749 186.5,267.5C 185.513,262.695 185.179,257.695 185.5,252.5C 197.329,246.086 208.996,239.42 220.5,232.5 Z"/></g>
<g><path style="opacity:0.69" fill="#ee7f43" d="M 409.5,225.5 C 412.833,225.5 416.167,225.5 419.5,225.5C 417.206,227.653 414.54,229.32 411.5,230.5C 411.631,229.761 411.464,229.094 411,228.5C 408.648,230.03 406.481,231.697 404.5,233.5C 403.508,233.328 402.842,233.662 402.5,234.5C 401.833,234.5 401.5,234.833 401.5,235.5C 400.508,235.328 399.842,235.662 399.5,236.5C 398.833,236.5 398.5,236.833 398.5,237.5C 398.167,237.5 397.833,237.5 397.5,237.5C 396.833,237.5 396.5,237.833 396.5,238.5C 395.833,238.5 395.5,238.833 395.5,239.5C 394.577,240.303 393.577,240.47 392.5,240C 398.61,235.623 404.277,230.789 409.5,225.5 Z"/></g>
<g><path style="opacity:0.983" fill="#ec7a3f" d="M 186.5,270.5 C 200.699,262.234 215.032,254.234 229.5,246.5C 231.975,249.251 232.975,252.584 232.5,256.5C 230.973,256.427 229.973,257.094 229.5,258.5C 230.609,258.443 231.609,258.11 232.5,257.5C 233.916,276.731 233.583,296.065 231.5,315.5C 225.314,318.422 219.648,322.089 214.5,326.5C 220.298,323.767 225.965,320.767 231.5,317.5C 231.769,321.931 231.436,326.265 230.5,330.5C 222.205,335.474 214.205,340.808 206.5,346.5C 214.792,342.688 222.792,338.354 230.5,333.5C 231.812,341.068 231.812,348.735 230.5,356.5C 223.286,361.267 216.286,366.267 209.5,371.5C 216.658,368.088 223.658,364.422 230.5,360.5C 231.483,364.298 231.817,368.298 231.5,372.5C 229.973,372.427 228.973,373.094 228.5,374.5C 229.609,374.443 230.609,374.11 231.5,373.5C 233.51,381.351 233.844,389.351 232.5,397.5C 228.122,400.359 224.122,403.692 220.5,407.5C 224.5,405.5 228.5,403.5 232.5,401.5C 234.03,415.583 228.03,425.083 214.5,430C 211.633,430.801 208.966,430.634 206.5,429.5C 206.833,428.833 207.167,428.167 207.5,427.5C 205.847,427.66 204.514,428.326 203.5,429.5C 195.038,430.787 186.705,430.787 178.5,429.5C 181.473,427.194 184.14,424.527 186.5,421.5C 181.5,423.664 176.833,426.331 172.5,429.5C 158.549,430.465 144.549,430.799 130.5,430.5C 129.833,429.167 129.167,429.167 128.5,430.5C 120.685,431.709 113.018,431.709 105.5,430.5C 112.466,426.19 119.133,421.523 125.5,416.5C 116.499,420.998 107.832,425.998 99.5,431.5C 86.2775,431.356 73.2775,431.023 60.5,430.5C 67.8704,425.487 75.2038,420.487 82.5,415.5C 73.6739,419.41 65.3405,424.077 57.5,429.5C 52.7824,430.333 48.1158,429.833 43.5,428C 42.944,427.617 42.6107,427.117 42.5,426.5C 50.1667,421.167 57.8333,415.833 65.5,410.5C 56.4986,414.998 47.832,419.998 39.5,425.5C 32.1777,423.01 27.3444,418.01 25,410.5C 21.9559,399.936 20.7892,389.27 21.5,378.5C 22.1667,378.5 22.5,378.167 22.5,377.5C 20.1581,373.884 19.8247,369.884 21.5,365.5C 42.4632,351.858 63.1298,337.858 83.5,323.5C 62.8606,335.155 42.194,346.821 21.5,358.5C 20.2092,354.601 20.2092,350.601 21.5,346.5C 37.2156,336.649 52.549,326.316 67.5,315.5C 51.9273,323.738 36.594,332.405 21.5,341.5C 21.2307,337.069 21.564,332.735 22.5,328.5C 30.2172,323.982 37.5505,318.982 44.5,313.5C 37.1937,317.488 29.8604,321.488 22.5,325.5C 22.6115,313.826 22.9448,302.159 23.5,290.5C 24.1667,290.5 24.5,290.167 24.5,289.5C 33.4758,283.185 42.1425,276.519 50.5,269.5C 41.5984,273.736 32.9318,278.403 24.5,283.5C 23.2057,279.267 23.2057,274.934 24.5,270.5C 25.8333,269.833 26.8333,268.833 27.5,267.5C 26.391,267.557 25.391,267.89 24.5,268.5C 24.5,263.5 24.5,258.5 24.5,253.5C 25.8333,253.167 25.8333,252.833 24.5,252.5C 21.501,235.337 28.6677,226.337 46,225.5C 54.1503,226.258 62.317,226.592 70.5,226.5C 69.6654,246.663 69.4987,266.996 70,287.5C 73.1287,309.316 84.6287,315.149 104.5,305C 111.627,301.367 118.627,297.534 125.5,293.5C 137.238,301.468 150.071,306.802 164,309.5C 176.4,308.775 183.067,302.108 184,289.5C 184.89,283.123 185.723,276.79 186.5,270.5 Z M 37.5,233.5 C 38.3764,233.631 39.0431,233.298 39.5,232.5C 38.3061,231.33 37.6395,231.663 37.5,233.5 Z M 214.5,326.5 C 214.027,327.906 213.027,328.573 211.5,328.5C 211.973,327.094 212.973,326.427 214.5,326.5 Z M 206.5,346.5 C 206.027,347.906 205.027,348.573 203.5,348.5C 203.973,347.094 204.973,346.427 206.5,346.5 Z M 25.5,375.5 C 25.0269,376.906 24.0269,377.573 22.5,377.5C 22.9731,376.094 23.9731,375.427 25.5,375.5 Z M 85.5,413.5 C 85.0269,414.906 84.0269,415.573 82.5,415.5C 82.9731,414.094 83.9731,413.427 85.5,413.5 Z M 82.5,415.5 C 75.2038,420.487 67.8704,425.487 60.5,430.5C 59.209,430.737 58.209,430.404 57.5,429.5C 65.3405,424.077 73.6739,419.41 82.5,415.5 Z M 125.5,416.5 C 119.133,421.523 112.466,426.19 105.5,430.5C 103.5,430.833 101.5,431.167 99.5,431.5C 107.832,425.998 116.499,420.998 125.5,416.5 Z M 186.5,421.5 C 184.14,424.527 181.473,427.194 178.5,429.5C 176.5,429.5 174.5,429.5 172.5,429.5C 176.833,426.331 181.5,423.664 186.5,421.5 Z M 207.5,427.5 C 207.167,428.167 206.833,428.833 206.5,429.5C 205.5,429.5 204.5,429.5 203.5,429.5C 204.514,428.326 205.847,427.66 207.5,427.5 Z"/></g>
<g><path style="opacity:1" fill="#ee8449" d="M 172.5,252.5 C 172.5,254.167 172.5,255.833 172.5,257.5C 168.528,259.657 164.528,261.49 160.5,263C 164.668,259.664 168.668,256.164 172.5,252.5 Z"/></g>
<g><path style="opacity:1" fill="#f19257" d="M 428.5,251.5 C 428.5,252.167 428.5,252.833 428.5,253.5C 425.194,255.324 421.861,256.824 418.5,258C 421.464,255.19 424.798,253.024 428.5,251.5 Z"/></g>
<g><path style="opacity:1" fill="#ee864b" d="M 338.5,270.5 C 338.5,269.167 338.5,267.833 338.5,266.5C 344.29,263.605 349.957,260.772 355.5,258C 349.937,262.409 344.271,266.576 338.5,270.5 Z"/></g>
<g><path style="opacity:0.982" fill="#ec7a3f" d="M 486.5,250.5 C 488.414,253.684 489.08,257.351 488.5,261.5C 477.648,267.422 467.315,274.089 457.5,281.5C 468.333,276.254 478.666,270.254 488.5,263.5C 489.483,267.298 489.817,271.298 489.5,275.5C 476.291,283.932 463.291,292.598 450.5,301.5C 463.635,294.432 476.635,287.099 489.5,279.5C 489.769,283.931 489.436,288.265 488.5,292.5C 486.973,292.427 485.973,293.094 485.5,294.5C 486.609,294.443 487.609,294.11 488.5,293.5C 488.518,301.851 488.185,310.184 487.5,318.5C 469.616,329.391 452.282,341.057 435.5,353.5C 452.635,344.098 469.635,334.432 486.5,324.5C 487.492,331.982 487.825,339.648 487.5,347.5C 486.167,347.833 486.167,348.167 487.5,348.5C 487.457,359.514 487.791,370.514 488.5,381.5C 480.517,387.486 472.851,393.819 465.5,400.5C 473.167,396.5 480.833,392.5 488.5,388.5C 489.794,392.733 489.794,397.066 488.5,401.5C 486.5,402.833 484.833,404.5 483.5,406.5C 485.284,406.107 486.95,405.441 488.5,404.5C 488.987,417.722 482.987,426.222 470.5,430C 459.992,430.825 449.658,430.659 439.5,429.5C 440.833,428.833 441.833,427.833 442.5,426.5C 440.181,426.992 438.181,427.992 436.5,429.5C 428.221,430.44 419.888,430.773 411.5,430.5C 418.5,424.5 425.5,418.5 432.5,412.5C 421.667,417.746 411.334,423.746 401.5,430.5C 381.867,431.464 362.2,431.797 342.5,431.5C 342.167,430.167 341.833,430.167 341.5,431.5C 331.828,431.666 322.161,431.5 312.5,431C 309.478,430.902 306.811,430.068 304.5,428.5C 316.216,421.315 327.549,413.649 338.5,405.5C 343.438,404.608 348.438,404.274 353.5,404.5C 356.228,404.829 358.562,404.163 360.5,402.5C 372.357,397.782 376.524,389.115 373,376.5C 371.932,373.129 370.765,369.796 369.5,366.5C 349.98,360.719 330.313,360.053 310.5,364.5C 310.5,364.167 310.5,363.833 310.5,363.5C 308.973,363.427 307.973,364.094 307.5,365.5C 307.167,365.5 306.833,365.5 306.5,365.5C 305.833,365.5 305.5,365.833 305.5,366.5C 305.167,366.5 304.833,366.5 304.5,366.5C 303.833,366.5 303.5,366.833 303.5,367.5C 302.833,367.5 302.5,367.833 302.5,368.5C 293.674,372.41 285.341,377.077 277.5,382.5C 276.206,378.267 276.206,373.934 277.5,369.5C 296.714,357.945 315.381,345.611 333.5,332.5C 314.5,342.664 295.833,353.331 277.5,364.5C 276.218,356.962 276.218,349.295 277.5,341.5C 287.881,335.316 297.881,328.65 307.5,321.5C 297.7,326.567 288.033,331.901 278.5,337.5C 277.209,333.601 277.209,329.601 278.5,325.5C 293.713,315.067 308.713,304.4 323.5,293.5C 324.609,293.443 325.609,293.11 326.5,292.5C 329.704,307.442 338.704,312.609 353.5,308C 362.776,304.361 371.776,300.195 380.5,295.5C 391.481,300.883 402.815,305.383 414.5,309C 421.215,310.248 427.548,309.248 433.5,306C 435.123,303.92 436.623,301.754 438,299.5C 440.312,291.674 441.478,283.674 441.5,275.5C 456.634,267.432 471.634,259.099 486.5,250.5 Z M 485.5,294.5 C 485.027,295.906 484.027,296.573 482.5,296.5C 482.973,295.094 483.973,294.427 485.5,294.5 Z M 336.5,330.5 C 336.027,331.906 335.027,332.573 333.5,332.5C 333.973,331.094 334.973,330.427 336.5,330.5 Z M 310.5,363.5 C 310.5,363.833 310.5,364.167 310.5,364.5C 309.609,365.11 308.609,365.443 307.5,365.5C 307.973,364.094 308.973,363.427 310.5,363.5 Z M 465.5,400.5 C 465.027,401.906 464.027,402.573 462.5,402.5C 462.973,401.094 463.973,400.427 465.5,400.5 Z M 483.5,406.5 C 483.027,407.906 482.027,408.573 480.5,408.5C 480.973,407.094 481.973,406.427 483.5,406.5 Z M 432.5,412.5 C 425.5,418.5 418.5,424.5 411.5,430.5C 408.167,430.5 404.833,430.5 401.5,430.5C 411.334,423.746 421.667,417.746 432.5,412.5 Z M 442.5,426.5 C 441.833,427.833 440.833,428.833 439.5,429.5C 438.5,429.5 437.5,429.5 436.5,429.5C 438.181,427.992 440.181,426.992 442.5,426.5 Z"/></g>
<g><path style="opacity:0.972" fill="#ee8146" d="M 338.5,289.5 C 338.5,287.167 338.5,284.833 338.5,282.5C 347.799,277.851 356.799,272.684 365.5,267C 367.402,265.699 369.402,265.032 371.5,265C 360.604,273.408 349.604,281.575 338.5,289.5 Z"/></g>
<g><path style="opacity:1" fill="#ee8449" d="M 95.5,268.5 C 97.8418,268.775 97.8418,269.608 95.5,271C 91,274.167 86.5,277.333 82,280.5C 81.2195,279.056 81.3861,277.723 82.5,276.5C 87.0645,274.059 91.3979,271.392 95.5,268.5 Z"/></g>
<g><path style="opacity:0.978" fill="#ea7d43" d="M 116.5,290.5 C 107.494,293.498 99.1608,297.831 91.5,303.5C 89.812,302.479 88.4787,301.145 87.5,299.5C 104.465,288.855 121.799,279.022 139.5,270C 131.384,276.381 123.718,283.215 116.5,290.5 Z"/></g>
<g><path style="opacity:1" fill="#e37e46" d="M 139.5,290.5 C 137.784,290.371 136.117,290.038 134.5,289.5C 138.14,286.516 142.14,284.349 146.5,283C 143.961,285.37 141.628,287.87 139.5,290.5 Z"/></g>
<g><path style="opacity:1" fill="#eb8148" d="M 407.5,292.5 C 405.847,292.34 404.514,291.674 403.5,290.5C 406.471,287.851 409.804,286.018 413.5,285C 410.906,287.086 408.906,289.586 407.5,292.5 Z"/></g>
<g><path style="opacity:1" fill="#eb8248" d="M 154.5,296.5 C 152.938,296.267 151.605,295.6 150.5,294.5C 154.14,291.516 158.14,289.349 162.5,288C 159.933,291.003 157.266,293.836 154.5,296.5 Z"/></g>
<g><path style="opacity:1" fill="#e88249" d="M 344.5,301.5 C 343.29,301.068 342.29,300.401 341.5,299.5C 347.007,296.08 352.674,293.246 358.5,291C 353.65,294.363 348.983,297.863 344.5,301.5 Z"/></g>
<g><path style="opacity:1" fill="#e57f48" d="M 170.5,299.5 C 169.952,302.084 168.285,303.084 165.5,302.5C 166.965,301.263 168.632,300.263 170.5,299.5 Z"/></g>
<g><path style="opacity:1" fill="#2a2827" d="M 74.5,405.5 C 67.3448,404.671 60.0115,404.171 52.5,404C 47.7954,400.774 44.9621,396.274 44,390.5C 42.7813,382.608 43.9479,375.108 47.5,368C 57.0921,362.448 67.4255,360.281 78.5,361.5C 90.1113,361.035 101.445,362.535 112.5,366C 116.065,369.734 117.731,374.234 117.5,379.5C 119.898,393.569 114.231,402.069 100.5,405C 91.7351,405.288 83.0684,405.455 74.5,405.5 Z"/></g>
<g><path style="opacity:0.996" fill="#292727" d="M 360.5,402.5 C 357.933,402.721 355.599,403.388 353.5,404.5C 348.438,404.274 343.438,404.608 338.5,405.5C 337.167,405.5 335.833,405.5 334.5,405.5C 326.343,404.671 318.01,404.171 309.5,404C 306.898,403.117 304.731,401.617 303,399.5C 301.509,395.457 300.342,391.457 299.5,387.5C 299.5,386.5 299.5,385.5 299.5,384.5C 299.709,379.333 300.709,374.333 302.5,369.5C 302.5,369.167 302.5,368.833 302.5,368.5C 303.167,368.5 303.5,368.167 303.5,367.5C 304.167,367.5 304.5,367.167 304.5,366.5C 304.833,366.5 305.167,366.5 305.5,366.5C 306.167,366.5 306.5,366.167 306.5,365.5C 306.833,365.5 307.167,365.5 307.5,365.5C 308.609,365.443 309.609,365.11 310.5,364.5C 330.313,360.053 349.98,360.719 369.5,366.5C 370.765,369.796 371.932,373.129 373,376.5C 376.524,389.115 372.357,397.782 360.5,402.5 Z"/></g>
<g><path style="opacity:1" fill="#928c89" d="M 71.5,370.5 C 66.9362,371.216 62.2695,371.883 57.5,372.5C 61.7147,370.564 66.3814,369.897 71.5,370.5 Z"/></g>
<g><path style="opacity:1" fill="#fbfaf9" d="M 71.5,370.5 C 75.5,370.5 79.5,370.5 83.5,370.5C 80.8347,373.335 78.3347,376.335 76,379.5C 75.3333,380.167 75.3333,380.833 76,381.5C 82.1505,378.184 87.9838,374.517 93.5,370.5C 99.225,371.056 103.058,374.056 105,379.5C 105.751,384.572 105.418,389.572 104,394.5C 103.692,395.308 103.192,395.975 102.5,396.5C 100.929,395.691 99.2624,395.357 97.5,395.5C 98.3029,394.577 98.4696,393.577 98,392.5C 96.3484,393.399 94.8484,394.399 93.5,395.5C 86.815,396.057 80.1483,396.724 73.5,397.5C 75.9619,394.536 78.6286,391.703 81.5,389C 76.4725,391.132 71.4725,393.632 66.5,396.5C 61.9625,396.736 58.9625,394.736 57.5,390.5C 57.7438,387.737 59.0771,385.571 61.5,384C 59.8107,384.134 58.144,384.634 56.5,385.5C 56.2941,381.102 56.6274,376.768 57.5,372.5C 62.2695,371.883 66.9362,371.216 71.5,370.5 Z"/></g>
<g><path style="opacity:1" fill="#e57d47" d="M 93.5,370.5 C 87.9838,374.517 82.1505,378.184 76,381.5C 75.3333,380.833 75.3333,380.167 76,379.5C 78.3347,376.335 80.8347,373.335 83.5,370.5C 86.8333,369.167 90.1667,369.167 93.5,370.5 Z"/></g>
<g><path style="opacity:0.96" fill="#ec7a3f" d="M 302.5,369.5 C 300.709,374.333 299.709,379.333 299.5,384.5C 292.663,388.753 285.663,392.753 278.5,396.5C 277.518,393.038 277.185,389.371 277.5,385.5C 285.833,380.167 294.167,374.833 302.5,369.5 Z"/></g>
<g><path style="opacity:0.998" fill="#f9f6f5" d="M 344.5,369.5 C 341.547,373.625 338.381,377.625 335,381.5C 334.333,382.167 334.333,382.833 335,383.5C 341.474,379.683 347.974,376.016 354.5,372.5C 357.735,373.267 359.901,375.267 361,378.5C 361.732,384.61 361.232,390.61 359.5,396.5C 350.815,396.464 342.149,396.797 333.5,397.5C 334.625,395.871 335.959,394.371 337.5,393C 334.206,393.765 331.206,395.265 328.5,397.5C 322.865,398.18 318.199,396.513 314.5,392.5C 316.934,389.562 319.601,386.729 322.5,384C 319.143,385.123 315.81,386.623 312.5,388.5C 311.209,382.437 311.543,376.437 313.5,370.5C 316.833,370.5 320.167,370.5 323.5,370.5C 323.833,371.833 324.167,371.833 324.5,370.5C 331.123,369.62 337.789,369.287 344.5,369.5 Z"/></g>
<g><path style="opacity:1" fill="#eb8048" d="M 344.5,369.5 C 348.171,369.757 351.505,370.757 354.5,372.5C 347.974,376.016 341.474,379.683 335,383.5C 334.333,382.833 334.333,382.167 335,381.5C 338.381,377.625 341.547,373.625 344.5,369.5 Z"/></g>
<g><path style="opacity:0.948" fill="#ea8049" d="M 314.5,392.5 C 313.4,391.395 312.733,390.062 312.5,388.5C 315.81,386.623 319.143,385.123 322.5,384C 319.601,386.729 316.934,389.562 314.5,392.5 Z"/></g>
<g><path style="opacity:1" fill="#9e674b" d="M 57.5,390.5 C 56.5489,389.081 56.2155,387.415 56.5,385.5C 58.144,384.634 59.8107,384.134 61.5,384C 59.0771,385.571 57.7438,387.737 57.5,390.5 Z"/></g>
<g><path style="opacity:1" fill="#ea8855" d="M 73.5,397.5 C 70.9407,397.802 68.6074,397.468 66.5,396.5C 71.4725,393.632 76.4725,391.132 81.5,389C 78.6286,391.703 75.9619,394.536 73.5,397.5 Z"/></g>
<g><path style="opacity:1" fill="#ef8752" d="M 97.5,395.5 C 96.1667,395.5 94.8333,395.5 93.5,395.5C 94.8484,394.399 96.3484,393.399 98,392.5C 98.4696,393.577 98.3029,394.577 97.5,395.5 Z"/></g>
<g><path style="opacity:1" fill="#e87e47" d="M 333.5,397.5 C 331.833,397.5 330.167,397.5 328.5,397.5C 331.206,395.265 334.206,393.765 337.5,393C 335.959,394.371 334.625,395.871 333.5,397.5 Z"/></g>
<g><path style="opacity:0.95" fill="#ea793f" d="M 299.5,387.5 C 300.342,391.457 301.509,395.457 303,399.5C 304.731,401.617 306.898,403.117 309.5,404C 318.01,404.171 326.343,404.671 334.5,405.5C 322.136,412.01 310.136,419.01 298.5,426.5C 289.952,424.953 284.619,419.953 282.5,411.5C 283.167,411.5 283.5,411.167 283.5,410.5C 282.5,410.5 281.5,410.5 280.5,410.5C 279.626,407.211 278.959,403.877 278.5,400.5C 285.668,396.417 292.668,392.084 299.5,387.5 Z M 288.5,407.5 C 287.341,409.25 285.674,410.25 283.5,410.5C 284.659,408.75 286.326,407.75 288.5,407.5 Z"/></g>
<g><path style="opacity:1" fill="#c5b2a9" d="M 360.5,402.5 C 358.562,404.163 356.228,404.829 353.5,404.5C 355.599,403.388 357.933,402.721 360.5,402.5 Z"/></g>
<g><path style="opacity:0.7" fill="#e16e41" d="M 493.5,423.5 C 493.938,423.435 494.272,423.601 494.5,424C 493.809,425.067 493.309,426.234 493,427.5C 492.329,428.252 491.496,428.586 490.5,428.5C 491.263,426.632 492.263,424.965 493.5,423.5 Z"/></g>
<g><path style="opacity:0.035" fill="#d66a35" d="M 238.5,423.5 C 238.25,425.674 237.25,427.341 235.5,428.5C 235.259,425.966 236.259,424.3 238.5,423.5 Z"/></g>
<g><path style="opacity:0.983" fill="#8e5b4a" d="M 22.5,438.5 C 21.6971,439.423 21.5304,440.423 22,441.5C 23.6516,440.601 25.1516,439.601 26.5,438.5C 33.2547,437.877 39.588,438.544 45.5,440.5C 42.6158,443.239 39.9491,446.239 37.5,449.5C 37.6667,449.833 37.8333,450.167 38,450.5C 40.4795,448.686 42.9795,447.019 45.5,445.5C 47.3084,445.509 48.9751,445.009 50.5,444C 53.4068,442.391 56.0734,440.558 58.5,438.5C 71.8387,438.66 85.172,438.993 98.5,439.5C 97.2073,441.296 95.7073,442.963 94,444.5C 93.5172,445.448 93.3505,446.448 93.5,447.5C 99.0246,446.071 104.025,443.571 108.5,440C 105.518,439.502 102.518,439.335 99.5,439.5C 108.653,439.047 117.987,439.047 127.5,439.5C 126.139,441.85 124.806,444.184 123.5,446.5C 122.4,447.605 121.733,448.938 121.5,450.5C 125.836,448.668 129.836,446.335 133.5,443.5C 136.754,443.206 139.421,441.873 141.5,439.5C 147.833,439.5 154.167,439.5 160.5,439.5C 160.267,441.062 159.6,442.395 158.5,443.5C 161.004,442.416 163.337,441.083 165.5,439.5C 178.167,439.5 190.833,439.5 203.5,439.5C 201.807,442.184 200.14,444.851 198.5,447.5C 198.167,448.167 197.833,448.833 197.5,449.5C 199.153,449.34 200.486,448.674 201.5,447.5C 206.5,445.336 211.167,442.669 215.5,439.5C 222.5,439.5 229.5,439.5 236.5,439.5C 233.785,442.214 231.451,445.214 229.5,448.5C 235.165,446.003 240.498,443.003 245.5,439.5C 252.5,439.5 259.5,439.5 266.5,439.5C 263.415,443.246 260.749,447.246 258.5,451.5C 265.534,447.988 272.201,443.988 278.5,439.5C 294.667,438.673 310.667,438.673 326.5,439.5C 326.167,439.5 325.833,439.5 325.5,439.5C 321.31,439.023 318.31,440.689 316.5,444.5C 316.167,445.167 315.833,445.833 315.5,446.5C 318.331,445.921 320.664,444.588 322.5,442.5C 324.819,442.008 326.819,441.008 328.5,439.5C 350.24,438.171 371.573,438.171 392.5,439.5C 399.109,438.577 405.776,438.244 412.5,438.5C 410.588,440.657 408.921,442.991 407.5,445.5C 408.167,446.833 408.833,446.833 409.5,445.5C 411.027,445.573 412.027,444.906 412.5,443.5C 413.492,443.672 414.158,443.338 414.5,442.5C 415.492,442.672 416.158,442.338 416.5,441.5C 418.027,441.573 419.027,440.906 419.5,439.5C 433.451,438.535 447.451,438.201 461.5,438.5C 458.761,441.233 456.427,444.233 454.5,447.5C 454.833,448.833 455.167,448.833 455.5,447.5C 461.35,445.293 466.684,442.293 471.5,438.5C 477.833,438.5 484.167,438.5 490.5,438.5C 488.485,441.838 485.985,444.838 483,447.5C 482.333,448.167 482.333,448.833 483,449.5C 486.778,447.03 490.611,444.697 494.5,442.5C 495.75,442.577 496.583,443.244 497,444.5C 497.826,451.609 497.326,458.609 495.5,465.5C 481.99,465.829 468.656,465.496 455.5,464.5C 456.167,464.5 456.5,464.167 456.5,463.5C 457.167,463.5 457.5,463.167 457.5,462.5C 459.6,459.896 461.933,457.396 464.5,455C 461.664,455.085 459.331,456.251 457.5,458.5C 453.144,459.511 449.144,461.344 445.5,464C 439.5,464.667 433.5,464.667 427.5,464C 430.094,461.914 432.094,459.414 433.5,456.5C 433.167,455.167 432.833,455.167 432.5,456.5C 428.067,457.214 424.4,459.214 421.5,462.5C 420.29,462.932 419.29,463.599 418.5,464.5C 411.081,465.816 404.081,465.816 397.5,464.5C 390.704,465.774 384.037,465.774 377.5,464.5C 379.909,462.098 381.909,459.431 383.5,456.5C 378.963,458.93 374.63,461.597 370.5,464.5C 363.358,465.738 356.358,465.738 349.5,464.5C 350.183,463.356 349.849,463.356 348.5,464.5C 335.705,465.803 323.039,465.803 310.5,464.5C 311.5,463.167 312.5,461.833 313.5,460.5C 310.669,461.079 308.336,462.412 306.5,464.5C 305.5,464.5 304.5,464.5 303.5,464.5C 297.824,464.666 292.157,464.499 286.5,464C 289.118,461.894 291.118,459.394 292.5,456.5C 287.193,458.288 282.193,460.788 277.5,464C 271.5,464.667 265.5,464.667 259.5,464C 260.5,463 261.5,462 262.5,461C 260.193,461.642 257.859,462.642 255.5,464C 249.175,464.5 242.842,464.666 236.5,464.5C 239.123,460.098 242.123,455.931 245.5,452C 240.7,453.733 236.034,456.066 231.5,459C 230.594,460.699 230.261,462.533 230.5,464.5C 221.068,465.816 211.735,465.816 202.5,464.5C 205.547,461.455 208.213,458.122 210.5,454.5C 204.332,457.08 198.665,460.414 193.5,464.5C 186.358,465.738 179.358,465.738 172.5,464.5C 175.421,460.981 178.087,457.314 180.5,453.5C 173.995,456.917 167.662,460.584 161.5,464.5C 148.372,465.804 135.372,465.804 122.5,464.5C 124.5,463.167 126.167,461.5 127.5,459.5C 124.008,460.41 121.008,462.076 118.5,464.5C 111.371,465.777 104.371,465.777 97.5,464.5C 100.488,460.538 103.488,456.538 106.5,452.5C 99.3293,456.251 92.3293,460.251 85.5,464.5C 77.0381,465.787 68.7047,465.787 60.5,464.5C 65.2542,462.461 69.2542,459.461 72.5,455.5C 66.835,457.997 61.5016,460.997 56.5,464.5C 49.3709,465.777 42.3709,465.777 35.5,464.5C 36.5,464.167 37.1667,463.5 37.5,462.5C 35.847,462.66 34.5137,463.326 33.5,464.5C 29.2201,465.54 24.8868,465.706 20.5,465C 17.2108,463.59 15.5441,461.09 15.5,457.5C 18.1979,457.155 20.1979,455.822 21.5,453.5C 19.0202,454.242 16.6869,455.242 14.5,456.5C 13.281,450.643 13.281,444.643 14.5,438.5C 17.1667,438.5 19.8333,438.5 22.5,438.5 Z M 22.5,438.5 C 23.8333,438.5 25.1667,438.5 26.5,438.5C 25.1516,439.601 23.6516,440.601 22,441.5C 21.5304,440.423 21.6971,439.423 22.5,438.5 Z M 160.5,439.5 C 162.167,439.5 163.833,439.5 165.5,439.5C 163.337,441.083 161.004,442.416 158.5,443.5C 159.6,442.395 160.267,441.062 160.5,439.5 Z M 236.5,439.5 C 239.5,439.5 242.5,439.5 245.5,439.5C 240.498,443.003 235.165,446.003 229.5,448.5C 231.451,445.214 233.785,442.214 236.5,439.5 Z M 266.5,439.5 C 270.5,439.5 274.5,439.5 278.5,439.5C 272.201,443.988 265.534,447.988 258.5,451.5C 260.749,447.246 263.415,443.246 266.5,439.5 Z M 325.5,439.5 C 325.833,439.5 326.167,439.5 326.5,439.5C 327.167,439.5 327.833,439.5 328.5,439.5C 326.819,441.008 324.819,442.008 322.5,442.5C 323.306,441.272 324.306,440.272 325.5,439.5 Z M 419.5,439.5 C 419.027,440.906 418.027,441.573 416.5,441.5C 416.973,440.094 417.973,439.427 419.5,439.5 Z M 45.5,440.5 C 45.5,442.167 45.5,443.833 45.5,445.5C 42.9795,447.019 40.4795,448.686 38,450.5C 37.8333,450.167 37.6667,449.833 37.5,449.5C 39.9491,446.239 42.6158,443.239 45.5,440.5 Z M 133.5,441.5 C 133.5,442.167 133.5,442.833 133.5,443.5C 129.836,446.335 125.836,448.668 121.5,450.5C 121.733,448.938 122.4,447.605 123.5,446.5C 126.807,444.847 130.14,443.18 133.5,441.5 Z M 322.5,442.5 C 320.664,444.588 318.331,445.921 315.5,446.5C 315.833,445.833 316.167,445.167 316.5,444.5C 318.5,443.833 320.5,443.167 322.5,442.5 Z M 412.5,443.5 C 412.027,444.906 411.027,445.573 409.5,445.5C 409.973,444.094 410.973,443.427 412.5,443.5 Z M 198.5,447.5 C 199.5,447.5 200.5,447.5 201.5,447.5C 200.486,448.674 199.153,449.34 197.5,449.5C 197.833,448.833 198.167,448.167 198.5,447.5 Z M 236.5,464.5 C 234.5,464.5 232.5,464.5 230.5,464.5C 230.261,462.533 230.594,460.699 231.5,459C 236.034,456.066 240.7,453.733 245.5,452C 242.123,455.931 239.123,460.098 236.5,464.5 Z M 106.5,452.5 C 103.488,456.538 100.488,460.538 97.5,464.5C 93.5,464.5 89.5,464.5 85.5,464.5C 92.3293,460.251 99.3293,456.251 106.5,452.5 Z M 180.5,453.5 C 178.087,457.314 175.421,460.981 172.5,464.5C 168.833,464.5 165.167,464.5 161.5,464.5C 167.662,460.584 173.995,456.917 180.5,453.5 Z M 210.5,454.5 C 208.213,458.122 205.547,461.455 202.5,464.5C 199.5,464.5 196.5,464.5 193.5,464.5C 198.665,460.414 204.332,457.08 210.5,454.5 Z M 457.5,462.5 C 457.5,461.167 457.5,459.833 457.5,458.5C 459.331,456.251 461.664,455.085 464.5,455C 461.933,457.396 459.6,459.896 457.5,462.5 Z M 72.5,455.5 C 69.2542,459.461 65.2542,462.461 60.5,464.5C 59.1667,464.5 57.8333,464.5 56.5,464.5C 61.5016,460.997 66.835,457.997 72.5,455.5 Z M 383.5,456.5 C 381.909,459.431 379.909,462.098 377.5,464.5C 375.167,464.5 372.833,464.5 370.5,464.5C 374.63,461.597 378.963,458.93 383.5,456.5 Z M 127.5,459.5 C 126.167,461.5 124.5,463.167 122.5,464.5C 121.167,464.5 119.833,464.5 118.5,464.5C 121.008,462.076 124.008,460.41 127.5,459.5 Z M 313.5,460.5 C 312.5,461.833 311.5,463.167 310.5,464.5C 309.167,464.5 307.833,464.5 306.5,464.5C 308.336,462.412 310.669,461.079 313.5,460.5 Z M 37.5,462.5 C 37.1667,463.5 36.5,464.167 35.5,464.5C 34.8333,464.5 34.1667,464.5 33.5,464.5C 34.5137,463.326 35.847,462.66 37.5,462.5 Z M 421.5,462.5 C 421.5,463.167 421.5,463.833 421.5,464.5C 420.5,464.5 419.5,464.5 418.5,464.5C 419.29,463.599 420.29,462.932 421.5,462.5 Z"/></g>
<g><path style="opacity:0.982" fill="#e87940" d="M 461.5,438.5 C 464.833,438.5 468.167,438.5 471.5,438.5C 466.684,442.293 461.35,445.293 455.5,447.5C 455.167,447.5 454.833,447.5 454.5,447.5C 456.427,444.233 458.761,441.233 461.5,438.5 Z"/></g>
<g><path style="opacity:0.936" fill="#e1763f" d="M 58.5,438.5 C 56.0734,440.558 53.4068,442.391 50.5,444C 48.9751,445.009 47.3084,445.509 45.5,445.5C 45.5,443.833 45.5,442.167 45.5,440.5C 46.1667,440.5 46.5,440.167 46.5,439.5C 50.4338,438.64 54.4338,438.307 58.5,438.5 Z"/></g>
<g><path style="opacity:1" fill="#dd7641" d="M 75.5,439.5 C 76.8734,439.343 78.2068,439.51 79.5,440C 76.2993,442.267 72.9659,443.934 69.5,445C 71.3962,442.932 73.3962,441.099 75.5,439.5 Z"/></g>
<g><path style="opacity:0.993" fill="#e77940" d="M 98.5,439.5 C 98.8333,439.5 99.1667,439.5 99.5,439.5C 102.518,439.335 105.518,439.502 108.5,440C 104.025,443.571 99.0246,446.071 93.5,447.5C 93.3505,446.448 93.5172,445.448 94,444.5C 95.7073,442.963 97.2073,441.296 98.5,439.5 Z"/></g>
<g><path style="opacity:0.861" fill="#e97940" d="M 127.5,439.5 C 132.167,439.5 136.833,439.5 141.5,439.5C 139.421,441.873 136.754,443.206 133.5,443.5C 133.5,442.833 133.5,442.167 133.5,441.5C 130.14,443.18 126.807,444.847 123.5,446.5C 124.806,444.184 126.139,441.85 127.5,439.5 Z"/></g>
<g><path style="opacity:0.908" fill="#ea7940" d="M 203.5,439.5 C 207.5,439.5 211.5,439.5 215.5,439.5C 211.167,442.669 206.5,445.336 201.5,447.5C 200.5,447.5 199.5,447.5 198.5,447.5C 200.14,444.851 201.807,442.184 203.5,439.5 Z"/></g>
<g><path style="opacity:0.879" fill="#ec763d" d="M 325.5,439.5 C 324.306,440.272 323.306,441.272 322.5,442.5C 320.5,443.167 318.5,443.833 316.5,444.5C 318.31,440.689 321.31,439.023 325.5,439.5 Z"/></g>
<g><path style="opacity:0.969" fill="#e67840" d="M 345.5,444.5 C 346.174,439.849 348.841,438.349 353.5,440C 350.941,441.777 348.274,443.277 345.5,444.5 Z"/></g>
<g><path style="opacity:0.9" fill="#e4753c" d="M 412.5,438.5 C 415.059,438.198 417.393,438.532 419.5,439.5C 417.973,439.427 416.973,440.094 416.5,441.5C 415.508,441.328 414.842,441.662 414.5,442.5C 413.508,442.328 412.842,442.662 412.5,443.5C 410.973,443.427 409.973,444.094 409.5,445.5C 408.833,445.5 408.167,445.5 407.5,445.5C 408.921,442.991 410.588,440.657 412.5,438.5 Z"/></g>
<g><path style="opacity:1" fill="#6f473b" d="M 292.5,456.5 C 291.118,459.394 289.118,461.894 286.5,464C 292.157,464.499 297.824,464.666 303.5,464.5C 281.167,465.833 258.833,465.833 236.5,464.5C 242.842,464.666 249.175,464.5 255.5,464C 257.859,462.642 260.193,461.642 262.5,461C 261.5,462 260.5,463 259.5,464C 265.5,464.667 271.5,464.667 277.5,464C 282.193,460.788 287.193,458.288 292.5,456.5 Z"/></g>
<g><path style="opacity:1" fill="#6b4438" d="M 432.5,456.5 C 432.833,456.5 433.167,456.5 433.5,456.5C 432.094,459.414 430.094,461.914 427.5,464C 433.5,464.667 439.5,464.667 445.5,464C 449.144,461.344 453.144,459.511 457.5,458.5C 457.5,459.833 457.5,461.167 457.5,462.5C 456.833,462.5 456.5,462.833 456.5,463.5C 455.833,463.5 455.5,463.833 455.5,464.5C 444.167,465.833 432.833,465.833 421.5,464.5C 421.5,463.833 421.5,463.167 421.5,462.5C 424.4,459.214 428.067,457.214 432.5,456.5 Z"/></g>
<g><path style="opacity:0.982" fill="#6f4436" d="M 71.5,472.5 C 70.5,473.833 69.5,475.167 68.5,476.5C 71.0041,475.416 73.3374,474.083 75.5,472.5C 76.5,472.5 77.5,472.5 78.5,472.5C 78.5,481.167 78.5,489.833 78.5,498.5C 70.1254,498.26 61.7921,498.593 53.5,499.5C 54.1667,498.5 54.8333,497.5 55.5,496.5C 53.1815,496.992 51.1815,497.992 49.5,499.5C 43.0738,500.12 37.0738,499.453 31.5,497.5C 35.1667,494.5 38.5,491.167 41.5,487.5C 36.4997,489.664 31.833,492.331 27.5,495.5C 24.2652,494.405 22.4318,492.072 22,488.5C 21.219,483.446 21.3857,478.446 22.5,473.5C 38.8197,472.501 55.1531,472.167 71.5,472.5 Z M 71.5,472.5 C 72.8333,472.5 74.1667,472.5 75.5,472.5C 73.3374,474.083 71.0041,475.416 68.5,476.5C 69.5,475.167 70.5,473.833 71.5,472.5 Z M 55.5,496.5 C 54.8333,497.5 54.1667,498.5 53.5,499.5C 52.1667,499.5 50.8333,499.5 49.5,499.5C 51.1815,497.992 53.1815,496.992 55.5,496.5 Z"/></g>
<g><path style="opacity:0.986" fill="#6f4336" d="M 254.5,472.5 C 253.5,473.833 252.5,475.167 251.5,476.5C 254.331,475.921 256.664,474.588 258.5,472.5C 266.833,472.5 275.167,472.5 283.5,472.5C 283.807,481.552 283.307,490.552 282,499.5C 276.068,500.825 270.234,500.825 264.5,499.5C 266.748,496.672 268.748,493.672 270.5,490.5C 264.661,493.585 258.994,496.918 253.5,500.5C 248.156,500.666 242.823,500.499 237.5,500C 236.953,499.075 236.287,498.242 235.5,497.5C 234.893,497.624 234.56,497.957 234.5,498.5C 229.319,496.442 226.985,492.775 227.5,487.5C 228.5,486.167 229.5,484.833 230.5,483.5C 229.391,483.557 228.391,483.89 227.5,484.5C 226.179,480.767 226.179,476.934 227.5,473C 236.494,472.5 245.494,472.334 254.5,472.5 Z M 254.5,472.5 C 255.833,472.5 257.167,472.5 258.5,472.5C 256.664,474.588 254.331,475.921 251.5,476.5C 252.5,475.167 253.5,473.833 254.5,472.5 Z M 270.5,490.5 C 268.748,493.672 266.748,496.672 264.5,499.5C 260.881,500.244 257.215,500.577 253.5,500.5C 258.994,496.918 264.661,493.585 270.5,490.5 Z"/></g>
<g><path style="opacity:0.984" fill="#6e4336" d="M 466.5,472.5 C 466.167,473.167 465.833,473.833 465.5,474.5C 467.153,474.34 468.486,473.674 469.5,472.5C 475.833,472.5 482.167,472.5 488.5,472.5C 488.711,481.439 488.378,490.439 487.5,499.5C 475.655,499.828 463.988,499.495 452.5,498.5C 455.306,495.272 458.306,492.272 461.5,489.5C 455.835,491.997 450.502,494.997 445.5,498.5C 440.874,499.3 437.04,497.966 434,494.5C 433.517,493.552 433.351,492.552 433.5,491.5C 434.5,490.167 435.5,488.833 436.5,487.5C 435.167,487.833 433.833,488.167 432.5,488.5C 431.196,483.63 431.196,478.63 432.5,473.5C 443.814,472.501 455.147,472.168 466.5,472.5 Z M 466.5,472.5 C 467.5,472.5 468.5,472.5 469.5,472.5C 468.486,473.674 467.153,474.34 465.5,474.5C 465.833,473.833 466.167,473.167 466.5,472.5 Z"/></g>
</svg>
