<?xml version="1.0" encoding="UTF-8"?>
<!DOCTYPE svg PUBLIC "-//W3C//DTD SVG 1.1//EN" "http://www.w3.org/Graphics/SVG/1.1/DTD/svg11.dtd">
<svg xmlns="http://www.w3.org/2000/svg" version="1.1" width="512px" height="512px" style="shape-rendering:geometricPrecision; text-rendering:geometricPrecision; image-rendering:optimizeQuality; fill-rule:evenodd; clip-rule:evenodd" xmlns:xlink="http://www.w3.org/1999/xlink">
<g><path style="opacity:0.957" fill="#000101" d="M 511.5,341.5 C 511.5,388.5 511.5,435.5 511.5,482.5C 508.483,489.679 503.15,494.179 495.5,496C 455.833,496.667 416.167,496.667 376.5,496C 367.786,493.287 362.619,487.454 361,478.5C 360.833,456.5 360.667,434.5 360.5,412.5C 360.364,388.466 360.864,364.466 362,340.5C 364.6,332.791 369.433,326.958 376.5,323C 385.167,317.667 393.833,312.333 402.5,307C 406.402,306.112 410.069,306.612 413.5,308.5C 415.338,312.805 414.672,316.639 411.5,320C 401.666,325.749 391.999,331.749 382.5,338C 380.083,339.663 378.25,341.829 377,344.5C 376.333,389.167 376.333,433.833 377,478.5C 377.816,479.823 378.983,480.489 380.5,480.5C 417.664,481.664 454.998,481.831 492.5,481C 494.333,480.5 495.5,479.333 496,477.5C 496.667,433.167 496.667,388.833 496,344.5C 494.542,342.04 492.709,339.873 490.5,338C 470.139,325.156 449.805,312.323 429.5,299.5C 428.513,280.576 428.18,261.576 428.5,242.5C 373.5,242.5 318.5,242.5 263.5,242.5C 263.167,258.847 263.501,275.18 264.5,291.5C 284.735,303.575 304.569,316.241 324,329.5C 326.435,332.934 328.435,336.6 330,340.5C 331.63,385.805 331.964,431.138 331,476.5C 330.274,486.556 325.108,493.056 315.5,496C 275.5,496.667 235.5,496.667 195.5,496C 186.357,493.188 181.19,487.022 180,477.5C 179.036,432.138 179.37,386.805 181,341.5C 182.856,334.641 186.689,329.141 192.5,325C 210.668,314.084 228.668,302.917 246.5,291.5C 247.499,275.18 247.833,258.847 247.5,242.5C 192.5,242.5 137.5,242.5 82.5,242.5C 82.1672,258.847 82.5006,275.18 83.5,291.5C 103.735,303.575 123.569,316.241 143,329.5C 147.255,334.348 149.589,340.015 150,346.5C 150.667,363.167 150.667,379.833 150,396.5C 149.101,400.57 146.601,402.57 142.5,402.5C 138.91,402.456 136.41,400.789 135,397.5C 134.667,379.833 134.333,362.167 134,344.5C 133.365,343.034 132.531,341.7 131.5,340.5C 112.669,328.25 93.6688,316.25 74.5,304.5C 72.1868,305.5 70.1868,306.834 68.5,308.5C 52.3852,318.108 36.3852,327.941 20.5,338C 18.2911,339.873 16.4578,342.04 15,344.5C 14.3333,388.833 14.3333,433.167 15,477.5C 15.4224,479.426 16.5891,480.426 18.5,480.5C 55.6644,481.664 92.9977,481.831 130.5,481C 131.931,480.535 133.097,479.701 134,478.5C 134.333,461.5 134.667,444.5 135,427.5C 136.41,424.211 138.91,422.544 142.5,422.5C 146.637,422.482 149.137,424.482 150,428.5C 150.667,444.833 150.667,461.167 150,477.5C 149.151,485.696 144.984,491.529 137.5,495C 96.8928,496.649 56.2261,496.983 15.5,496C 7.84985,494.179 2.51652,489.679 -0.5,482.5C -0.5,435.5 -0.5,388.5 -0.5,341.5C 1.67497,334.803 5.67497,329.303 11.5,325C 29.6677,314.084 47.6677,302.917 65.5,291.5C 66.3331,271.508 66.8331,251.508 67,231.5C 67.8333,229.333 69.3333,227.833 71.5,227C 130.166,226.5 188.832,226.333 247.5,226.5C 247.5,210.833 247.5,195.167 247.5,179.5C 230.163,179.667 212.83,179.5 195.5,179C 187.388,175.888 182.555,170.054 181,161.5C 180.034,126.461 180.367,91.4609 182,56.5C 184.167,50.3333 188.333,46.1667 194.5,44C 200.742,42.6304 207.075,42.1304 213.5,42.5C 211.589,30.489 215.923,21.6557 226.5,16C 249.783,14.3745 273.117,14.0412 296.5,15C 298.286,15.7845 299.786,16.9512 301,18.5C 310.924,32.0253 320.59,45.692 330,59.5C 330.667,84.1667 330.667,108.833 330,133.5C 328.445,142.054 323.612,147.888 315.5,151C 309.509,151.499 303.509,151.666 297.5,151.5C 299.885,164.908 294.885,174.075 282.5,179C 276.175,179.5 269.842,179.666 263.5,179.5C 263.5,195.167 263.5,210.833 263.5,226.5C 322.168,226.333 380.834,226.5 439.5,227C 441.667,227.833 443.167,229.333 444,231.5C 444.167,251.508 444.667,271.508 445.5,291.5C 463.332,302.917 481.332,314.084 499.5,325C 505.325,329.303 509.325,334.803 511.5,341.5 Z"/></g>
<g><path style="opacity:1" fill="#e4f3f4" d="M 233.5,30.5 C 247.171,30.3334 260.837,30.5001 274.5,31C 282.034,40.5675 289.2,50.4008 296,60.5C 297.75,68.9322 297.917,77.2655 296.5,85.5C 286.43,71.7222 276.097,58.0556 265.5,44.5C 253.217,43.5199 240.884,43.1866 228.5,43.5C 228.335,40.4816 228.502,37.4816 229,34.5C 229.748,32.249 231.248,30.9156 233.5,30.5 Z"/></g>
<g><path style="opacity:1" fill="#d8f0f3" d="M 233.5,30.5 C 251.995,29.3378 270.662,29.1712 289.5,30C 297.667,40.8333 305.833,51.6667 314,62.5C 314.667,86.1667 314.667,109.833 314,133.5C 313.097,134.701 311.931,135.535 310.5,136C 306.179,136.499 301.846,136.666 297.5,136.5C 297.818,119.423 297.485,102.423 296.5,85.5C 297.917,77.2655 297.75,68.9322 296,60.5C 289.2,50.4008 282.034,40.5675 274.5,31C 260.837,30.5001 247.171,30.3334 233.5,30.5 Z"/></g>
<g><path style="opacity:1" fill="#dbf4f7" d="M 200.5,58.5 C 214.183,58.1675 227.85,58.5008 241.5,59.5C 249.248,69.0819 256.415,79.0819 263,89.5C 263.5,96.1583 263.666,102.825 263.5,109.5C 246.991,109.17 230.658,109.504 214.5,110.5C 208.508,112.712 207.008,116.712 210,122.5C 210.903,123.701 212.069,124.535 213.5,125C 230.163,125.5 246.83,125.667 263.5,125.5C 263.5,129.5 263.5,133.5 263.5,137.5C 246.497,137.333 229.497,137.5 212.5,138C 207.167,142.667 207.167,147.333 212.5,152C 229.497,152.5 246.497,152.667 263.5,152.5C 263.605,156.548 263.272,160.548 262.5,164.5C 241.497,164.667 220.497,164.5 199.5,164C 198.667,163.167 197.833,162.333 197,161.5C 196.333,128.167 196.333,94.8333 197,61.5C 198.039,60.2899 199.206,59.2899 200.5,58.5 Z"/></g>
<g><path style="opacity:1" fill="#cdeaee" d="M 200.5,58.5 C 219.329,57.3377 238.329,57.1711 257.5,58C 265.544,69.2554 273.711,80.4221 282,91.5C 282.667,114.5 282.667,137.5 282,160.5C 280.833,161.667 279.667,162.833 278.5,164C 273.177,164.499 267.844,164.666 262.5,164.5C 263.272,160.548 263.605,156.548 263.5,152.5C 269.93,150.638 271.763,146.638 269,140.5C 267.417,139.029 265.583,138.029 263.5,137.5C 263.5,133.5 263.5,129.5 263.5,125.5C 271.91,121.63 272.577,116.797 265.5,111C 248.503,110.5 231.503,110.333 214.5,110.5C 230.658,109.504 246.991,109.17 263.5,109.5C 263.666,102.825 263.5,96.1583 263,89.5C 256.415,79.0819 249.248,69.0819 241.5,59.5C 227.85,58.5008 214.183,58.1675 200.5,58.5 Z"/></g>
<g><path style="opacity:1" fill="#080909" d="M 212.5,70.5 C 219.669,69.5131 223.169,72.5131 223,79.5C 219.797,84.9163 215.464,85.9163 210,82.5C 207.523,77.6692 208.356,73.6692 212.5,70.5 Z"/></g>
<g><path style="opacity:1" fill="#040404" d="M 214.5,110.5 C 231.503,110.333 248.503,110.5 265.5,111C 272.577,116.797 271.91,121.63 263.5,125.5C 246.83,125.667 230.163,125.5 213.5,125C 212.069,124.535 210.903,123.701 210,122.5C 207.008,116.712 208.508,112.712 214.5,110.5 Z"/></g>
<g><path style="opacity:1" fill="#020303" d="M 263.5,137.5 C 265.583,138.029 267.417,139.029 269,140.5C 271.763,146.638 269.93,150.638 263.5,152.5C 246.497,152.667 229.497,152.5 212.5,152C 207.167,147.333 207.167,142.667 212.5,138C 229.497,137.5 246.497,137.333 263.5,137.5 Z"/></g>
<g><path style="opacity:1" fill="#30ccdd" d="M 429.5,299.5 C 449.805,312.323 470.139,325.156 490.5,338C 492.709,339.873 494.542,342.04 496,344.5C 496.667,388.833 496.667,433.167 496,477.5C 495.5,479.333 494.333,480.5 492.5,481C 454.998,481.831 417.664,481.664 380.5,480.5C 412.833,480.5 445.167,480.5 477.5,480.5C 477.83,462.659 477.497,444.992 476.5,427.5C 480.456,419.14 480.456,410.807 476.5,402.5C 477.662,382.671 477.829,362.671 477,342.5C 475.224,339.059 473.057,335.892 470.5,333C 454.66,323.304 438.994,313.47 423.5,303.5C 425.118,301.684 427.118,300.351 429.5,299.5 Z"/></g>
<g><path style="opacity:1" fill="#6ad7e5" d="M 423.5,303.5 C 438.994,313.47 454.66,323.304 470.5,333C 473.057,335.892 475.224,339.059 477,342.5C 477.829,362.671 477.662,382.671 476.5,402.5C 468.344,389.528 460.178,376.528 452,363.5C 441.589,351.577 431.256,351.577 421,363.5C 412.583,377.336 403.916,391.002 395,404.5C 389.965,419.266 394.465,430.099 408.5,437C 426.5,437.667 444.5,437.667 462.5,437C 468.665,435.996 473.332,432.829 476.5,427.5C 477.497,444.992 477.83,462.659 477.5,480.5C 445.167,480.5 412.833,480.5 380.5,480.5C 378.983,480.489 377.816,479.823 377,478.5C 376.333,433.833 376.333,389.167 377,344.5C 378.25,341.829 380.083,339.663 382.5,338C 391.999,331.749 401.666,325.749 411.5,320C 414.672,316.639 415.338,312.805 413.5,308.5C 416.833,306.833 420.167,305.167 423.5,303.5 Z"/></g>
<g><path style="opacity:1" fill="#30cbdc" d="M 142.5,402.5 C 142.5,409.167 142.5,415.833 142.5,422.5C 138.91,422.544 136.41,424.211 135,427.5C 134.667,444.5 134.333,461.5 134,478.5C 133.097,479.701 131.931,480.535 130.5,481C 92.9977,481.831 55.6644,481.664 18.5,480.5C 50.8333,480.5 83.1667,480.5 115.5,480.5C 115.5,461.5 115.5,442.5 115.5,423.5C 115.5,405.167 115.5,386.833 115.5,368.5C 115.666,359.827 115.5,351.16 115,342.5C 112.559,336.392 108.392,331.892 102.5,329C 91.3049,321.904 79.9716,315.071 68.5,308.5C 70.1868,306.834 72.1868,305.5 74.5,304.5C 93.6688,316.25 112.669,328.25 131.5,340.5C 132.531,341.7 133.365,343.034 134,344.5C 134.333,362.167 134.667,379.833 135,397.5C 136.41,400.789 138.91,402.456 142.5,402.5 Z"/></g>
<g><path style="opacity:1" fill="#30ccdd" d="M 199.5,480.5 C 231.833,480.5 264.167,480.5 296.5,480.5C 296.5,456.167 296.5,431.833 296.5,407.5C 296.5,401.5 296.5,395.5 296.5,389.5C 296.667,373.83 296.5,358.163 296,342.5C 293.559,336.392 289.392,331.892 283.5,329C 272.018,322.338 260.685,315.505 249.5,308.5C 251.945,305.259 254.945,304.426 258.5,306C 275.332,316.917 292.332,327.584 309.5,338C 311.709,339.873 313.542,342.04 315,344.5C 315.667,389.167 315.667,433.833 315,478.5C 314.097,479.701 312.931,480.535 311.5,481C 273.998,481.831 236.664,481.664 199.5,480.5 Z"/></g>
<g><path style="opacity:1" fill="#6ad7e5" d="M 68.5,308.5 C 79.9716,315.071 91.3049,321.904 102.5,329C 108.392,331.892 112.559,336.392 115,342.5C 115.5,351.16 115.666,359.827 115.5,368.5C 112.399,360.911 106.732,356.411 98.5,355C 81.8333,354.333 65.1667,354.333 48.5,355C 41.4017,357.099 36.5683,361.599 34,368.5C 33.8333,377.5 33.6667,386.5 33.5,395.5C 33.383,405.889 33.883,416.222 35,426.5C 37.5,430.333 40.6667,433.5 44.5,436C 63.1011,437.628 81.7678,437.961 100.5,437C 107.617,434.71 112.617,430.21 115.5,423.5C 115.5,442.5 115.5,461.5 115.5,480.5C 83.1667,480.5 50.8333,480.5 18.5,480.5C 16.5891,480.426 15.4224,479.426 15,477.5C 14.3333,433.167 14.3333,388.833 15,344.5C 16.4578,342.04 18.2911,339.873 20.5,338C 36.3852,327.941 52.3852,318.108 68.5,308.5 Z"/></g>
<g><path style="opacity:1" fill="#6ad7e5" d="M 249.5,308.5 C 260.685,315.505 272.018,322.338 283.5,329C 289.392,331.892 293.559,336.392 296,342.5C 296.5,358.163 296.667,373.83 296.5,389.5C 288.364,367.222 272.364,356.722 248.5,358C 219.172,367.49 209.005,386.99 218,416.5C 230.455,438.101 248.621,444.934 272.5,437C 284.75,430.587 292.75,420.754 296.5,407.5C 296.5,431.833 296.5,456.167 296.5,480.5C 264.167,480.5 231.833,480.5 199.5,480.5C 197.983,480.489 196.816,479.823 196,478.5C 195.333,434.167 195.333,389.833 196,345.5C 197.061,342.438 198.894,339.938 201.5,338C 217.385,327.941 233.385,318.108 249.5,308.5 Z"/></g>
<g><path style="opacity:1" fill="#020304" d="M 115.5,368.5 C 115.5,386.833 115.5,405.167 115.5,423.5C 112.617,430.21 107.617,434.71 100.5,437C 81.7678,437.961 63.1011,437.628 44.5,436C 40.6667,433.5 37.5,430.333 35,426.5C 33.883,416.222 33.383,405.889 33.5,395.5C 33.6667,386.5 33.8333,377.5 34,368.5C 36.5683,361.599 41.4017,357.099 48.5,355C 65.1667,354.333 81.8333,354.333 98.5,355C 106.732,356.411 112.399,360.911 115.5,368.5 Z"/></g>
<g><path style="opacity:1" fill="#030403" d="M 476.5,402.5 C 480.456,410.807 480.456,419.14 476.5,427.5C 473.332,432.829 468.665,435.996 462.5,437C 444.5,437.667 426.5,437.667 408.5,437C 394.465,430.099 389.965,419.266 395,404.5C 403.916,391.002 412.583,377.336 421,363.5C 431.256,351.577 441.589,351.577 452,363.5C 460.178,376.528 468.344,389.528 476.5,402.5 Z"/></g>
<g><path style="opacity:1" fill="#040304" d="M 296.5,389.5 C 296.5,395.5 296.5,401.5 296.5,407.5C 292.75,420.754 284.75,430.587 272.5,437C 248.621,444.934 230.455,438.101 218,416.5C 209.005,386.99 219.172,367.49 248.5,358C 272.364,356.722 288.364,367.222 296.5,389.5 Z"/></g>
<g><path style="opacity:1" fill="#968dca" d="M 51.5,370.5 C 62.0821,370.18 72.5821,370.513 83,371.5C 83.8049,388.544 83.6382,405.544 82.5,422.5C 71.8281,422.667 61.1615,422.5 50.5,422C 50,421.5 49.5,421 49,420.5C 48.3333,404.167 48.3333,387.833 49,371.5C 49.6708,370.748 50.5041,370.414 51.5,370.5 Z"/></g>
<g><path style="opacity:1" fill="#7e74b9" d="M 51.5,370.5 C 66.6611,369.339 81.9945,369.172 97.5,370C 98.4162,370.374 99.2496,370.874 100,371.5C 101.636,387.408 101.969,403.408 101,419.5C 100.167,420.333 99.3333,421.167 98.5,422C 93.1771,422.499 87.8437,422.666 82.5,422.5C 83.6382,405.544 83.8049,388.544 83,371.5C 72.5821,370.513 62.0821,370.18 51.5,370.5 Z"/></g>
<g><path style="opacity:1" fill="#fbcd59" d="M 445.5,422.5 C 447.309,418.695 447.809,414.695 447,410.5C 441.005,400.35 434.838,390.35 428.5,380.5C 429.735,377.699 431.235,375.032 433,372.5C 434.113,370.671 435.613,369.837 437.5,370C 447.061,383.897 456.227,398.064 465,412.5C 465.959,416.421 464.792,419.588 461.5,422C 456.177,422.499 450.844,422.666 445.5,422.5 Z"/></g>
<g><path style="opacity:1" fill="#fb74a6" d="M 260.5,373.5 C 257.813,373.336 255.146,373.503 252.5,374C 262.994,383.205 266.494,394.705 263,408.5C 260.891,415.091 257.391,420.758 252.5,425.5C 234.47,421.28 226.97,409.947 230,391.5C 235.722,377.553 245.889,371.553 260.5,373.5 Z"/></g>
<g><path style="opacity:1" fill="#fa5592" d="M 260.5,373.5 C 280.723,380.294 286.556,393.628 278,413.5C 271.611,421.944 263.111,425.944 252.5,425.5C 257.391,420.758 260.891,415.091 263,408.5C 266.494,394.705 262.994,383.205 252.5,374C 255.146,373.503 257.813,373.336 260.5,373.5 Z"/></g>
<g><path style="opacity:1" fill="#fddf76" d="M 428.5,380.5 C 434.838,390.35 441.005,400.35 447,410.5C 447.809,414.695 447.309,418.695 445.5,422.5C 434.162,422.667 422.828,422.5 411.5,422C 406.834,417.994 406.334,413.494 410,408.5C 416.03,398.991 422.196,389.657 428.5,380.5 Z"/></g>
<g><path style="opacity:1" fill="#020505" d="M 55.5,450.5 C 68.1711,450.333 80.8377,450.5 93.5,451C 94.9308,451.465 96.0975,452.299 97,453.5C 98.7238,458.731 97.2238,462.565 92.5,465C 80.1667,465.667 67.8333,465.667 55.5,465C 50.2353,460.076 50.2353,455.242 55.5,450.5 Z"/></g>
<g><path style="opacity:1" fill="#030506" d="M 236.5,450.5 C 249.171,450.333 261.838,450.5 274.5,451C 281.406,456.146 281.073,460.813 273.5,465C 261.5,465.667 249.5,465.667 237.5,465C 232.465,461.987 231.298,457.82 234,452.5C 234.995,451.934 235.828,451.267 236.5,450.5 Z"/></g>
<g><path style="opacity:1" fill="#030506" d="M 415.5,450.5 C 428.504,450.333 441.504,450.5 454.5,451C 459.436,454.958 459.769,459.291 455.5,464C 454.5,464.333 453.5,464.667 452.5,465C 440.5,465.667 428.5,465.667 416.5,465C 410.292,460.58 409.958,455.747 415.5,450.5 Z"/></g>
</svg>
