<?xml version="1.0" encoding="UTF-8"?>
<!DOCTYPE svg PUBLIC "-//W3C//DTD SVG 1.1//EN" "http://www.w3.org/Graphics/SVG/1.1/DTD/svg11.dtd">
<svg xmlns="http://www.w3.org/2000/svg" version="1.1" width="512px" height="512px" style="shape-rendering:geometricPrecision; text-rendering:geometricPrecision; image-rendering:optimizeQuality; fill-rule:evenodd; clip-rule:evenodd" xmlns:xlink="http://www.w3.org/1999/xlink">
<g><path style="opacity:0.983" fill="#020101" d="M 203.5,-0.5 C 210.167,-0.5 216.833,-0.5 223.5,-0.5C 234.587,3.95475 240.587,12.2881 241.5,24.5C 277.424,33.258 301.924,54.9246 315,89.5C 316.809,95.7366 318.143,102.07 319,108.5C 318.763,123.489 319.93,138.322 322.5,153C 321.793,156.822 321.126,160.655 320.5,164.5C 331.156,187.073 325.822,204.573 304.5,217C 300.687,218.772 296.687,219.605 292.5,219.5C 289.546,241.419 279.379,259.086 262,272.5C 261.19,279.082 261.357,285.582 262.5,292C 273.176,295.78 283.676,299.946 294,304.5C 353.763,303.336 413.596,303.169 473.5,304C 481.389,305.363 486.556,309.863 489,317.5C 489.667,343.833 489.667,370.167 489,396.5C 487.836,399.495 485.669,401.161 482.5,401.5C 479.213,400.945 476.713,399.278 475,396.5C 474.667,371.5 474.333,346.5 474,321.5C 473.5,321 473,320.5 472.5,320C 453.836,319.5 435.17,319.333 416.5,319.5C 416.667,341.169 416.5,362.836 416,384.5C 414.141,389.026 410.974,392.192 406.5,394C 391.167,394.667 375.833,394.667 360.5,394C 356.942,392.108 354.442,389.275 353,385.5C 352.5,363.503 352.333,341.503 352.5,319.5C 342.5,319.5 332.5,319.5 322.5,319.5C 313.249,319.182 304.083,319.515 295,320.5C 294.333,378.833 294.333,437.167 295,495.5C 304.083,496.485 313.249,496.818 322.5,496.5C 372.501,496.667 422.501,496.5 472.5,496C 473,495.5 473.5,495 474,494.5C 474.333,471.167 474.667,447.833 475,424.5C 476.883,421.976 479.383,420.642 482.5,420.5C 485.675,420.84 487.841,422.507 489,425.5C 489.667,449.5 489.667,473.5 489,497.5C 487.165,503.833 483.332,508.499 477.5,511.5C 372.5,511.5 267.5,511.5 162.5,511.5C 160.331,509.66 158.998,507.326 158.5,504.5C 159.01,501.336 160.676,498.836 163.5,497C 177.829,496.5 192.163,496.333 206.5,496.5C 206.333,448.499 206.5,400.499 207,352.5C 212.081,347.014 216.748,347.347 221,353.5C 221.5,401.166 221.667,448.832 221.5,496.5C 240.833,496.5 260.167,496.5 279.5,496.5C 279.5,490.833 279.5,485.167 279.5,479.5C 269.494,479.666 259.494,479.5 249.5,479C 245.725,477.558 242.892,475.058 241,471.5C 239.368,450.564 239.034,429.564 240,408.5C 242.263,402.732 246.43,399.399 252.5,398.5C 261.5,398.5 270.5,398.5 279.5,398.5C 279.667,376.831 279.5,355.164 279,333.5C 278.283,334.044 277.783,334.711 277.5,335.5C 269.704,342.126 262.038,348.959 254.5,356C 248.551,359.623 242.884,359.29 237.5,355C 231.5,348.333 225.5,341.667 219.5,335C 215.833,334.333 212.167,334.333 208.5,335C 202.5,341.667 196.5,348.333 190.5,355C 183.537,359.948 176.87,359.614 170.5,354C 158.615,342.279 146.282,331.112 133.5,320.5C 119.689,326.409 105.689,331.742 91.5,336.5C 91.5,389.833 91.5,443.167 91.5,496.5C 105.504,496.333 119.504,496.5 133.5,497C 136.892,498.542 138.892,501.042 139.5,504.5C 138.937,507.295 137.604,509.628 135.5,511.5C 102.167,511.5 68.8333,511.5 35.5,511.5C 28.3214,508.483 23.8214,503.15 22,495.5C 21.3333,460.5 21.3333,425.5 22,390.5C 24.9915,366.678 36.4915,348.178 56.5,335C 92.524,320.104 128.691,305.604 165,291.5C 165.831,284.808 165.664,278.142 164.5,271.5C 148.063,257.96 138.396,240.627 135.5,219.5C 114.934,217.101 103.601,205.601 101.5,185C 102.373,177.877 104.373,171.044 107.5,164.5C 104.819,156.122 104.985,147.789 108,139.5C 103.416,95.8575 118.916,61.6908 154.5,37C 164.519,31.1608 175.185,26.9941 186.5,24.5C 187.475,12.8591 193.141,4.5258 203.5,-0.5 Z"/></g>
<g><path style="opacity:1" fill="#ec6577" d="M 207.5,14.5 C 212.297,14.1211 216.964,14.6211 221.5,16C 224.041,17.8484 225.041,20.3484 224.5,23.5C 217.5,23.5 210.5,23.5 203.5,23.5C 203.34,21.8008 203.506,20.1341 204,18.5C 205.376,17.2949 206.542,15.9616 207.5,14.5 Z"/></g>
<g><path style="opacity:1" fill="#00c0f9" d="M 204.5,38.5 C 212.84,38.3336 221.173,38.5003 229.5,39C 232.334,39.0454 234.834,39.8787 237,41.5C 249.549,62.0137 256.382,84.3471 257.5,108.5C 234.63,104.596 211.63,103.596 188.5,105.5C 190.537,82.3519 195.871,60.0186 204.5,38.5 Z"/></g>
<g><path style="opacity:1" fill="#00a7ed" d="M 204.5,38.5 C 195.871,60.0186 190.537,82.3519 188.5,105.5C 182.608,106.364 176.608,107.364 170.5,108.5C 171.474,86.9356 176.974,66.6023 187,47.5C 189.045,44.5767 191.212,41.7433 193.5,39C 197.152,38.5014 200.818,38.3347 204.5,38.5 Z"/></g>
<g><path style="opacity:1" fill="#00cff8" d="M 303.5,110.5 C 303.821,115.695 303.487,120.695 302.5,125.5C 293.051,120.128 283.051,116.128 272.5,113.5C 271.994,90.46 266.994,68.46 257.5,47.5C 277.773,56.6266 291.94,71.96 300,93.5C 301.963,99.0161 303.13,104.683 303.5,110.5 Z"/></g>
<g><path style="opacity:1" fill="#00cff8" d="M 169.5,46.5 C 170.043,46.56 170.376,46.8933 170.5,47.5C 160.952,68.0655 155.785,89.7321 155,112.5C 144.247,116.197 133.914,120.864 124,126.5C 122.869,90.4157 138.036,63.7491 169.5,46.5 Z"/></g>
<g><path style="opacity:1" fill="#ef6f80" d="M 187.5,150.5 C 183.5,141.675 182.5,132.508 184.5,123C 183.207,122.51 181.873,122.343 180.5,122.5C 215.997,116.349 250.664,119.849 284.5,133C 292.256,136.625 299.423,141.125 306,146.5C 308.063,165.779 299.896,172.613 281.5,167C 259.572,154.69 236.072,147.856 211,146.5C 202.955,146.813 195.121,148.146 187.5,150.5 Z"/></g>
<g><path style="opacity:1" fill="#0085a0" d="M 303.5,110.5 C 304.815,115.68 304.815,121.014 303.5,126.5C 302.893,126.376 302.56,126.043 302.5,125.5C 303.487,120.695 303.821,115.695 303.5,110.5 Z"/></g>
<g><path style="opacity:1" fill="#e95367" d="M 180.5,122.5 C 181.873,122.343 183.207,122.51 184.5,123C 182.5,132.508 183.5,141.675 187.5,150.5C 182.097,151.685 176.763,153.185 171.5,155C 161.017,159.409 150.684,164.076 140.5,169C 125.026,169.506 118.859,162.006 122,146.5C 139.236,133.137 158.736,125.137 180.5,122.5 Z"/></g>
<g><path style="opacity:1" fill="#feddce" d="M 217.5,272.5 C 195.244,259.696 182.744,240.363 180,214.5C 179.5,199.17 179.333,183.837 179.5,168.5C 201.93,159.426 224.596,159.26 247.5,168C 257.766,171.55 267.6,176.05 277,181.5C 277.667,193.5 277.667,205.5 277,217.5C 270.776,250.557 250.943,268.891 217.5,272.5 Z"/></g>
<g><path style="opacity:1" fill="#fdccbc" d="M 179.5,168.5 C 179.333,183.837 179.5,199.17 180,214.5C 182.744,240.363 195.244,259.696 217.5,272.5C 183.927,272.416 162.093,256.416 152,224.5C 150.649,209.87 150.149,195.203 150.5,180.5C 160.052,176.224 169.719,172.224 179.5,168.5 Z"/></g>
<g><path style="opacity:1" fill="#f7a189" d="M 131.5,184.5 C 131.769,189.264 133.102,193.597 135.5,197.5C 135.5,199.833 135.5,202.167 135.5,204.5C 122.586,201.24 116.586,192.906 117.5,179.5C 121.97,181.547 126.636,183.213 131.5,184.5 Z"/></g>
<g><path style="opacity:1" fill="#f3c4b5" d="M 304.5,197.5 C 304.5,192.167 304.5,186.833 304.5,181.5C 308.936,178.221 310.936,179.387 310.5,185C 310.217,190.064 308.217,194.23 304.5,197.5 Z"/></g>
<g><path style="opacity:1" fill="#fba48c" d="M 304.5,181.5 C 304.5,186.833 304.5,192.167 304.5,197.5C 301.713,201.069 298.046,203.402 293.5,204.5C 292.503,197.866 292.17,191.2 292.5,184.5C 296.721,184.314 300.721,183.314 304.5,181.5 Z"/></g>
<g><path style="opacity:1" fill="#f7c5b4" d="M 131.5,184.5 C 132.833,184.5 134.167,184.5 135.5,184.5C 135.5,188.833 135.5,193.167 135.5,197.5C 133.102,193.597 131.769,189.264 131.5,184.5 Z"/></g>
<g><path style="opacity:1" fill="#fba38c" d="M 214.5,287.5 C 214.5,297.833 214.5,308.167 214.5,318.5C 216.167,318.5 217.833,318.5 219.5,318.5C 216.024,319.643 212.358,319.81 208.5,319C 200.213,310.535 191.547,302.535 182.5,295C 181.533,290.599 181.2,286.099 181.5,281.5C 192.163,285.248 203.163,287.248 214.5,287.5 Z"/></g>
<g><path style="opacity:1" fill="#facaba" d="M 219.5,318.5 C 217.833,318.5 216.167,318.5 214.5,318.5C 214.5,308.167 214.5,297.833 214.5,287.5C 225.521,287.219 236.188,285.219 246.5,281.5C 246.826,285.884 246.492,290.217 245.5,294.5C 236.461,302.21 227.794,310.21 219.5,318.5 Z"/></g>
<g><path style="opacity:1" fill="#ec6e7f" d="M 170.5,305.5 C 172.76,306.139 174.76,307.306 176.5,309C 182.642,315.231 188.975,321.231 195.5,327C 191.011,332.489 186.177,337.656 181,342.5C 170.369,333.704 160.203,324.371 150.5,314.5C 157.259,311.479 163.925,308.479 170.5,305.5 Z"/></g>
<g><path style="opacity:1" fill="#ec6e7f" d="M 253.5,306.5 C 261.802,308.434 269.802,311.267 277.5,315C 267.613,324.724 257.279,333.89 246.5,342.5C 241.861,337.526 237.195,332.526 232.5,327.5C 239.727,320.721 246.727,313.721 253.5,306.5 Z"/></g>
<g><path style="opacity:1" fill="#fea80e" d="M 322.5,319.5 C 322.5,378.5 322.5,437.5 322.5,496.5C 313.249,496.818 304.083,496.485 295,495.5C 294.333,437.167 294.333,378.833 295,320.5C 304.083,319.515 313.249,319.182 322.5,319.5 Z"/></g>
<g><path style="opacity:1" fill="#fdc164" d="M 322.5,319.5 C 332.5,319.5 342.5,319.5 352.5,319.5C 352.333,341.503 352.5,363.503 353,385.5C 354.442,389.275 356.942,392.108 360.5,394C 375.833,394.667 391.167,394.667 406.5,394C 410.974,392.192 414.141,389.026 416,384.5C 416.5,362.836 416.667,341.169 416.5,319.5C 435.17,319.333 453.836,319.5 472.5,320C 473,320.5 473.5,321 474,321.5C 474.333,346.5 474.667,371.5 475,396.5C 476.713,399.278 479.213,400.945 482.5,401.5C 482.5,407.833 482.5,414.167 482.5,420.5C 479.383,420.642 476.883,421.976 475,424.5C 474.667,447.833 474.333,471.167 474,494.5C 473.5,495 473,495.5 472.5,496C 422.501,496.5 372.501,496.667 322.5,496.5C 322.5,437.5 322.5,378.5 322.5,319.5 Z"/></g>
<g><path style="opacity:1" fill="#7d333d" d="M 367.5,319.5 C 367.5,339.5 367.5,359.5 367.5,379.5C 373.167,379.5 378.833,379.5 384.5,379.5C 389.833,379.5 395.167,379.5 400.5,379.5C 400.5,359.5 400.5,339.5 400.5,319.5C 401.497,339.66 401.83,359.993 401.5,380.5C 389.833,380.5 378.167,380.5 366.5,380.5C 366.17,359.993 366.503,339.66 367.5,319.5 Z"/></g>
<g><path style="opacity:1" fill="#ed5469" d="M 367.5,319.5 C 373.167,319.5 378.833,319.5 384.5,319.5C 384.5,339.5 384.5,359.5 384.5,379.5C 378.833,379.5 373.167,379.5 367.5,379.5C 367.5,359.5 367.5,339.5 367.5,319.5 Z"/></g>
<g><path style="opacity:1" fill="#f17181" d="M 384.5,319.5 C 389.833,319.5 395.167,319.5 400.5,319.5C 400.5,339.5 400.5,359.5 400.5,379.5C 395.167,379.5 389.833,379.5 384.5,379.5C 384.5,359.5 384.5,339.5 384.5,319.5 Z"/></g>
<g><path style="opacity:0.999" fill="#00d0fa" d="M 277.5,335.5 C 278.497,355.993 278.831,376.66 278.5,397.5C 269.651,397.174 260.984,397.507 252.5,398.5C 246.43,399.399 242.263,402.732 240,408.5C 239.034,429.564 239.368,450.564 241,471.5C 242.892,475.058 245.725,477.558 249.5,479C 259.494,479.5 269.494,479.666 279.5,479.5C 279.5,485.167 279.5,490.833 279.5,496.5C 260.167,496.5 240.833,496.5 221.5,496.5C 221.667,448.832 221.5,401.166 221,353.5C 216.748,347.347 212.081,347.014 207,352.5C 206.5,400.499 206.333,448.499 206.5,496.5C 192.163,496.333 177.829,496.5 163.5,497C 160.676,498.836 159.01,501.336 158.5,504.5C 152.167,504.5 145.833,504.5 139.5,504.5C 138.892,501.042 136.892,498.542 133.5,497C 119.504,496.5 105.504,496.333 91.5,496.5C 91.5,443.167 91.5,389.833 91.5,336.5C 105.689,331.742 119.689,326.409 133.5,320.5C 146.282,331.112 158.615,342.279 170.5,354C 176.87,359.614 183.537,359.948 190.5,355C 196.5,348.333 202.5,341.667 208.5,335C 212.167,334.333 215.833,334.333 219.5,335C 225.5,341.667 231.5,348.333 237.5,355C 242.884,359.29 248.551,359.623 254.5,356C 262.038,348.959 269.704,342.126 277.5,335.5 Z"/></g>
<g><path style="opacity:1" fill="#00a4c4" d="M 252.5,398.5 C 260.984,397.507 269.651,397.174 278.5,397.5C 278.831,376.66 278.497,355.993 277.5,335.5C 277.783,334.711 278.283,334.044 279,333.5C 279.5,355.164 279.667,376.831 279.5,398.5C 270.5,398.5 261.5,398.5 252.5,398.5 Z"/></g>
<g><path style="opacity:1" fill="#f17081" d="M 60.5,434.5 C 60.3334,414.497 60.5,394.497 61,374.5C 62.933,363.525 67.0997,353.525 73.5,344.5C 74.209,343.596 75.209,343.263 76.5,343.5C 76.5,373.833 76.5,404.167 76.5,434.5C 71.1667,434.5 65.8333,434.5 60.5,434.5 Z"/></g>
<g><path style="opacity:1" fill="#e85267" d="M 73.5,344.5 C 67.0997,353.525 62.933,363.525 61,374.5C 60.5,394.497 60.3334,414.497 60.5,434.5C 52.5,434.5 44.5,434.5 36.5,434.5C 36.3334,420.496 36.5001,406.496 37,392.5C 39.3687,376.136 46.8687,362.636 59.5,352C 63.7436,348.712 68.4103,346.212 73.5,344.5 Z"/></g>
<g><path style="opacity:1" fill="#020102" d="M 119.5,398.5 C 138.836,398.333 158.17,398.5 177.5,399C 183,400.5 186.5,404 188,409.5C 188.667,429.167 188.667,448.833 188,468.5C 186.5,474 183,477.5 177.5,479C 158.167,479.667 138.833,479.667 119.5,479C 114.572,477.073 111.406,473.573 110,468.5C 109.333,448.5 109.333,428.5 110,408.5C 112.022,403.98 115.189,400.647 119.5,398.5 Z"/></g>
<g><path style="opacity:1" fill="#ed5469" d="M 146.5,413.5 C 146.5,430.5 146.5,447.5 146.5,464.5C 139.167,464.5 131.833,464.5 124.5,464.5C 124.5,447.5 124.5,430.5 124.5,413.5C 131.833,413.5 139.167,413.5 146.5,413.5 Z"/></g>
<g><path style="opacity:1" fill="#f17081" d="M 146.5,413.5 C 155.5,413.5 164.5,413.5 173.5,413.5C 173.5,430.5 173.5,447.5 173.5,464.5C 164.5,464.5 155.5,464.5 146.5,464.5C 146.5,447.5 146.5,430.5 146.5,413.5 Z"/></g>
<g><path style="opacity:1" fill="#ec5468" d="M 275.5,413.5 C 275.5,430.5 275.5,447.5 275.5,464.5C 268.5,464.5 261.5,464.5 254.5,464.5C 254.5,447.5 254.5,430.5 254.5,413.5C 261.5,413.5 268.5,413.5 275.5,413.5 Z"/></g>
<g><path style="opacity:1" fill="#e56879" d="M 275.5,413.5 C 276.833,413.5 278.167,413.5 279.5,413.5C 279.5,430.5 279.5,447.5 279.5,464.5C 278.167,464.5 276.833,464.5 275.5,464.5C 275.5,447.5 275.5,430.5 275.5,413.5 Z"/></g>
<g><path style="opacity:1" fill="#f9a28b" d="M 60.5,449.5 C 60.5,465.167 60.5,480.833 60.5,496.5C 53.825,496.666 47.1583,496.5 40.5,496C 39.5838,495.626 38.7504,495.126 38,494.5C 36.5326,479.597 36.0326,464.597 36.5,449.5C 44.5,449.5 52.5,449.5 60.5,449.5 Z"/></g>
<g><path style="opacity:1" fill="#fecdbd" d="M 60.5,449.5 C 65.8333,449.5 71.1667,449.5 76.5,449.5C 76.5,465.167 76.5,480.833 76.5,496.5C 71.1667,496.5 65.8333,496.5 60.5,496.5C 60.5,480.833 60.5,465.167 60.5,449.5 Z"/></g>
</svg>
